<svg width="28" height="28" viewBox="0 0 28 28" fill="none" xmlns="http://www.w3.org/2000/svg">
<path d="M23.3333 0.666687H4.66663C3.60576 0.666687 2.58834 1.08811 1.8382 1.83826C1.08805 2.58841 0.666626 3.60582 0.666626 4.66669V18C0.666626 19.0609 1.08805 20.0783 1.8382 20.8284C2.58834 21.5786 3.60576 22 4.66663 22H8.66663V24.6667H4.66663C4.313 24.6667 3.97387 24.8072 3.72382 25.0572C3.47377 25.3073 3.33329 25.6464 3.33329 26C3.33329 26.3536 3.47377 26.6928 3.72382 26.9428C3.97387 27.1929 4.313 27.3334 4.66663 27.3334H23.3333C23.6869 27.3334 24.0261 27.1929 24.2761 26.9428C24.5262 26.6928 24.6666 26.3536 24.6666 26C24.6666 25.6464 24.5262 25.3073 24.2761 25.0572C24.0261 24.8072 23.6869 24.6667 23.3333 24.6667H19.3333V22H23.3333C24.3942 22 25.4116 21.5786 26.1617 20.8284C26.9119 20.0783 27.3333 19.0609 27.3333 18V4.66669C27.3333 3.60582 26.9119 2.58841 26.1617 1.83826C25.4116 1.08811 24.3942 0.666687 23.3333 0.666687ZM16.6666 24.6667H11.3333V22H16.6666V24.6667ZM24.6666 18C24.6666 18.3536 24.5262 18.6928 24.2761 18.9428C24.0261 19.1929 23.6869 19.3334 23.3333 19.3334H4.66663C4.313 19.3334 3.97387 19.1929 3.72382 18.9428C3.47377 18.6928 3.33329 18.3536 3.33329 18V16.6667H24.6666V18ZM24.6666 14H3.33329V4.66669C3.33329 4.31307 3.47377 3.97393 3.72382 3.72388C3.97387 3.47383 4.313 3.33335 4.66663 3.33335H23.3333C23.6869 3.33335 24.0261 3.47383 24.2761 3.72388C24.5262 3.97393 24.6666 4.31307 24.6666 4.66669V14Z" fill="#CCF335"/>
</svg>
