<svg width="28" height="28" viewBox="0 0 28 28" fill="none" xmlns="http://www.w3.org/2000/svg">
<path d="M4.66663 22H10.32C10.4954 22.001 10.6694 21.9674 10.8318 21.901C10.9943 21.8347 11.142 21.7369 11.2666 21.6133L20.4933 12.3733L24.28 8.66667C24.4049 8.54272 24.5041 8.39525 24.5718 8.23277C24.6395 8.07029 24.6744 7.89602 24.6744 7.72C24.6744 7.54398 24.6395 7.36971 24.5718 7.20723C24.5041 7.04475 24.4049 6.89728 24.28 6.77333L18.6266 1.05333C18.5027 0.928362 18.3552 0.82917 18.1927 0.761478C18.0303 0.693787 17.856 0.658936 17.68 0.658936C17.5039 0.658936 17.3297 0.693787 17.1672 0.761478C17.0047 0.82917 16.8572 0.928362 16.7333 1.05333L12.9733 4.82667L3.71996 14.0667C3.59638 14.1913 3.49862 14.339 3.43226 14.5015C3.36591 14.6639 3.33228 14.8379 3.33329 15.0133V20.6667C3.33329 21.0203 3.47377 21.3594 3.72382 21.6095C3.97387 21.8595 4.313 22 4.66663 22ZM17.68 3.88L21.4533 7.65333L19.56 9.54667L15.7866 5.77333L17.68 3.88ZM5.99996 15.56L13.9066 7.65333L17.68 11.4267L9.77329 19.3333H5.99996V15.56ZM26 24.6667H1.99996C1.64634 24.6667 1.3072 24.8071 1.05715 25.0572C0.807102 25.3072 0.666626 25.6464 0.666626 26C0.666626 26.3536 0.807102 26.6928 1.05715 26.9428C1.3072 27.1929 1.64634 27.3333 1.99996 27.3333H26C26.3536 27.3333 26.6927 27.1929 26.9428 26.9428C27.1928 26.6928 27.3333 26.3536 27.3333 26C27.3333 25.6464 27.1928 25.3072 26.9428 25.0572C26.6927 24.8071 26.3536 24.6667 26 24.6667Z" fill="#CCF335"/>
</svg>
