<svg width="28" height="28" viewBox="0 0 28 28" fill="none" xmlns="http://www.w3.org/2000/svg">
<path d="M14 12.6667C13.2088 12.6667 12.4355 12.9013 11.7777 13.3408C11.1199 13.7803 10.6072 14.405 10.3044 15.136C10.0017 15.8669 9.92248 16.6711 10.0768 17.447C10.2312 18.223 10.6121 18.9357 11.1715 19.4951C11.7309 20.0545 12.4437 20.4355 13.2196 20.5898C13.9955 20.7442 14.7998 20.665 15.5307 20.3622C16.2616 20.0595 16.8863 19.5468 17.3258 18.889C17.7654 18.2312 18 17.4578 18 16.6667C18 15.6058 17.5785 14.5884 16.8284 13.8383C16.0782 13.0881 15.0608 12.6667 14 12.6667ZM14 18C13.7363 18 13.4785 17.9218 13.2592 17.7753C13.0399 17.6288 12.869 17.4206 12.7681 17.1769C12.6672 16.9333 12.6408 16.6652 12.6922 16.4066C12.7437 16.1479 12.8707 15.9103 13.0572 15.7239C13.2436 15.5374 13.4812 15.4104 13.7398 15.359C13.9985 15.3075 14.2666 15.3339 14.5102 15.4348C14.7538 15.5358 14.9621 15.7067 15.1086 15.9259C15.2551 16.1452 15.3333 16.403 15.3333 16.6667C15.3333 17.0203 15.1928 17.3594 14.9428 17.6095C14.6927 17.8595 14.3536 18 14 18ZM23.3333 6.00002H19.3333V4.66669C19.3333 3.60582 18.9119 2.58841 18.1617 1.83826C17.4116 1.08811 16.3942 0.666687 15.3333 0.666687H12.6666C11.6058 0.666687 10.5883 1.08811 9.8382 1.83826C9.08805 2.58841 8.66663 3.60582 8.66663 4.66669V6.00002H4.66663C3.60576 6.00002 2.58834 6.42145 1.8382 7.17159C1.08805 7.92174 0.666626 8.93915 0.666626 10V23.3334C0.666626 24.3942 1.08805 25.4116 1.8382 26.1618C2.58834 26.9119 3.60576 27.3334 4.66663 27.3334H23.3333C24.3942 27.3334 25.4116 26.9119 26.1617 26.1618C26.9119 25.4116 27.3333 24.3942 27.3333 23.3334V10C27.3333 8.93915 26.9119 7.92174 26.1617 7.17159C25.4116 6.42145 24.3942 6.00002 23.3333 6.00002ZM11.3333 4.66669C11.3333 4.31307 11.4738 3.97393 11.7238 3.72388C11.9739 3.47383 12.313 3.33335 12.6666 3.33335H15.3333C15.6869 3.33335 16.0261 3.47383 16.2761 3.72388C16.5262 3.97393 16.6666 4.31307 16.6666 4.66669V6.00002H11.3333V4.66669ZM3.33329 10C3.33329 9.6464 3.47377 9.30726 3.72382 9.05721C3.97387 8.80716 4.313 8.66669 4.66663 8.66669H5.99996C5.99996 9.37393 5.71901 10.0522 5.21891 10.5523C4.71881 11.0524 4.04054 11.3334 3.33329 11.3334V10ZM4.66663 24.6667C4.313 24.6667 3.97387 24.5262 3.72382 24.2762C3.47377 24.0261 3.33329 23.687 3.33329 23.3334V22C4.04054 22 4.71881 22.281 5.21891 22.7811C5.71901 23.2812 5.99996 23.9594 5.99996 24.6667H4.66663ZM24.6666 23.3334C24.6666 23.687 24.5262 24.0261 24.2761 24.2762C24.0261 24.5262 23.6869 24.6667 23.3333 24.6667H22C22 23.9594 22.2809 23.2812 22.781 22.7811C23.2811 22.281 23.9594 22 24.6666 22V23.3334ZM24.6666 19.3334C23.2521 19.3334 21.8956 19.8953 20.8954 20.8955C19.8952 21.8956 19.3333 23.2522 19.3333 24.6667H8.66663C8.66663 23.2522 8.10472 21.8956 7.10453 20.8955C6.10434 19.8953 4.74778 19.3334 3.33329 19.3334V14C4.74778 14 6.10434 13.4381 7.10453 12.4379C8.10472 11.4377 8.66663 10.0812 8.66663 8.66669H19.3333C19.3333 10.0812 19.8952 11.4377 20.8954 12.4379C21.8956 13.4381 23.2521 14 24.6666 14V19.3334ZM24.6666 11.3334C23.9594 11.3334 23.2811 11.0524 22.781 10.5523C22.2809 10.0522 22 9.37393 22 8.66669H23.3333C23.6869 8.66669 24.0261 8.80716 24.2761 9.05721C24.5262 9.30726 24.6666 9.6464 24.6666 10V11.3334Z" fill="#CCF335"/>
</svg>
