<svg width="30" height="24" viewBox="0 0 30 24" fill="none" xmlns="http://www.w3.org/2000/svg">
<path d="M15.4 12.2934C16.1115 11.6775 16.6821 10.9159 17.0732 10.0601C17.4643 9.20424 17.6667 8.2743 17.6667 7.33335C17.6667 5.56524 16.9643 3.86955 15.7141 2.61931C14.4638 1.36907 12.7682 0.666687 11 0.666687C9.23193 0.666687 7.53624 1.36907 6.286 2.61931C5.03575 3.86955 4.33337 5.56524 4.33337 7.33335C4.33336 8.2743 4.53578 9.20424 4.92688 10.0601C5.31797 10.9159 5.8886 11.6775 6.60004 12.2934C4.73356 13.1385 3.14999 14.5034 2.03868 16.2247C0.927368 17.9461 0.335336 19.9511 0.333374 22C0.333374 22.3536 0.47385 22.6928 0.723898 22.9428C0.973947 23.1929 1.31309 23.3334 1.66671 23.3334C2.02033 23.3334 2.35947 23.1929 2.60952 22.9428C2.85957 22.6928 3.00004 22.3536 3.00004 22C3.00004 19.8783 3.8429 17.8435 5.34319 16.3432C6.84348 14.8429 8.87831 14 11 14C13.1218 14 15.1566 14.8429 16.6569 16.3432C18.1572 17.8435 19 19.8783 19 22C19 22.3536 19.1405 22.6928 19.3906 22.9428C19.6406 23.1929 19.9798 23.3334 20.3334 23.3334C20.687 23.3334 21.0261 23.1929 21.2762 22.9428C21.5262 22.6928 21.6667 22.3536 21.6667 22C21.6647 19.9511 21.0727 17.9461 19.9614 16.2247C18.8501 14.5034 17.2665 13.1385 15.4 12.2934ZM11 11.3334C10.2089 11.3334 9.43556 11.0988 8.77776 10.6592C8.11996 10.2197 7.60727 9.59499 7.30452 8.86409C7.00177 8.13318 6.92256 7.32892 7.0769 6.55299C7.23124 5.77707 7.6122 5.06434 8.17161 4.50493C8.73102 3.94552 9.44376 3.56455 10.2197 3.41021C10.9956 3.25587 11.7999 3.33509 12.5308 3.63784C13.2617 3.94059 13.8864 4.45328 14.3259 5.11107C14.7654 5.76887 15 6.54223 15 7.33335C15 8.39422 14.5786 9.41164 13.8285 10.1618C13.0783 10.9119 12.0609 11.3334 11 11.3334ZM23.9867 11.76C24.84 10.7991 25.3974 9.61209 25.5918 8.34181C25.7862 7.07152 25.6093 5.77212 25.0824 4.60002C24.5555 3.42792 23.7011 2.43308 22.622 1.73525C21.5429 1.03742 20.2851 0.666344 19 0.666687C18.6464 0.666687 18.3073 0.807163 18.0572 1.05721C17.8072 1.30726 17.6667 1.6464 17.6667 2.00002C17.6667 2.35364 17.8072 2.69278 18.0572 2.94283C18.3073 3.19288 18.6464 3.33335 19 3.33335C20.0609 3.33335 21.0783 3.75478 21.8285 4.50493C22.5786 5.25507 23 6.27249 23 7.33335C22.9982 8.03367 22.8124 8.72122 22.4615 9.32725C22.1105 9.93327 21.6065 10.4365 21 10.7867C20.8024 10.9007 20.6373 11.0636 20.5205 11.2597C20.4038 11.4558 20.3394 11.6786 20.3334 11.9067C20.3278 12.133 20.38 12.3571 20.4849 12.5577C20.5899 12.7583 20.7442 12.9289 20.9334 13.0534L21.4534 13.4L21.6267 13.4934C23.2339 14.2556 24.5898 15.4613 25.5347 16.9684C26.4796 18.4755 26.9741 20.2213 26.96 22C26.96 22.3536 27.1005 22.6928 27.3506 22.9428C27.6006 23.1929 27.9398 23.3334 28.2934 23.3334C28.647 23.3334 28.9861 23.1929 29.2362 22.9428C29.4862 22.6928 29.6267 22.3536 29.6267 22C29.6376 19.9539 29.1251 17.939 28.138 16.1468C27.1509 14.3545 25.7218 12.8444 23.9867 11.76Z" fill="#CCF335"/>
</svg>
