<svg width="28" height="24" viewBox="0 0 28 24" fill="none" xmlns="http://www.w3.org/2000/svg">
<path d="M26.2933 12C26.957 11.2698 27.3274 10.3201 27.3333 9.33333C27.3333 8.27247 26.9119 7.25505 26.1617 6.50491C25.4116 5.75476 24.3942 5.33333 23.3333 5.33333H16.4266C16.6396 4.7309 16.7052 4.08621 16.6179 3.45324C16.5305 2.82026 16.2928 2.21742 15.9246 1.69518C15.5564 1.17294 15.0685 0.746503 14.5017 0.451571C13.9348 0.156639 13.3056 0.00179402 12.6666 0H4.66663C3.60576 0 2.58834 0.421427 1.8382 1.17157C1.08805 1.92172 0.666626 2.93913 0.666626 4C0.672507 4.98674 1.04291 5.93648 1.70663 6.66667C1.05069 7.40003 0.68805 8.34942 0.68805 9.33333C0.68805 10.3172 1.05069 11.2666 1.70663 12C1.05069 12.7334 0.68805 13.6828 0.68805 14.6667C0.68805 15.6506 1.05069 16.6 1.70663 17.3333C1.04291 18.0635 0.672507 19.0133 0.666626 20C0.666626 21.0609 1.08805 22.0783 1.8382 22.8284C2.58834 23.5786 3.60576 24 4.66663 24H23.3333C24.1036 23.9959 24.8564 23.7694 25.5011 23.3478C26.1459 22.9262 26.6552 22.3273 26.9678 21.6233C27.2804 20.9192 27.383 20.1398 27.2634 19.3788C27.1437 18.6178 26.8069 17.9075 26.2933 17.3333C26.9492 16.6 27.3119 15.6506 27.3119 14.6667C27.3119 13.6828 26.9492 12.7334 26.2933 12ZM12.6666 21.3333H4.66663C4.313 21.3333 3.97387 21.1929 3.72382 20.9428C3.47377 20.6928 3.33329 20.3536 3.33329 20C3.33329 19.6464 3.47377 19.3072 3.72382 19.0572C3.97387 18.8071 4.313 18.6667 4.66663 18.6667H12.6666C13.0202 18.6667 13.3594 18.8071 13.6094 19.0572C13.8595 19.3072 14 19.6464 14 20C14 20.3536 13.8595 20.6928 13.6094 20.9428C13.3594 21.1929 13.0202 21.3333 12.6666 21.3333ZM12.6666 16H4.66663C4.313 16 3.97387 15.8595 3.72382 15.6095C3.47377 15.3594 3.33329 15.0203 3.33329 14.6667C3.33329 14.313 3.47377 13.9739 3.72382 13.7239C3.97387 13.4738 4.313 13.3333 4.66663 13.3333H12.6666C13.0202 13.3333 13.3594 13.4738 13.6094 13.7239C13.8595 13.9739 14 14.313 14 14.6667C14 15.0203 13.8595 15.3594 13.6094 15.6095C13.3594 15.8595 13.0202 16 12.6666 16ZM12.6666 10.6667H4.66663C4.313 10.6667 3.97387 10.5262 3.72382 10.2761C3.47377 10.0261 3.33329 9.68696 3.33329 9.33333C3.33329 8.97971 3.47377 8.64057 3.72382 8.39052C3.97387 8.14048 4.313 8 4.66663 8H12.6666C13.0202 8 13.3594 8.14048 13.6094 8.39052C13.8595 8.64057 14 8.97971 14 9.33333C14 9.68696 13.8595 10.0261 13.6094 10.2761C13.3594 10.5262 13.0202 10.6667 12.6666 10.6667ZM12.6666 5.33333H4.66663C4.313 5.33333 3.97387 5.19286 3.72382 4.94281C3.47377 4.69276 3.33329 4.35362 3.33329 4C3.33329 3.64638 3.47377 3.30724 3.72382 3.05719C3.97387 2.80714 4.313 2.66667 4.66663 2.66667H12.6666C13.0202 2.66667 13.3594 2.80714 13.6094 3.05719C13.8595 3.30724 14 3.64638 14 4C14 4.35362 13.8595 4.69276 13.6094 4.94281C13.3594 5.19286 13.0202 5.33333 12.6666 5.33333ZM24.2533 20.9467C24.1351 21.0713 23.9923 21.1701 23.8339 21.2366C23.6755 21.3032 23.5051 21.3361 23.3333 21.3333H16.4266C16.7464 20.4732 16.7464 19.5268 16.4266 18.6667H23.3333C23.6869 18.6667 24.0261 18.8071 24.2761 19.0572C24.5262 19.3072 24.6666 19.6464 24.6666 20C24.6642 20.1774 24.6263 20.3524 24.5554 20.515C24.4844 20.6775 24.3817 20.8243 24.2533 20.9467ZM24.2533 15.6133C24.1351 15.738 23.9923 15.8367 23.8339 15.9033C23.6755 15.9699 23.5051 16.0028 23.3333 16H16.4266C16.7464 15.1399 16.7464 14.1935 16.4266 13.3333H23.3333C23.6869 13.3333 24.0261 13.4738 24.2761 13.7239C24.5262 13.9739 24.6666 14.313 24.6666 14.6667C24.6642 14.844 24.6263 15.0191 24.5554 15.1817C24.4844 15.3442 24.3817 15.491 24.2533 15.6133ZM24.2533 10.28C24.1351 10.4047 23.9923 10.5034 23.8339 10.57C23.6755 10.6365 23.5051 10.6695 23.3333 10.6667H16.4266C16.7464 9.80653 16.7464 8.86014 16.4266 8H23.3333C23.6869 8 24.0261 8.14048 24.2761 8.39052C24.5262 8.64057 24.6666 8.97971 24.6666 9.33333C24.6642 9.51069 24.6263 9.68577 24.5554 9.84832C24.4844 10.0109 24.3817 10.1576 24.2533 10.28Z" fill="#CCF335"/>
</svg>
