<svg width="102" height="40" viewBox="0 0 102 40" fill="none" xmlns="http://www.w3.org/2000/svg">
<rect width="102" height="40" rx="20" fill="#D4F70E"/>
<path d="M30.8159 22.46H26.6579L25.9999 24H24.4179L28.4919 14.606H28.9959L33.0699 24H31.4739L30.8159 22.46ZM28.7439 17.364L27.1899 21.186H30.2839L28.7439 17.364ZM37.5934 16.972C38.3961 16.972 39.0261 17.224 39.4834 17.728C39.9407 18.2227 40.1694 18.8807 40.1694 19.702V24H38.6994V19.898C38.6994 19.422 38.5594 19.0393 38.2794 18.75C38.0087 18.4513 37.6494 18.302 37.2014 18.302C36.7441 18.302 36.3661 18.4513 36.0674 18.75C35.7781 19.0487 35.6334 19.4313 35.6334 19.898V24H34.1634V17.126H35.5354V17.798C36.0581 17.2473 36.7441 16.972 37.5934 16.972ZM45.3661 16.972C46.1688 16.972 46.7988 17.224 47.2561 17.728C47.7135 18.2227 47.9421 18.8807 47.9421 19.702V24H46.4721V19.898C46.4721 19.422 46.3321 19.0393 46.0521 18.75C45.7815 18.4513 45.4221 18.302 44.9741 18.302C44.5168 18.302 44.1388 18.4513 43.8401 18.75C43.5508 19.0487 43.4061 19.4313 43.4061 19.898V24H41.9361V17.126H43.3081V17.798C43.8308 17.2473 44.5168 16.972 45.3661 16.972ZM52.6489 24.154C52.0795 24.154 51.5662 24.0327 51.1089 23.79C50.6515 23.538 50.2922 23.1833 50.0309 22.726C49.7695 22.2593 49.6389 21.7227 49.6389 21.116V17.126H51.0949V21.228C51.0949 21.704 51.2395 22.0867 51.5289 22.376C51.8275 22.656 52.2009 22.796 52.6489 22.796C53.0782 22.796 53.4375 22.656 53.7269 22.376C54.0162 22.0867 54.1609 21.704 54.1609 21.228V17.126H55.6309V21.116C55.6309 21.7227 55.5002 22.2593 55.2389 22.726C54.9775 23.1833 54.6182 23.538 54.1609 23.79C53.7129 24.0327 53.2089 24.154 52.6489 24.154ZM60.0593 16.972C60.9086 16.972 61.5899 17.2193 62.1033 17.714C62.6166 18.2087 62.8733 18.918 62.8733 19.842V24H61.5013V23.23C61.2493 23.5287 60.9366 23.7573 60.5633 23.916C60.1899 24.0747 59.7699 24.154 59.3033 24.154C58.5846 24.154 58.0059 23.972 57.5673 23.608C57.1286 23.244 56.9093 22.7633 56.9093 22.166C56.9093 21.5687 57.1379 21.0927 57.5953 20.738C58.0526 20.3833 58.6686 20.206 59.4433 20.206H61.3893V19.758C61.3893 19.282 61.2586 18.918 60.9973 18.666C60.7453 18.414 60.3859 18.288 59.9193 18.288C59.5366 18.288 59.1959 18.372 58.8973 18.54C58.5986 18.708 58.3046 18.9647 58.0153 19.31L57.1613 18.442C57.5066 17.9473 57.9266 17.5787 58.4213 17.336C58.9159 17.0933 59.4619 16.972 60.0593 16.972ZM59.6113 23.02C60.1059 23.02 60.5259 22.866 60.8713 22.558C61.2166 22.25 61.3893 21.8627 61.3893 21.396V21.27H59.6253C59.2333 21.27 58.9299 21.34 58.7153 21.48C58.5099 21.62 58.4073 21.83 58.4073 22.11C58.4073 22.3993 58.5193 22.6233 58.7433 22.782C58.9673 22.9407 59.2566 23.02 59.6113 23.02ZM64.6391 13.5H66.1091V24H64.6391V13.5ZM67.9548 13.5H69.4248V24H67.9548V13.5ZM77.6265 17.126L74.2805 24.784C73.9912 25.4373 73.6459 25.9133 73.2445 26.212C72.8432 26.52 72.3485 26.674 71.7605 26.674C71.3779 26.674 70.9999 26.6273 70.6265 26.534V25.288C71.0559 25.3253 71.3265 25.344 71.4385 25.344C71.7839 25.344 72.0779 25.2693 72.3205 25.12C72.5632 24.98 72.7685 24.7187 72.9365 24.336L73.2165 23.692L70.4725 17.126H72.0545L74.0285 22.124L76.0585 17.126H77.6265Z" fill="#101518"/>
</svg>
