<svg width="446" height="448" viewBox="0 0 446 448" fill="none" xmlns="http://www.w3.org/2000/svg">
<g filter="url(#filter0_d_1_505)">
<rect x="58" width="330" height="296" fill="#171C1F"/>
</g>
<path d="M198.07 138.392C198.07 136.448 196.966 134.96 195.118 134.36C195.982 133.616 196.438 132.608 196.438 131.384C196.438 128.936 194.542 127.16 191.686 127.16H186.142V143H192.934C196.03 143 198.07 141.056 198.07 138.392ZM191.446 129.392C193.006 129.392 193.894 130.184 193.894 131.504C193.894 132.824 193.006 133.664 191.446 133.664H188.638V129.392H191.446ZM195.502 138.32C195.502 139.832 194.47 140.768 192.718 140.768H188.638V135.848H192.718C194.47 135.848 195.502 136.808 195.502 138.32ZM206.594 131.216C206.306 131.144 205.994 131.096 205.634 131.096C204.29 131.096 203.042 131.696 202.202 132.752V131.216H199.85V143H202.37V136.712C202.37 134.624 203.834 133.448 205.826 133.448H206.594V131.216ZM206.912 137.096C206.84 140.432 209.744 143.336 213.128 143.264C216.56 143.336 219.464 140.432 219.392 137.096C219.464 133.76 216.56 130.88 213.128 130.952C209.744 130.904 206.84 133.712 206.912 137.096ZM216.8 137.12C216.8 139.256 215.216 140.936 213.128 140.936C211.064 140.936 209.48 139.304 209.48 137.12C209.48 134.936 211.064 133.256 213.152 133.256C215.192 133.256 216.8 134.936 216.8 137.12ZM236.38 131.216L233.332 138.824L229.708 130.952H228.844L225.268 138.92L222.172 131.216H219.484L224.716 143.264H225.58L229.276 135.416L232.972 143.264H233.836L239.068 131.216H236.38ZM238.921 140.984C239.977 142.352 241.657 143.264 243.673 143.264C244.921 143.264 245.953 142.952 246.793 142.328C247.633 141.68 248.041 140.792 248.041 139.664C248.041 138.008 247.057 137.048 244.825 136.112L243.697 135.656C242.545 135.176 242.137 134.864 242.137 134.264C242.137 133.52 242.761 133.136 243.745 133.136C244.777 133.136 245.761 133.568 246.505 134.336L247.873 132.776C246.841 131.552 245.497 130.952 243.793 130.952C241.393 130.952 239.641 132.248 239.641 134.36C239.641 136.016 240.625 136.928 242.713 137.792L243.913 138.296C245.065 138.776 245.569 139.064 245.569 139.76C245.569 140.624 244.753 141.08 243.673 141.08C242.425 141.08 241.393 140.48 240.361 139.4L238.921 140.984ZM260.595 137.936C260.715 137.384 260.787 136.856 260.787 136.352C260.787 133.28 258.459 130.952 255.339 130.952C252.003 130.88 249.171 133.736 249.243 137.12C249.243 140.6 251.979 143.264 255.579 143.264C257.379 143.264 258.939 142.64 260.283 141.368L259.083 139.64C258.027 140.576 256.875 141.032 255.651 141.032C253.635 141.032 252.123 139.856 251.811 137.936H260.595ZM251.859 135.968C252.243 134.216 253.587 133.088 255.243 133.088C256.899 133.088 258.243 134.168 258.267 135.968H251.859Z" fill="white"/>
<path d="M117.632 184H120.376C123.47 184 125.402 182.026 125.402 179.366C125.402 176.678 123.47 174.76 120.376 174.76H117.632V184ZM118.724 183.02V175.74H120.362C122.812 175.74 124.268 177.238 124.268 179.366C124.268 181.466 122.798 183.02 120.362 183.02H118.724ZM126.989 184H128.067V177.182H126.989V184ZM126.723 174.578C126.723 175.026 127.087 175.362 127.535 175.362C127.983 175.362 128.333 175.026 128.333 174.578C128.333 174.144 127.969 173.794 127.535 173.794C127.087 173.794 126.723 174.144 126.723 174.578ZM129.51 182.824C130.112 183.608 131.036 184.154 132.17 184.154C132.842 184.154 133.402 183.986 133.864 183.636C134.326 183.286 134.564 182.782 134.564 182.152C134.564 181.214 134.032 180.682 132.758 180.136L132.128 179.87C131.302 179.52 131.022 179.31 131.022 178.876C131.022 178.33 131.484 178.022 132.156 178.022C132.786 178.022 133.374 178.316 133.836 178.778L134.494 178.106C133.934 177.434 133.164 177.028 132.212 177.028C130.91 177.028 129.916 177.742 129.916 178.932C129.916 179.842 130.476 180.36 131.61 180.822L132.268 181.102C133.108 181.438 133.458 181.648 133.458 182.194C133.458 182.796 132.898 183.16 132.156 183.16C131.386 183.16 130.854 182.782 130.196 182.11L129.51 182.824ZM135.742 180.584C135.742 182.558 137.338 184.154 139.312 184.154C140.502 184.154 141.496 183.58 142.112 182.67L141.342 182.068C140.796 182.796 140.124 183.16 139.326 183.16C137.912 183.16 136.848 182.012 136.848 180.584C136.848 179.17 137.912 178.022 139.326 178.022C140.124 178.022 140.81 178.386 141.356 179.128L142.126 178.512C141.51 177.602 140.502 177.028 139.312 177.028C137.366 177 135.7 178.638 135.742 180.584ZM143.036 180.584C143.008 182.502 144.646 184.182 146.592 184.14C148.538 184.182 150.218 182.502 150.176 180.584C150.218 178.638 148.552 177 146.606 177.028C144.66 176.986 142.994 178.638 143.036 180.584ZM149.07 180.598C149.07 182.026 147.978 183.146 146.592 183.146C145.206 183.146 144.142 182.026 144.142 180.598C144.142 179.128 145.206 178.022 146.606 178.022C147.992 178.022 149.07 179.128 149.07 180.598ZM156.361 177.182L154.107 182.32L151.839 177.182H150.691L153.911 184.154H154.303L157.509 177.182H156.361ZM164.531 180.92C164.587 180.64 164.615 180.374 164.615 180.108C164.615 178.302 163.271 177.028 161.507 177.028C159.561 177.028 158.021 178.624 158.021 180.598C158.021 182.6 159.603 184.154 161.633 184.154C162.711 184.154 163.649 183.706 164.363 182.964L163.733 182.236C163.117 182.852 162.417 183.16 161.647 183.16C160.303 183.16 159.267 182.264 159.141 180.92H164.531ZM159.183 179.968C159.421 178.792 160.345 178.008 161.479 178.008C162.613 178.008 163.495 178.75 163.509 179.968H159.183ZM169.855 177.182C169.673 177.14 169.505 177.126 169.351 177.126C168.525 177.126 167.727 177.49 167.237 178.148V177.182H166.229V184H167.307V180.136C167.307 178.876 168.301 178.134 169.449 178.134H169.855V177.182ZM181.623 180.598C181.623 178.596 180.167 177.028 178.249 177.028C177.227 177.028 176.289 177.462 175.743 178.176V173.5H174.665V184H175.673V182.922C176.191 183.692 177.199 184.154 178.263 184.154C180.181 184.154 181.623 182.6 181.623 180.598ZM180.517 180.584C180.517 182.054 179.481 183.16 178.095 183.16C176.877 183.16 175.729 182.32 175.729 180.598C175.729 178.862 176.835 178.022 178.095 178.022C179.481 178.022 180.517 179.114 180.517 180.584ZM189.251 180.92C189.307 180.64 189.335 180.374 189.335 180.108C189.335 178.302 187.991 177.028 186.227 177.028C184.281 177.028 182.741 178.624 182.741 180.598C182.741 182.6 184.323 184.154 186.353 184.154C187.431 184.154 188.369 183.706 189.083 182.964L188.453 182.236C187.837 182.852 187.137 183.16 186.367 183.16C185.023 183.16 183.987 182.264 183.861 180.92H189.251ZM183.903 179.968C184.141 178.792 185.065 178.008 186.199 178.008C187.333 178.008 188.215 178.75 188.229 179.968H183.903ZM196.059 179.8C196.059 178.008 195.009 177.028 193.399 177.028C192.265 177.028 191.243 177.518 190.627 178.526L191.341 179.114C191.901 178.386 192.503 178.022 193.329 178.022C194.351 178.022 194.981 178.624 194.981 179.744V180.332H192.825C191.355 180.332 190.375 181.074 190.375 182.236C190.375 183.412 191.355 184.154 192.755 184.154C193.749 184.154 194.547 183.79 195.051 183.118V184H196.059V179.8ZM194.981 181.382C194.981 182.432 194.015 183.258 192.895 183.258C192.097 183.258 191.481 182.866 191.481 182.18C191.481 181.55 191.999 181.214 192.951 181.214H194.981V181.382ZM201.789 183.09C201.439 183.146 201.145 183.174 200.879 183.174C199.941 183.174 199.437 182.838 199.437 181.872V178.148H201.565V177.182H199.437V175.32H198.359V177.182H197.211V178.148H198.359V181.942C198.359 183.44 199.241 184.154 200.655 184.154C200.977 184.154 201.355 184.098 201.789 184V183.09ZM202.473 182.824C203.075 183.608 203.999 184.154 205.133 184.154C205.805 184.154 206.365 183.986 206.827 183.636C207.289 183.286 207.527 182.782 207.527 182.152C207.527 181.214 206.995 180.682 205.721 180.136L205.091 179.87C204.265 179.52 203.985 179.31 203.985 178.876C203.985 178.33 204.447 178.022 205.119 178.022C205.749 178.022 206.337 178.316 206.799 178.778L207.457 178.106C206.897 177.434 206.127 177.028 205.175 177.028C203.873 177.028 202.879 177.742 202.879 178.932C202.879 179.842 203.439 180.36 204.573 180.822L205.231 181.102C206.071 181.438 206.421 181.648 206.421 182.194C206.421 182.796 205.861 183.16 205.119 183.16C204.349 183.16 203.817 182.782 203.159 182.11L202.473 182.824ZM216.563 183.09C216.213 183.146 215.919 183.174 215.653 183.174C214.715 183.174 214.211 182.838 214.211 181.872V178.148H216.339V177.182H214.211V175.32H213.133V177.182H211.985V178.148H213.133V181.942C213.133 183.44 214.015 184.154 215.429 184.154C215.751 184.154 216.129 184.098 216.563 184V183.09ZM223.533 179.716C223.533 178.106 222.581 177.028 221.013 177.028C220.159 177.028 219.431 177.378 218.969 177.952V173.5H217.891V184H218.969V179.856C218.969 178.792 219.711 178.022 220.761 178.022C221.811 178.022 222.455 178.75 222.455 179.856V184H223.533V179.716ZM230.65 179.8C230.65 178.008 229.6 177.028 227.99 177.028C226.856 177.028 225.834 177.518 225.218 178.526L225.932 179.114C226.492 178.386 227.094 178.022 227.92 178.022C228.942 178.022 229.572 178.624 229.572 179.744V180.332H227.416C225.946 180.332 224.966 181.074 224.966 182.236C224.966 183.412 225.946 184.154 227.346 184.154C228.34 184.154 229.138 183.79 229.642 183.118V184H230.65V179.8ZM229.572 181.382C229.572 182.432 228.606 183.258 227.486 183.258C226.688 183.258 226.072 182.866 226.072 182.18C226.072 181.55 226.59 181.214 227.542 181.214H229.572V181.382ZM236.381 183.09C236.031 183.146 235.737 183.174 235.471 183.174C234.533 183.174 234.029 182.838 234.029 181.872V178.148H236.157V177.182H234.029V175.32H232.951V177.182H231.803V178.148H232.951V181.942C232.951 183.44 233.833 184.154 235.247 184.154C235.569 184.154 235.947 184.098 236.381 184V183.09ZM246.197 177.182L243.943 182.614L241.689 177.182H240.527L243.355 183.79L242.991 184.602C242.641 185.428 242.165 185.694 241.451 185.694C241.255 185.694 240.975 185.666 240.625 185.624V186.534C240.975 186.632 241.325 186.674 241.675 186.674C242.725 186.674 243.467 186.142 243.985 184.952L247.345 177.182H246.197ZM247.856 180.584C247.828 182.502 249.466 184.182 251.412 184.14C253.358 184.182 255.038 182.502 254.996 180.584C255.038 178.638 253.372 177 251.426 177.028C249.48 176.986 247.814 178.638 247.856 180.584ZM253.89 180.598C253.89 182.026 252.798 183.146 251.412 183.146C250.026 183.146 248.962 182.026 248.962 180.598C248.962 179.128 250.026 178.022 251.426 178.022C252.812 178.022 253.89 179.128 253.89 180.598ZM256.527 181.284C256.527 183.006 257.759 184.154 259.355 184.154C260.937 184.154 262.169 183.006 262.169 181.284V177.182H261.091V181.354C261.091 182.432 260.349 183.16 259.355 183.16C258.347 183.16 257.591 182.46 257.591 181.354V177.182H256.527V181.284ZM276.583 177.182L274.651 182.194L272.355 177.028H271.949L269.681 182.236L267.707 177.182H266.559L269.457 184.154H269.835L272.145 179.002L274.469 184.154H274.861L277.731 177.182H276.583ZM278.25 180.584C278.222 182.502 279.86 184.182 281.806 184.14C283.752 184.182 285.432 182.502 285.39 180.584C285.432 178.638 283.766 177 281.82 177.028C279.874 176.986 278.208 178.638 278.25 180.584ZM284.284 180.598C284.284 182.026 283.192 183.146 281.806 183.146C280.42 183.146 279.356 182.026 279.356 180.598C279.356 179.128 280.42 178.022 281.82 178.022C283.206 178.022 284.284 179.128 284.284 180.598ZM292.647 179.716C292.647 178.106 291.695 177.028 290.113 177.028C289.259 177.028 288.517 177.35 288.013 177.91V177.182H287.005V184H288.083V179.842C288.083 178.778 288.825 178.022 289.875 178.022C290.925 178.022 291.569 178.764 291.569 179.842V184H292.647V179.716ZM294.644 178.358H295.498L296.1 174.76H294.84L294.644 178.358ZM302.022 183.09C301.672 183.146 301.378 183.174 301.112 183.174C300.174 183.174 299.67 182.838 299.67 181.872V178.148H301.798V177.182H299.67V175.32H298.592V177.182H297.444V178.148H298.592V181.942C298.592 183.44 299.474 184.154 300.888 184.154C301.21 184.154 301.588 184.098 302.022 184V183.09ZM308.24 175.628C308.24 174.662 308.758 174.326 309.668 174.326C309.85 174.326 310.046 174.34 310.27 174.368V173.458C310.004 173.388 309.71 173.346 309.416 173.346C308.03 173.346 307.162 174.06 307.162 175.558V177.182H306.182V178.148H307.162V184H308.24V178.148H309.948V177.182H308.24V175.628ZM311.446 184H312.524V177.182H311.446V184ZM311.18 174.578C311.18 175.026 311.544 175.362 311.992 175.362C312.44 175.362 312.79 175.026 312.79 174.578C312.79 174.144 312.426 173.794 311.992 173.794C311.544 173.794 311.18 174.144 311.18 174.578ZM320.258 179.716C320.258 178.106 319.306 177.028 317.724 177.028C316.87 177.028 316.128 177.35 315.624 177.91V177.182H314.616V184H315.694V179.842C315.694 178.778 316.436 178.022 317.486 178.022C318.536 178.022 319.18 178.764 319.18 179.842V184H320.258V179.716ZM327.67 173.5V178.19C327.124 177.462 326.172 177.028 325.15 177.028C323.232 177.028 321.776 178.596 321.776 180.598C321.776 182.6 323.232 184.154 325.15 184.154C326.214 184.154 327.208 183.692 327.726 182.922V184H328.748V173.5H327.67ZM327.684 180.598C327.684 182.32 326.536 183.16 325.304 183.16C323.918 183.16 322.882 182.054 322.882 180.584C322.882 179.114 323.918 178.022 325.304 178.022C326.536 178.022 327.684 178.862 327.684 180.598ZM114.086 203.8C114.086 202.008 113.036 201.028 111.426 201.028C110.292 201.028 109.27 201.518 108.654 202.526L109.368 203.114C109.928 202.386 110.53 202.022 111.356 202.022C112.378 202.022 113.008 202.624 113.008 203.744V204.332H110.852C109.382 204.332 108.402 205.074 108.402 206.236C108.402 207.412 109.382 208.154 110.782 208.154C111.776 208.154 112.574 207.79 113.078 207.118V208H114.086V203.8ZM113.008 205.382C113.008 206.432 112.042 207.258 110.922 207.258C110.124 207.258 109.508 206.866 109.508 206.18C109.508 205.55 110.026 205.214 110.978 205.214H113.008V205.382ZM121.734 203.716C121.734 202.106 120.782 201.028 119.2 201.028C118.346 201.028 117.604 201.35 117.1 201.91V201.182H116.092V208H117.17V203.842C117.17 202.778 117.912 202.022 118.962 202.022C120.012 202.022 120.656 202.764 120.656 203.842V208H121.734V203.716ZM128.586 201.182L126.332 206.614L124.078 201.182H122.916L125.744 207.79L125.38 208.602C125.03 209.428 124.554 209.694 123.84 209.694C123.644 209.694 123.364 209.666 123.014 209.624V210.534C123.364 210.632 123.714 210.674 124.064 210.674C125.114 210.674 125.856 210.142 126.374 208.952L129.734 201.182H128.586ZM140.207 201.182L138.275 206.194L135.979 201.028H135.573L133.305 206.236L131.331 201.182H130.183L133.081 208.154H133.459L135.769 203.002L138.093 208.154H138.485L141.355 201.182H140.207ZM148.279 203.716C148.279 202.106 147.327 201.028 145.759 201.028C144.905 201.028 144.177 201.378 143.715 201.952V197.5H142.637V208H143.715V203.856C143.715 202.792 144.457 202.022 145.507 202.022C146.557 202.022 147.201 202.75 147.201 203.856V208H148.279V203.716ZM156.307 204.92C156.363 204.64 156.391 204.374 156.391 204.108C156.391 202.302 155.047 201.028 153.283 201.028C151.337 201.028 149.797 202.624 149.797 204.598C149.797 206.6 151.379 208.154 153.409 208.154C154.487 208.154 155.425 207.706 156.139 206.964L155.509 206.236C154.893 206.852 154.193 207.16 153.423 207.16C152.079 207.16 151.043 206.264 150.917 204.92H156.307ZM150.959 203.968C151.197 202.792 152.121 202.008 153.255 202.008C154.389 202.008 155.271 202.75 155.285 203.968H150.959ZM161.631 201.182C161.449 201.14 161.281 201.126 161.127 201.126C160.301 201.126 159.503 201.49 159.013 202.148V201.182H158.005V208H159.083V204.136C159.083 202.876 160.077 202.134 161.225 202.134H161.631V201.182ZM168.68 204.92C168.736 204.64 168.764 204.374 168.764 204.108C168.764 202.302 167.42 201.028 165.656 201.028C163.71 201.028 162.17 202.624 162.17 204.598C162.17 206.6 163.752 208.154 165.782 208.154C166.86 208.154 167.798 207.706 168.512 206.964L167.882 206.236C167.266 206.852 166.566 207.16 165.796 207.16C164.452 207.16 163.416 206.264 163.29 204.92H168.68ZM163.332 203.968C163.57 202.792 164.494 202.008 165.628 202.008C166.762 202.008 167.644 202.75 167.658 203.968H163.332ZM180.042 204.92C180.098 204.64 180.126 204.374 180.126 204.108C180.126 202.302 178.782 201.028 177.018 201.028C175.072 201.028 173.532 202.624 173.532 204.598C173.532 206.6 175.114 208.154 177.144 208.154C178.222 208.154 179.16 207.706 179.874 206.964L179.244 206.236C178.628 206.852 177.928 207.16 177.158 207.16C175.814 207.16 174.778 206.264 174.652 204.92H180.042ZM174.694 203.968C174.932 202.792 175.856 202.008 176.99 202.008C178.124 202.008 179.006 202.75 179.02 203.968H174.694ZM181.74 208H182.818V197.5H181.74V208ZM184.262 206.824C184.864 207.608 185.788 208.154 186.922 208.154C187.594 208.154 188.154 207.986 188.616 207.636C189.078 207.286 189.316 206.782 189.316 206.152C189.316 205.214 188.784 204.682 187.51 204.136L186.88 203.87C186.054 203.52 185.774 203.31 185.774 202.876C185.774 202.33 186.236 202.022 186.908 202.022C187.538 202.022 188.126 202.316 188.588 202.778L189.246 202.106C188.686 201.434 187.916 201.028 186.964 201.028C185.662 201.028 184.668 201.742 184.668 202.932C184.668 203.842 185.228 204.36 186.362 204.822L187.02 205.102C187.86 205.438 188.21 205.648 188.21 206.194C188.21 206.796 187.65 207.16 186.908 207.16C186.138 207.16 185.606 206.782 184.948 206.11L184.262 206.824ZM197.003 204.92C197.059 204.64 197.087 204.374 197.087 204.108C197.087 202.302 195.743 201.028 193.979 201.028C192.033 201.028 190.493 202.624 190.493 204.598C190.493 206.6 192.075 208.154 194.105 208.154C195.183 208.154 196.121 207.706 196.835 206.964L196.205 206.236C195.589 206.852 194.889 207.16 194.119 207.16C192.775 207.16 191.739 206.264 191.613 204.92H197.003ZM191.655 203.968C191.893 202.792 192.817 202.008 193.951 202.008C195.085 202.008 195.967 202.75 195.981 203.968H191.655ZM203.591 199.628C203.591 198.662 204.109 198.326 205.019 198.326C205.201 198.326 205.397 198.34 205.621 198.368V197.458C205.355 197.388 205.061 197.346 204.767 197.346C203.381 197.346 202.513 198.06 202.513 199.558V201.182H201.533V202.148H202.513V208H203.591V202.148H205.299V201.182H203.591V199.628ZM209.929 201.182C209.747 201.14 209.579 201.126 209.425 201.126C208.599 201.126 207.801 201.49 207.311 202.148V201.182H206.303V208H207.381V204.136C207.381 202.876 208.375 202.134 209.523 202.134H209.929V201.182ZM210.469 204.584C210.441 206.502 212.079 208.182 214.025 208.14C215.971 208.182 217.651 206.502 217.609 204.584C217.651 202.638 215.985 201 214.039 201.028C212.093 200.986 210.427 202.638 210.469 204.584ZM216.503 204.598C216.503 206.026 215.411 207.146 214.025 207.146C212.639 207.146 211.575 206.026 211.575 204.598C211.575 203.128 212.639 202.022 214.039 202.022C215.425 202.022 216.503 203.128 216.503 204.598ZM229.178 203.716C229.178 202.092 228.268 201.028 226.7 201.028C225.692 201.028 224.866 201.49 224.362 202.204C223.97 201.462 223.256 201.028 222.262 201.028C221.422 201.028 220.722 201.336 220.232 201.896V201.182H219.224V208H220.302V203.856C220.302 202.778 221.016 202.022 222.038 202.022C223.032 202.022 223.662 202.75 223.662 203.856V208H224.74V203.758C224.74 202.792 225.468 202.022 226.49 202.022C227.498 202.022 228.1 202.75 228.1 203.856V208H229.178V203.716ZM234.18 206.824C234.782 207.608 235.706 208.154 236.84 208.154C237.512 208.154 238.072 207.986 238.534 207.636C238.996 207.286 239.234 206.782 239.234 206.152C239.234 205.214 238.702 204.682 237.428 204.136L236.798 203.87C235.972 203.52 235.692 203.31 235.692 202.876C235.692 202.33 236.154 202.022 236.826 202.022C237.456 202.022 238.044 202.316 238.506 202.778L239.164 202.106C238.604 201.434 237.834 201.028 236.882 201.028C235.58 201.028 234.586 201.742 234.586 202.932C234.586 203.842 235.146 204.36 236.28 204.822L236.938 205.102C237.778 205.438 238.128 205.648 238.128 206.194C238.128 206.796 237.568 207.16 236.826 207.16C236.056 207.16 235.524 206.782 234.866 206.11L234.18 206.824ZM240.411 204.584C240.383 206.502 242.021 208.182 243.967 208.14C245.913 208.182 247.593 206.502 247.551 204.584C247.593 202.638 245.927 201 243.981 201.028C242.035 200.986 240.369 202.638 240.411 204.584ZM246.445 204.598C246.445 206.026 245.353 207.146 243.967 207.146C242.581 207.146 241.517 206.026 241.517 204.598C241.517 203.128 242.581 202.022 243.981 202.022C245.367 202.022 246.445 203.128 246.445 204.598ZM259.12 203.716C259.12 202.092 258.21 201.028 256.642 201.028C255.634 201.028 254.808 201.49 254.304 202.204C253.912 201.462 253.198 201.028 252.204 201.028C251.364 201.028 250.664 201.336 250.174 201.896V201.182H249.166V208H250.244V203.856C250.244 202.778 250.958 202.022 251.98 202.022C252.974 202.022 253.604 202.75 253.604 203.856V208H254.682V203.758C254.682 202.792 255.41 202.022 256.432 202.022C257.44 202.022 258.042 202.75 258.042 203.856V208H259.12V203.716ZM267.142 204.92C267.198 204.64 267.226 204.374 267.226 204.108C267.226 202.302 265.882 201.028 264.118 201.028C262.172 201.028 260.632 202.624 260.632 204.598C260.632 206.6 262.214 208.154 264.244 208.154C265.322 208.154 266.26 207.706 266.974 206.964L266.344 206.236C265.728 206.852 265.028 207.16 264.258 207.16C262.914 207.16 261.878 206.264 261.752 204.92H267.142ZM261.794 203.968C262.032 202.792 262.956 202.008 264.09 202.008C265.224 202.008 266.106 202.75 266.12 203.968H261.794ZM271.994 204.584C271.966 206.502 273.604 208.182 275.55 208.14C277.496 208.182 279.176 206.502 279.134 204.584C279.176 202.638 277.51 201 275.564 201.028C273.618 200.986 271.952 202.638 271.994 204.584ZM278.028 204.598C278.028 206.026 276.936 207.146 275.55 207.146C274.164 207.146 273.1 206.026 273.1 204.598C273.1 203.128 274.164 202.022 275.564 202.022C276.95 202.022 278.028 203.128 278.028 204.598ZM281.995 199.628C281.995 198.662 282.513 198.326 283.423 198.326C283.605 198.326 283.801 198.34 284.025 198.368V197.458C283.759 197.388 283.465 197.346 283.171 197.346C281.785 197.346 280.917 198.06 280.917 199.558V201.182H279.937V202.148H280.917V208H281.995V202.148H283.703V201.182H281.995V199.628ZM291.651 207.09C291.301 207.146 291.007 207.174 290.741 207.174C289.803 207.174 289.299 206.838 289.299 205.872V202.148H291.427V201.182H289.299V199.32H288.221V201.182H287.073V202.148H288.221V205.942C288.221 207.44 289.103 208.154 290.517 208.154C290.839 208.154 291.217 208.098 291.651 208V207.09ZM298.621 203.716C298.621 202.106 297.669 201.028 296.101 201.028C295.247 201.028 294.519 201.378 294.057 201.952V197.5H292.979V208H294.057V203.856C294.057 202.792 294.799 202.022 295.849 202.022C296.899 202.022 297.543 202.75 297.543 203.856V208H298.621V203.716ZM306.649 204.92C306.705 204.64 306.733 204.374 306.733 204.108C306.733 202.302 305.389 201.028 303.625 201.028C301.679 201.028 300.139 202.624 300.139 204.598C300.139 206.6 301.721 208.154 303.751 208.154C304.829 208.154 305.767 207.706 306.481 206.964L305.851 206.236C305.235 206.852 304.535 207.16 303.765 207.16C302.421 207.16 301.385 206.264 301.259 204.92H306.649ZM301.301 203.968C301.539 202.792 302.463 202.008 303.597 202.008C304.731 202.008 305.613 202.75 305.627 203.968H301.301ZM318.949 204.598C318.949 202.596 317.493 201.028 315.575 201.028C314.553 201.028 313.615 201.462 313.069 202.176V197.5H311.991V208H312.999V206.922C313.517 207.692 314.525 208.154 315.589 208.154C317.507 208.154 318.949 206.6 318.949 204.598ZM317.843 204.584C317.843 206.054 316.807 207.16 315.421 207.16C314.203 207.16 313.055 206.32 313.055 204.598C313.055 202.862 314.161 202.022 315.421 202.022C316.807 202.022 317.843 203.114 317.843 204.584ZM326.577 204.92C326.633 204.64 326.661 204.374 326.661 204.108C326.661 202.302 325.317 201.028 323.553 201.028C321.607 201.028 320.067 202.624 320.067 204.598C320.067 206.6 321.649 208.154 323.679 208.154C324.757 208.154 325.695 207.706 326.409 206.964L325.779 206.236C325.163 206.852 324.463 207.16 323.693 207.16C322.349 207.16 321.313 206.264 321.187 204.92H326.577ZM321.229 203.968C321.467 202.792 322.391 202.008 323.525 202.008C324.659 202.008 325.541 202.75 325.555 203.968H321.229ZM327.631 206.824C328.233 207.608 329.157 208.154 330.291 208.154C330.963 208.154 331.523 207.986 331.985 207.636C332.447 207.286 332.685 206.782 332.685 206.152C332.685 205.214 332.153 204.682 330.879 204.136L330.249 203.87C329.423 203.52 329.143 203.31 329.143 202.876C329.143 202.33 329.605 202.022 330.277 202.022C330.907 202.022 331.495 202.316 331.957 202.778L332.615 202.106C332.055 201.434 331.285 201.028 330.333 201.028C329.031 201.028 328.037 201.742 328.037 202.932C328.037 203.842 328.597 204.36 329.731 204.822L330.389 205.102C331.229 205.438 331.579 205.648 331.579 206.194C331.579 206.796 331.019 207.16 330.277 207.16C329.507 207.16 328.975 206.782 328.317 206.11L327.631 206.824ZM338.076 207.09C337.726 207.146 337.432 207.174 337.166 207.174C336.228 207.174 335.724 206.838 335.724 205.872V202.148H337.852V201.182H335.724V199.32H334.646V201.182H333.498V202.148H334.646V205.942C334.646 207.44 335.528 208.154 336.942 208.154C337.264 208.154 337.642 208.098 338.076 208V207.09ZM162.222 228.584C162.222 226.582 160.794 225.028 158.848 225.028C157.784 225.028 156.79 225.49 156.272 226.274V225.182H155.264V234.52H156.342V231.02C156.902 231.734 157.84 232.154 158.848 232.154C160.766 232.154 162.222 230.586 162.222 228.584ZM161.116 228.598C161.116 230.068 160.08 231.16 158.694 231.16C157.434 231.16 156.328 230.32 156.328 228.584C156.328 226.862 157.476 226.022 158.694 226.022C160.08 226.022 161.116 227.128 161.116 228.598ZM167.456 225.182C167.274 225.14 167.106 225.126 166.952 225.126C166.126 225.126 165.328 225.49 164.838 226.148V225.182H163.83V232H164.908V228.136C164.908 226.876 165.902 226.134 167.05 226.134H167.456V225.182ZM167.995 228.584C167.967 230.502 169.605 232.182 171.551 232.14C173.497 232.182 175.177 230.502 175.135 228.584C175.177 226.638 173.511 225 171.565 225.028C169.619 224.986 167.953 226.638 167.995 228.584ZM174.029 228.598C174.029 230.026 172.937 231.146 171.551 231.146C170.165 231.146 169.101 230.026 169.101 228.598C169.101 227.128 170.165 226.022 171.565 226.022C172.951 226.022 174.029 227.128 174.029 228.598ZM182.154 221.5V226.19C181.608 225.462 180.656 225.028 179.634 225.028C177.716 225.028 176.26 226.596 176.26 228.598C176.26 230.6 177.716 232.154 179.634 232.154C180.698 232.154 181.692 231.692 182.21 230.922V232H183.232V221.5H182.154ZM182.168 228.598C182.168 230.32 181.02 231.16 179.788 231.16C178.402 231.16 177.366 230.054 177.366 228.584C177.366 227.114 178.402 226.022 179.788 226.022C181.02 226.022 182.168 226.862 182.168 228.598ZM185.232 229.284C185.232 231.006 186.464 232.154 188.06 232.154C189.642 232.154 190.874 231.006 190.874 229.284V225.182H189.796V229.354C189.796 230.432 189.054 231.16 188.06 231.16C187.052 231.16 186.296 230.46 186.296 229.354V225.182H185.232V229.284ZM192.38 228.584C192.38 230.558 193.976 232.154 195.95 232.154C197.14 232.154 198.134 231.58 198.75 230.67L197.98 230.068C197.434 230.796 196.762 231.16 195.964 231.16C194.55 231.16 193.486 230.012 193.486 228.584C193.486 227.17 194.55 226.022 195.964 226.022C196.762 226.022 197.448 226.386 197.994 227.128L198.764 226.512C198.148 225.602 197.14 225.028 195.95 225.028C194.004 225 192.338 226.638 192.38 228.584ZM206.184 228.92C206.24 228.64 206.268 228.374 206.268 228.108C206.268 226.302 204.924 225.028 203.16 225.028C201.214 225.028 199.674 226.624 199.674 228.598C199.674 230.6 201.256 232.154 203.286 232.154C204.364 232.154 205.302 231.706 206.016 230.964L205.386 230.236C204.77 230.852 204.07 231.16 203.3 231.16C201.956 231.16 200.92 230.264 200.794 228.92H206.184ZM200.836 227.968C201.074 226.792 201.998 226.008 203.132 226.008C204.266 226.008 205.148 226.75 205.162 227.968H200.836ZM211.508 225.182C211.326 225.14 211.158 225.126 211.004 225.126C210.178 225.126 209.38 225.49 208.89 226.148V225.182H207.882V232H208.96V228.136C208.96 226.876 209.954 226.134 211.102 226.134H211.508V225.182ZM212.03 230.824C212.632 231.608 213.556 232.154 214.69 232.154C215.362 232.154 215.922 231.986 216.384 231.636C216.846 231.286 217.084 230.782 217.084 230.152C217.084 229.214 216.552 228.682 215.278 228.136L214.648 227.87C213.822 227.52 213.542 227.31 213.542 226.876C213.542 226.33 214.004 226.022 214.676 226.022C215.306 226.022 215.894 226.316 216.356 226.778L217.014 226.106C216.454 225.434 215.684 225.028 214.732 225.028C213.43 225.028 212.436 225.742 212.436 226.932C212.436 227.842 212.996 228.36 214.13 228.822L214.788 229.102C215.628 229.438 215.978 229.648 215.978 230.194C215.978 230.796 215.418 231.16 214.676 231.16C213.906 231.16 213.374 230.782 212.716 230.11L212.03 230.824ZM231.17 225.182L229.238 230.194L226.942 225.028H226.536L224.268 230.236L222.294 225.182H221.146L224.044 232.154H224.422L226.732 227.002L229.056 232.154H229.448L232.318 225.182H231.17ZM232.837 228.584C232.809 230.502 234.447 232.182 236.393 232.14C238.339 232.182 240.019 230.502 239.977 228.584C240.019 226.638 238.353 225 236.407 225.028C234.461 224.986 232.795 226.638 232.837 228.584ZM238.871 228.598C238.871 230.026 237.779 231.146 236.393 231.146C235.007 231.146 233.943 230.026 233.943 228.598C233.943 227.128 235.007 226.022 236.407 226.022C237.793 226.022 238.871 227.128 238.871 228.598ZM245.218 225.182C245.036 225.14 244.868 225.126 244.714 225.126C243.888 225.126 243.09 225.49 242.6 226.148V225.182H241.592V232H242.67V228.136C242.67 226.876 243.664 226.134 244.812 226.134H245.218V225.182ZM246.384 232H247.462V221.5H246.384V232ZM254.953 221.5V226.19C254.407 225.462 253.455 225.028 252.433 225.028C250.515 225.028 249.059 226.596 249.059 228.598C249.059 230.6 250.515 232.154 252.433 232.154C253.497 232.154 254.491 231.692 255.009 230.922V232H256.031V221.5H254.953ZM254.967 228.598C254.967 230.32 253.819 231.16 252.587 231.16C251.201 231.16 250.165 230.054 250.165 228.584C250.165 227.114 251.201 226.022 252.587 226.022C253.819 226.022 254.967 226.862 254.967 228.598ZM267.313 225.182L265.381 230.194L263.085 225.028H262.679L260.411 230.236L258.437 225.182H257.289L260.187 232.154H260.565L262.875 227.002L265.199 232.154H265.591L268.461 225.182H267.313ZM269.743 232H270.821V225.182H269.743V232ZM269.477 222.578C269.477 223.026 269.841 223.362 270.289 223.362C270.737 223.362 271.087 223.026 271.087 222.578C271.087 222.144 270.723 221.794 270.289 221.794C269.841 221.794 269.477 222.144 269.477 222.578ZM278.312 221.5V226.19C277.766 225.462 276.814 225.028 275.792 225.028C273.874 225.028 272.418 226.596 272.418 228.598C272.418 230.6 273.874 232.154 275.792 232.154C276.856 232.154 277.85 231.692 278.368 230.922V232H279.39V221.5H278.312ZM278.326 228.598C278.326 230.32 277.178 231.16 275.946 231.16C274.56 231.16 273.524 230.054 273.524 228.584C273.524 227.114 274.56 226.022 275.946 226.022C277.178 226.022 278.326 226.862 278.326 228.598ZM287.494 228.92C287.55 228.64 287.578 228.374 287.578 228.108C287.578 226.302 286.234 225.028 284.47 225.028C282.524 225.028 280.984 226.624 280.984 228.598C280.984 230.6 282.566 232.154 284.596 232.154C285.674 232.154 286.612 231.706 287.326 230.964L286.696 230.236C286.08 230.852 285.38 231.16 284.61 231.16C283.266 231.16 282.23 230.264 282.104 228.92H287.494ZM282.146 227.968C282.384 226.792 283.308 226.008 284.442 226.008C285.576 226.008 286.458 226.75 286.472 227.968H282.146ZM289.08 231.272C289.08 231.776 289.472 232.154 289.962 232.154C290.452 232.154 290.844 231.776 290.844 231.272C290.844 230.768 290.452 230.39 289.962 230.39C289.472 230.39 289.08 230.768 289.08 231.272Z" fill="#595959"/>
<rect x="191" y="32" width="64" height="64" rx="32" fill="#242B1E"/>
<path d="M222 71C226.418 71 230 67.4183 230 63C230 58.5817 226.418 55 222 55C217.582 55 214 58.5817 214 63C214 67.4183 217.582 71 222 71Z" stroke="#D4F70E" stroke-width="2" stroke-linecap="round" stroke-linejoin="round"/>
<path d="M232 73.0004L227.65 68.6504" stroke="#D4F70E" stroke-width="2" stroke-linecap="round" stroke-linejoin="round"/>
<defs>
<filter id="filter0_d_1_505" x="0" y="0" width="446" height="448" filterUnits="userSpaceOnUse" color-interpolation-filters="sRGB">
<feFlood flood-opacity="0" result="BackgroundImageFix"/>
<feColorMatrix in="SourceAlpha" type="matrix" values="0 0 0 0 0 0 0 0 0 0 0 0 0 0 0 0 0 0 127 0" result="hardAlpha"/>
<feMorphology radius="56" operator="erode" in="SourceAlpha" result="effect1_dropShadow_1_505"/>
<feOffset dy="94"/>
<feGaussianBlur stdDeviation="57"/>
<feColorMatrix type="matrix" values="0 0 0 0 0 0 0 0 0 0.2975 0 0 0 0 0.425 0 0 0 0.08 0"/>
<feBlend mode="normal" in2="BackgroundImageFix" result="effect1_dropShadow_1_505"/>
<feBlend mode="normal" in="SourceGraphic" in2="effect1_dropShadow_1_505" result="shape"/>
</filter>
</defs>
</svg>
