<svg width="446" height="448" viewBox="0 0 446 448" fill="none" xmlns="http://www.w3.org/2000/svg">
<g filter="url(#filter0_d_1_474)">
<rect x="58" width="330" height="296" fill="#171C1F"/>
</g>
<path d="M217.032 138.392C217.032 136.448 215.928 134.96 214.08 134.36C214.944 133.616 215.4 132.608 215.4 131.384C215.4 128.936 213.504 127.16 210.648 127.16H205.104V143H211.896C214.992 143 217.032 141.056 217.032 138.392ZM210.408 129.392C211.968 129.392 212.856 130.184 212.856 131.504C212.856 132.824 211.968 133.664 210.408 133.664H207.6V129.392H210.408ZM214.464 138.32C214.464 139.832 213.432 140.768 211.68 140.768H207.6V135.848H211.68C213.432 135.848 214.464 136.808 214.464 138.32ZM218.692 138.056C218.692 141.224 220.9 143.264 223.852 143.264C226.732 143.264 228.964 141.224 228.964 138.056V131.216H226.444V138.248C226.444 139.88 225.316 140.936 223.852 140.936C222.316 140.936 221.188 139.88 221.188 138.248V131.216H218.692V138.056ZM239.748 131.216L236.268 139.784L232.884 131.216H230.172L234.876 142.472L234.396 143.576C233.82 144.896 233.004 145.304 231.828 145.304C231.636 145.304 231.18 145.28 230.436 145.208V147.344C231.084 147.512 231.732 147.584 232.38 147.584C234.396 147.584 235.716 146.576 236.7 144.344L242.436 131.216H239.748Z" fill="white"/>
<path d="M107.337 184H108.429V180.136H110.585C112.377 180.136 113.539 179.016 113.539 177.434C113.539 175.88 112.377 174.76 110.585 174.76H107.337V184ZM108.429 179.156V175.74H110.557C111.733 175.74 112.405 176.44 112.405 177.448C112.405 178.47 111.733 179.156 110.557 179.156H108.429ZM114.998 184H116.076V177.182H114.998V184ZM114.732 174.578C114.732 175.026 115.096 175.362 115.544 175.362C115.992 175.362 116.342 175.026 116.342 174.578C116.342 174.144 115.978 173.794 115.544 173.794C115.096 173.794 114.732 174.144 114.732 174.578ZM117.673 180.584C117.673 182.558 119.269 184.154 121.243 184.154C122.433 184.154 123.427 183.58 124.043 182.67L123.273 182.068C122.727 182.796 122.055 183.16 121.257 183.16C119.843 183.16 118.779 182.012 118.779 180.584C118.779 179.17 119.843 178.022 121.257 178.022C122.055 178.022 122.741 178.386 123.287 179.128L124.057 178.512C123.441 177.602 122.433 177.028 121.243 177.028C119.297 177 117.631 178.638 117.673 180.584ZM125.594 184H126.672V173.5H125.594V184ZM128.086 180.178L131.04 177.182H129.626L126.784 180.164L129.92 184H131.306L128.086 180.178ZM141.15 179.8C141.15 178.008 140.1 177.028 138.49 177.028C137.356 177.028 136.334 177.518 135.718 178.526L136.432 179.114C136.992 178.386 137.594 178.022 138.42 178.022C139.442 178.022 140.072 178.624 140.072 179.744V180.332H137.916C136.446 180.332 135.466 181.074 135.466 182.236C135.466 183.412 136.446 184.154 137.846 184.154C138.84 184.154 139.638 183.79 140.142 183.118V184H141.15V179.8ZM140.072 181.382C140.072 182.432 139.106 183.258 137.986 183.258C137.188 183.258 136.572 182.866 136.572 182.18C136.572 181.55 137.09 181.214 138.042 181.214H140.072V181.382ZM146.8 184H147.878V173.5H146.8V184ZM149.966 184H151.044V177.182H149.966V184ZM149.7 174.578C149.7 175.026 150.064 175.362 150.512 175.362C150.96 175.362 151.31 175.026 151.31 174.578C151.31 174.144 150.946 173.794 150.512 173.794C150.064 173.794 149.7 174.144 149.7 174.578ZM152.641 180.584C152.641 182.558 154.237 184.154 156.211 184.154C157.401 184.154 158.395 183.58 159.011 182.67L158.241 182.068C157.695 182.796 157.023 183.16 156.225 183.16C154.811 183.16 153.747 182.012 153.747 180.584C153.747 179.17 154.811 178.022 156.225 178.022C157.023 178.022 157.709 178.386 158.255 179.128L159.025 178.512C158.409 177.602 157.401 177.028 156.211 177.028C154.265 177 152.599 178.638 152.641 180.584ZM166.445 180.92C166.501 180.64 166.529 180.374 166.529 180.108C166.529 178.302 165.185 177.028 163.421 177.028C161.475 177.028 159.935 178.624 159.935 180.598C159.935 182.6 161.517 184.154 163.547 184.154C164.625 184.154 165.563 183.706 166.277 182.964L165.647 182.236C165.031 182.852 164.331 183.16 163.561 183.16C162.217 183.16 161.181 182.264 161.055 180.92H166.445ZM161.097 179.968C161.335 178.792 162.259 178.008 163.393 178.008C164.527 178.008 165.409 178.75 165.423 179.968H161.097ZM173.785 179.716C173.785 178.106 172.833 177.028 171.251 177.028C170.397 177.028 169.655 177.35 169.151 177.91V177.182H168.143V184H169.221V179.842C169.221 178.778 169.963 178.022 171.013 178.022C172.063 178.022 172.707 178.764 172.707 179.842V184H173.785V179.716ZM175.149 182.824C175.751 183.608 176.675 184.154 177.809 184.154C178.481 184.154 179.041 183.986 179.503 183.636C179.965 183.286 180.203 182.782 180.203 182.152C180.203 181.214 179.671 180.682 178.397 180.136L177.767 179.87C176.941 179.52 176.661 179.31 176.661 178.876C176.661 178.33 177.123 178.022 177.795 178.022C178.425 178.022 179.013 178.316 179.475 178.778L180.133 178.106C179.573 177.434 178.803 177.028 177.851 177.028C176.549 177.028 175.555 177.742 175.555 178.932C175.555 179.842 176.115 180.36 177.249 180.822L177.907 181.102C178.747 181.438 179.097 181.648 179.097 182.194C179.097 182.796 178.537 183.16 177.795 183.16C177.025 183.16 176.493 182.782 175.835 182.11L175.149 182.824ZM187.89 180.92C187.946 180.64 187.974 180.374 187.974 180.108C187.974 178.302 186.63 177.028 184.866 177.028C182.92 177.028 181.38 178.624 181.38 180.598C181.38 182.6 182.962 184.154 184.992 184.154C186.07 184.154 187.008 183.706 187.722 182.964L187.092 182.236C186.476 182.852 185.776 183.16 185.006 183.16C183.662 183.16 182.626 182.264 182.5 180.92H187.89ZM182.542 179.968C182.78 178.792 183.704 178.008 184.838 178.008C185.972 178.008 186.854 178.75 186.868 179.968H182.542ZM196.956 183.09C196.606 183.146 196.312 183.174 196.046 183.174C195.108 183.174 194.604 182.838 194.604 181.872V178.148H196.732V177.182H194.604V175.32H193.526V177.182H192.378V178.148H193.526V181.942C193.526 183.44 194.408 184.154 195.822 184.154C196.144 184.154 196.522 184.098 196.956 184V183.09ZM203.926 179.716C203.926 178.106 202.974 177.028 201.406 177.028C200.552 177.028 199.824 177.378 199.362 177.952V173.5H198.284V184H199.362V179.856C199.362 178.792 200.104 178.022 201.154 178.022C202.204 178.022 202.848 178.75 202.848 179.856V184H203.926V179.716ZM211.044 179.8C211.044 178.008 209.994 177.028 208.384 177.028C207.25 177.028 206.228 177.518 205.612 178.526L206.326 179.114C206.886 178.386 207.488 178.022 208.314 178.022C209.336 178.022 209.966 178.624 209.966 179.744V180.332H207.81C206.34 180.332 205.36 181.074 205.36 182.236C205.36 183.412 206.34 184.154 207.74 184.154C208.734 184.154 209.532 183.79 210.036 183.118V184H211.044V179.8ZM209.966 181.382C209.966 182.432 209 183.258 207.88 183.258C207.082 183.258 206.466 182.866 206.466 182.18C206.466 181.55 206.984 181.214 207.936 181.214H209.966V181.382ZM216.774 183.09C216.424 183.146 216.13 183.174 215.864 183.174C214.926 183.174 214.422 182.838 214.422 181.872V178.148H216.55V177.182H214.422V175.32H213.344V177.182H212.196V178.148H213.344V181.942C213.344 183.44 214.226 184.154 215.64 184.154C215.962 184.154 216.34 184.098 216.774 184V183.09ZM230.52 177.182L228.588 182.194L226.292 177.028H225.886L223.618 182.236L221.644 177.182H220.496L223.394 184.154H223.772L226.082 179.002L228.406 184.154H228.798L231.668 177.182H230.52ZM232.187 180.584C232.159 182.502 233.797 184.182 235.743 184.14C237.689 184.182 239.369 182.502 239.327 180.584C239.369 178.638 237.703 177 235.757 177.028C233.811 176.986 232.145 178.638 232.187 180.584ZM238.221 180.598C238.221 182.026 237.129 183.146 235.743 183.146C234.357 183.146 233.293 182.026 233.293 180.598C233.293 179.128 234.357 178.022 235.757 178.022C237.143 178.022 238.221 179.128 238.221 180.598ZM244.568 177.182C244.386 177.14 244.218 177.126 244.064 177.126C243.238 177.126 242.44 177.49 241.95 178.148V177.182H240.942V184H242.02V180.136C242.02 178.876 243.014 178.134 244.162 178.134H244.568V177.182ZM245.734 184H246.812V173.5H245.734V184ZM248.226 180.178L251.18 177.182H249.766L246.924 180.164L250.06 184H251.446L248.226 180.178ZM251.892 182.824C252.494 183.608 253.418 184.154 254.552 184.154C255.224 184.154 255.784 183.986 256.246 183.636C256.708 183.286 256.946 182.782 256.946 182.152C256.946 181.214 256.414 180.682 255.14 180.136L254.51 179.87C253.684 179.52 253.404 179.31 253.404 178.876C253.404 178.33 253.866 178.022 254.538 178.022C255.168 178.022 255.756 178.316 256.218 178.778L256.876 178.106C256.316 177.434 255.546 177.028 254.594 177.028C253.292 177.028 252.298 177.742 252.298 178.932C252.298 179.842 252.858 180.36 253.992 180.822L254.65 181.102C255.49 181.438 255.84 181.648 255.84 182.194C255.84 182.796 255.28 183.16 254.538 183.16C253.768 183.16 253.236 182.782 252.578 182.11L251.892 182.824ZM263.504 175.628C263.504 174.662 264.022 174.326 264.932 174.326C265.114 174.326 265.31 174.34 265.534 174.368V173.458C265.268 173.388 264.974 173.346 264.68 173.346C263.294 173.346 262.426 174.06 262.426 175.558V177.182H261.446V178.148H262.426V184H263.504V178.148H265.212V177.182H263.504V175.628ZM265.726 180.584C265.698 182.502 267.336 184.182 269.282 184.14C271.228 184.182 272.908 182.502 272.866 180.584C272.908 178.638 271.242 177 269.296 177.028C267.35 176.986 265.684 178.638 265.726 180.584ZM271.76 180.598C271.76 182.026 270.668 183.146 269.282 183.146C267.896 183.146 266.832 182.026 266.832 180.598C266.832 179.128 267.896 178.022 269.296 178.022C270.682 178.022 271.76 179.128 271.76 180.598ZM278.107 177.182C277.925 177.14 277.757 177.126 277.603 177.126C276.777 177.126 275.979 177.49 275.489 178.148V177.182H274.481V184H275.559V180.136C275.559 178.876 276.553 178.134 277.701 178.134H278.107V177.182ZM287.761 177.182L285.507 182.614L283.253 177.182H282.091L284.919 183.79L284.555 184.602C284.205 185.428 283.729 185.694 283.015 185.694C282.819 185.694 282.539 185.666 282.189 185.624V186.534C282.539 186.632 282.889 186.674 283.239 186.674C284.289 186.674 285.031 186.142 285.549 184.952L288.909 177.182H287.761ZM289.42 180.584C289.392 182.502 291.03 184.182 292.976 184.14C294.922 184.182 296.602 182.502 296.56 180.584C296.602 178.638 294.936 177 292.99 177.028C291.044 176.986 289.378 178.638 289.42 180.584ZM295.454 180.598C295.454 182.026 294.362 183.146 292.976 183.146C291.59 183.146 290.526 182.026 290.526 180.598C290.526 179.128 291.59 178.022 292.99 178.022C294.376 178.022 295.454 179.128 295.454 180.598ZM298.091 181.284C298.091 183.006 299.323 184.154 300.919 184.154C302.501 184.154 303.733 183.006 303.733 181.284V177.182H302.655V181.354C302.655 182.432 301.913 183.16 300.919 183.16C299.911 183.16 299.155 182.46 299.155 181.354V177.182H298.091V181.284ZM309.355 177.182C309.173 177.14 309.005 177.126 308.851 177.126C308.025 177.126 307.227 177.49 306.737 178.148V177.182H305.729V184H306.807V180.136C306.807 178.876 307.801 178.134 308.949 178.134H309.355V177.182ZM319.807 179.716C319.807 178.106 318.855 177.028 317.273 177.028C316.419 177.028 315.677 177.35 315.173 177.91V177.182H314.165V184H315.243V179.842C315.243 178.778 315.985 178.022 317.035 178.022C318.085 178.022 318.729 178.764 318.729 179.842V184H319.807V179.716ZM327.835 180.92C327.891 180.64 327.919 180.374 327.919 180.108C327.919 178.302 326.575 177.028 324.811 177.028C322.865 177.028 321.325 178.624 321.325 180.598C321.325 182.6 322.907 184.154 324.937 184.154C326.015 184.154 326.953 183.706 327.667 182.964L327.037 182.236C326.421 182.852 325.721 183.16 324.951 183.16C323.607 183.16 322.571 182.264 322.445 180.92H327.835ZM322.487 179.968C322.725 178.792 323.649 178.008 324.783 178.008C325.917 178.008 326.799 178.75 326.813 179.968H322.487ZM334.87 184L332.308 180.444L334.674 177.182H333.428L331.678 179.688L329.942 177.182H328.696L331.02 180.444L328.486 184H329.746L331.678 181.2L333.624 184H334.87ZM339.799 183.09C339.449 183.146 339.155 183.174 338.889 183.174C337.951 183.174 337.447 182.838 337.447 181.872V178.148H339.575V177.182H337.447V175.32H336.369V177.182H335.221V178.148H336.369V181.942C336.369 183.44 337.251 184.154 338.665 184.154C338.987 184.154 339.365 184.098 339.799 184V183.09ZM116.686 201.182C116.504 201.14 116.336 201.126 116.182 201.126C115.356 201.126 114.558 201.49 114.068 202.148V201.182H113.06V208H114.138V204.136C114.138 202.876 115.132 202.134 116.28 202.134H116.686V201.182ZM123.736 204.92C123.792 204.64 123.82 204.374 123.82 204.108C123.82 202.302 122.476 201.028 120.712 201.028C118.766 201.028 117.226 202.624 117.226 204.598C117.226 206.6 118.808 208.154 120.838 208.154C121.916 208.154 122.854 207.706 123.568 206.964L122.938 206.236C122.322 206.852 121.622 207.16 120.852 207.16C119.508 207.16 118.472 206.264 118.346 204.92H123.736ZM118.388 203.968C118.626 202.792 119.55 202.008 120.684 202.008C121.818 202.008 122.7 202.75 122.714 203.968H118.388ZM124.944 204.584C124.944 206.558 126.54 208.154 128.514 208.154C129.704 208.154 130.698 207.58 131.314 206.67L130.544 206.068C129.998 206.796 129.326 207.16 128.528 207.16C127.114 207.16 126.05 206.012 126.05 204.584C126.05 203.17 127.114 202.022 128.528 202.022C129.326 202.022 130.012 202.386 130.558 203.128L131.328 202.512C130.712 201.602 129.704 201.028 128.514 201.028C126.568 201 124.902 202.638 124.944 204.584ZM132.238 204.584C132.21 206.502 133.848 208.182 135.794 208.14C137.74 208.182 139.42 206.502 139.378 204.584C139.42 202.638 137.754 201 135.808 201.028C133.862 200.986 132.196 202.638 132.238 204.584ZM138.272 204.598C138.272 206.026 137.18 207.146 135.794 207.146C134.408 207.146 133.344 206.026 133.344 204.598C133.344 203.128 134.408 202.022 135.808 202.022C137.194 202.022 138.272 203.128 138.272 204.598ZM144.619 201.182C144.437 201.14 144.269 201.126 144.115 201.126C143.289 201.126 142.491 201.49 142.001 202.148V201.182H140.993V208H142.071V204.136C142.071 202.876 143.065 202.134 144.213 202.134H144.619V201.182ZM151.053 197.5V202.19C150.507 201.462 149.555 201.028 148.533 201.028C146.615 201.028 145.159 202.596 145.159 204.598C145.159 206.6 146.615 208.154 148.533 208.154C149.597 208.154 150.591 207.692 151.109 206.922V208H152.131V197.5H151.053ZM151.067 204.598C151.067 206.32 149.919 207.16 148.687 207.16C147.301 207.16 146.265 206.054 146.265 204.584C146.265 203.114 147.301 202.022 148.687 202.022C149.919 202.022 151.067 202.862 151.067 204.598ZM154.214 208H155.292V201.182H154.214V208ZM153.948 198.578C153.948 199.026 154.312 199.362 154.76 199.362C155.208 199.362 155.558 199.026 155.558 198.578C155.558 198.144 155.194 197.794 154.76 197.794C154.312 197.794 153.948 198.144 153.948 198.578ZM163.022 203.716C163.022 202.106 162.07 201.028 160.488 201.028C159.634 201.028 158.892 201.35 158.388 201.91V201.182H157.38V208H158.458V203.842C158.458 202.778 159.2 202.022 160.25 202.022C161.3 202.022 161.944 202.764 161.944 203.842V208H163.022V203.716ZM170.559 201.182V202.274C170.041 201.49 169.047 201.028 167.969 201.028C166.051 201.028 164.623 202.526 164.623 204.486C164.623 206.46 166.051 207.93 167.969 207.93C168.991 207.93 169.957 207.51 170.503 206.796V207.398C170.503 208.868 169.649 209.68 168.235 209.68C167.213 209.68 166.457 209.274 165.687 208.602L165.057 209.358C165.827 210.128 166.933 210.674 168.263 210.674C170.279 210.674 171.581 209.414 171.581 207.342V201.182H170.559ZM170.517 204.486C170.517 206.138 169.383 206.936 168.137 206.936C166.751 206.936 165.715 205.942 165.715 204.5C165.715 203.072 166.751 202.05 168.137 202.05C169.369 202.05 170.517 202.848 170.517 204.486ZM176.663 206.824C177.265 207.608 178.189 208.154 179.323 208.154C179.995 208.154 180.555 207.986 181.017 207.636C181.479 207.286 181.717 206.782 181.717 206.152C181.717 205.214 181.185 204.682 179.911 204.136L179.281 203.87C178.455 203.52 178.175 203.31 178.175 202.876C178.175 202.33 178.637 202.022 179.309 202.022C179.939 202.022 180.527 202.316 180.989 202.778L181.647 202.106C181.087 201.434 180.317 201.028 179.365 201.028C178.063 201.028 177.069 201.742 177.069 202.932C177.069 203.842 177.629 204.36 178.763 204.822L179.421 205.102C180.261 205.438 180.611 205.648 180.611 206.194C180.611 206.796 180.051 207.16 179.309 207.16C178.539 207.16 178.007 206.782 177.349 206.11L176.663 206.824ZM189.405 204.92C189.461 204.64 189.489 204.374 189.489 204.108C189.489 202.302 188.145 201.028 186.381 201.028C184.435 201.028 182.895 202.624 182.895 204.598C182.895 206.6 184.477 208.154 186.507 208.154C187.585 208.154 188.523 207.706 189.237 206.964L188.607 206.236C187.991 206.852 187.291 207.16 186.521 207.16C185.177 207.16 184.141 206.264 184.015 204.92H189.405ZM184.057 203.968C184.295 202.792 185.219 202.008 186.353 202.008C187.487 202.008 188.369 202.75 188.383 203.968H184.057ZM190.459 206.824C191.061 207.608 191.985 208.154 193.119 208.154C193.791 208.154 194.351 207.986 194.813 207.636C195.275 207.286 195.513 206.782 195.513 206.152C195.513 205.214 194.981 204.682 193.707 204.136L193.077 203.87C192.251 203.52 191.971 203.31 191.971 202.876C191.971 202.33 192.433 202.022 193.105 202.022C193.735 202.022 194.323 202.316 194.785 202.778L195.443 202.106C194.883 201.434 194.113 201.028 193.161 201.028C191.859 201.028 190.865 201.742 190.865 202.932C190.865 203.842 191.425 204.36 192.559 204.822L193.217 205.102C194.057 205.438 194.407 205.648 194.407 206.194C194.407 206.796 193.847 207.16 193.105 207.16C192.335 207.16 191.803 206.782 191.145 206.11L190.459 206.824ZM196.536 206.824C197.138 207.608 198.062 208.154 199.196 208.154C199.868 208.154 200.428 207.986 200.89 207.636C201.352 207.286 201.59 206.782 201.59 206.152C201.59 205.214 201.058 204.682 199.784 204.136L199.154 203.87C198.328 203.52 198.048 203.31 198.048 202.876C198.048 202.33 198.51 202.022 199.182 202.022C199.812 202.022 200.4 202.316 200.862 202.778L201.52 202.106C200.96 201.434 200.19 201.028 199.238 201.028C197.936 201.028 196.942 201.742 196.942 202.932C196.942 203.842 197.502 204.36 198.636 204.822L199.294 205.102C200.134 205.438 200.484 205.648 200.484 206.194C200.484 206.796 199.924 207.16 199.182 207.16C198.412 207.16 197.88 206.782 197.222 206.11L196.536 206.824ZM203.258 208H204.336V201.182H203.258V208ZM202.992 198.578C202.992 199.026 203.356 199.362 203.804 199.362C204.252 199.362 204.602 199.026 204.602 198.578C204.602 198.144 204.238 197.794 203.804 197.794C203.356 197.794 202.992 198.144 202.992 198.578ZM205.933 204.584C205.905 206.502 207.543 208.182 209.489 208.14C211.435 208.182 213.115 206.502 213.073 204.584C213.115 202.638 211.449 201 209.503 201.028C207.557 200.986 205.891 202.638 205.933 204.584ZM211.967 204.598C211.967 206.026 210.875 207.146 209.489 207.146C208.103 207.146 207.039 206.026 207.039 204.598C207.039 203.128 208.103 202.022 209.503 202.022C210.889 202.022 211.967 203.128 211.967 204.598ZM220.33 203.716C220.33 202.106 219.378 201.028 217.796 201.028C216.942 201.028 216.2 201.35 215.696 201.91V201.182H214.688V208H215.766V203.842C215.766 202.778 216.508 202.022 217.558 202.022C218.608 202.022 219.252 202.764 219.252 203.842V208H220.33V203.716ZM231.091 203.8C231.091 202.008 230.041 201.028 228.431 201.028C227.297 201.028 226.275 201.518 225.659 202.526L226.373 203.114C226.933 202.386 227.535 202.022 228.361 202.022C229.383 202.022 230.013 202.624 230.013 203.744V204.332H227.857C226.387 204.332 225.407 205.074 225.407 206.236C225.407 207.412 226.387 208.154 227.787 208.154C228.781 208.154 229.579 207.79 230.083 207.118V208H231.091V203.8ZM230.013 205.382C230.013 206.432 229.047 207.258 227.927 207.258C227.129 207.258 226.513 206.866 226.513 206.18C226.513 205.55 227.031 205.214 227.983 205.214H230.013V205.382ZM238.74 203.716C238.74 202.106 237.788 201.028 236.206 201.028C235.352 201.028 234.61 201.35 234.106 201.91V201.182H233.098V208H234.176V203.842C234.176 202.778 234.918 202.022 235.968 202.022C237.018 202.022 237.662 202.764 237.662 203.842V208H238.74V203.716ZM246.151 197.5V202.19C245.605 201.462 244.653 201.028 243.631 201.028C241.713 201.028 240.257 202.596 240.257 204.598C240.257 206.6 241.713 208.154 243.631 208.154C244.695 208.154 245.689 207.692 246.207 206.922V208H247.229V197.5H246.151ZM246.165 204.598C246.165 206.32 245.017 207.16 243.785 207.16C242.399 207.16 241.363 206.054 241.363 204.584C241.363 203.114 242.399 202.022 243.785 202.022C245.017 202.022 246.165 202.862 246.165 204.598ZM252.313 206.824C252.915 207.608 253.839 208.154 254.973 208.154C255.645 208.154 256.205 207.986 256.667 207.636C257.129 207.286 257.367 206.782 257.367 206.152C257.367 205.214 256.835 204.682 255.561 204.136L254.931 203.87C254.105 203.52 253.825 203.31 253.825 202.876C253.825 202.33 254.287 202.022 254.959 202.022C255.589 202.022 256.177 202.316 256.639 202.778L257.297 202.106C256.737 201.434 255.967 201.028 255.015 201.028C253.713 201.028 252.719 201.742 252.719 202.932C252.719 203.842 253.279 204.36 254.413 204.822L255.071 205.102C255.911 205.438 256.261 205.648 256.261 206.194C256.261 206.796 255.701 207.16 254.959 207.16C254.189 207.16 253.657 206.782 252.999 206.11L252.313 206.824ZM258.544 204.584C258.516 206.502 260.154 208.182 262.1 208.14C264.046 208.182 265.726 206.502 265.684 204.584C265.726 202.638 264.06 201 262.114 201.028C260.168 200.986 258.502 202.638 258.544 204.584ZM264.578 204.598C264.578 206.026 263.486 207.146 262.1 207.146C260.714 207.146 259.65 206.026 259.65 204.598C259.65 203.128 260.714 202.022 262.114 202.022C263.5 202.022 264.578 203.128 264.578 204.598ZM272.941 203.716C272.941 202.106 271.989 201.028 270.407 201.028C269.553 201.028 268.811 201.35 268.307 201.91V201.182H267.299V208H268.377V203.842C268.377 202.778 269.119 202.022 270.169 202.022C271.219 202.022 271.863 202.764 271.863 203.842V208H272.941V203.716ZM280.479 201.182V202.274C279.961 201.49 278.967 201.028 277.889 201.028C275.971 201.028 274.543 202.526 274.543 204.486C274.543 206.46 275.971 207.93 277.889 207.93C278.911 207.93 279.877 207.51 280.423 206.796V207.398C280.423 208.868 279.569 209.68 278.155 209.68C277.133 209.68 276.377 209.274 275.607 208.602L274.977 209.358C275.747 210.128 276.853 210.674 278.183 210.674C280.199 210.674 281.501 209.414 281.501 207.342V201.182H280.479ZM280.437 204.486C280.437 206.138 279.303 206.936 278.057 206.936C276.671 206.936 275.635 205.942 275.635 204.5C275.635 203.072 276.671 202.05 278.057 202.05C279.289 202.05 280.437 202.848 280.437 204.486ZM290.853 201.182C290.671 201.14 290.503 201.126 290.349 201.126C289.523 201.126 288.725 201.49 288.235 202.148V201.182H287.227V208H288.305V204.136C288.305 202.876 289.299 202.134 290.447 202.134H290.853V201.182ZM297.902 204.92C297.958 204.64 297.986 204.374 297.986 204.108C297.986 202.302 296.642 201.028 294.878 201.028C292.932 201.028 291.392 202.624 291.392 204.598C291.392 206.6 292.974 208.154 295.004 208.154C296.082 208.154 297.02 207.706 297.734 206.964L297.104 206.236C296.488 206.852 295.788 207.16 295.018 207.16C293.674 207.16 292.638 206.264 292.512 204.92H297.902ZM292.554 203.968C292.792 202.792 293.716 202.008 294.85 202.008C295.984 202.008 296.866 202.75 296.88 203.968H292.554ZM299.601 208H300.679V197.5H299.601V208ZM308.786 204.92C308.842 204.64 308.87 204.374 308.87 204.108C308.87 202.302 307.526 201.028 305.762 201.028C303.816 201.028 302.276 202.624 302.276 204.598C302.276 206.6 303.858 208.154 305.888 208.154C306.966 208.154 307.904 207.706 308.618 206.964L307.988 206.236C307.372 206.852 306.672 207.16 305.902 207.16C304.558 207.16 303.522 206.264 303.396 204.92H308.786ZM303.438 203.968C303.676 202.792 304.6 202.008 305.734 202.008C306.868 202.008 307.75 202.75 307.764 203.968H303.438ZM315.594 203.8C315.594 202.008 314.544 201.028 312.934 201.028C311.8 201.028 310.778 201.518 310.162 202.526L310.876 203.114C311.436 202.386 312.038 202.022 312.864 202.022C313.886 202.022 314.516 202.624 314.516 203.744V204.332H312.36C310.89 204.332 309.91 205.074 309.91 206.236C309.91 207.412 310.89 208.154 312.29 208.154C313.284 208.154 314.082 207.79 314.586 207.118V208H315.594V203.8ZM314.516 205.382C314.516 206.432 313.55 207.258 312.43 207.258C311.632 207.258 311.016 206.866 311.016 206.18C311.016 205.55 311.534 205.214 312.486 205.214H314.516V205.382ZM316.956 206.824C317.558 207.608 318.482 208.154 319.616 208.154C320.288 208.154 320.848 207.986 321.31 207.636C321.772 207.286 322.01 206.782 322.01 206.152C322.01 205.214 321.478 204.682 320.204 204.136L319.574 203.87C318.748 203.52 318.468 203.31 318.468 202.876C318.468 202.33 318.93 202.022 319.602 202.022C320.232 202.022 320.82 202.316 321.282 202.778L321.94 202.106C321.38 201.434 320.61 201.028 319.658 201.028C318.356 201.028 317.362 201.742 317.362 202.932C317.362 203.842 317.922 204.36 319.056 204.822L319.714 205.102C320.554 205.438 320.904 205.648 320.904 206.194C320.904 206.796 320.344 207.16 319.602 207.16C318.832 207.16 318.3 206.782 317.642 206.11L316.956 206.824ZM329.698 204.92C329.754 204.64 329.782 204.374 329.782 204.108C329.782 202.302 328.438 201.028 326.674 201.028C324.728 201.028 323.188 202.624 323.188 204.598C323.188 206.6 324.77 208.154 326.8 208.154C327.878 208.154 328.816 207.706 329.53 206.964L328.9 206.236C328.284 206.852 327.584 207.16 326.814 207.16C325.47 207.16 324.434 206.264 324.308 204.92H329.698ZM324.35 203.968C324.588 202.792 325.512 202.008 326.646 202.008C327.78 202.008 328.662 202.75 328.676 203.968H324.35ZM331.284 207.272C331.284 207.776 331.676 208.154 332.166 208.154C332.656 208.154 333.048 207.776 333.048 207.272C333.048 206.768 332.656 206.39 332.166 206.39C331.676 206.39 331.284 206.768 331.284 207.272Z" fill="#595959"/>
<rect x="191" y="32" width="64" height="64" rx="32" fill="#242B1E"/>
<path d="M234.867 61.7354C231.006 70.24 229.749 70.24 229 70.24H221.615C219.029 70.24 217.047 68.6579 216.566 66.208C216.551 66.1331 215.089 58.6691 214.715 56.584C214.532 55.5616 214.065 54.88 212.385 54.88C211.619 54.88 211 54.2358 211 53.44C211 52.6442 211.619 52 212.385 52C215.172 52 216.967 53.44 217.437 56.055C217.808 58.1181 219.265 65.5571 219.28 65.633C219.574 67.1363 220.869 67.361 221.615 67.361H228.635C229.389 66.5181 231.108 63.2704 232.363 60.5056C232.689 59.7866 233.516 59.4803 234.206 59.8182C234.898 60.1571 235.194 61.0154 234.867 61.7354ZM220.692 71.2C219.417 71.2 218.385 72.2742 218.385 73.6C218.385 74.9258 219.417 76 220.692 76C221.967 76 223 74.9258 223 73.6C223 72.2742 221.967 71.2 220.692 71.2ZM229 71.2C227.725 71.2 226.692 72.2742 226.692 73.6C226.692 74.9258 227.725 76 229 76C230.275 76 231.308 74.9258 231.308 73.6C231.308 72.2742 230.275 71.2 229 71.2ZM224.535 63.3702C224.627 63.448 224.741 63.4854 224.854 63.4854C224.968 63.4854 225.08 63.448 225.174 63.3702C225.266 63.2944 227.784 60.7398 229.158 58.6144C229.264 58.4493 229.274 58.2381 229.184 58.0634C229.096 57.8896 228.921 57.7802 228.731 57.7802H226.677C226.677 57.7802 226.476 53.6608 226.345 53.4698C226.155 53.1875 225.369 52.9955 224.853 52.9955C224.336 52.9955 223.536 53.1875 223.345 53.4698C223.215 53.6598 223.042 57.7802 223.042 57.7802H220.961C220.771 57.7802 220.596 57.8896 220.507 58.0634C220.417 58.2381 220.427 58.4502 220.533 58.6144C221.907 60.7408 224.444 63.2944 224.535 63.3702Z" fill="#D4F70E"/>
<defs>
<filter id="filter0_d_1_474" x="0" y="0" width="446" height="448" filterUnits="userSpaceOnUse" color-interpolation-filters="sRGB">
<feFlood flood-opacity="0" result="BackgroundImageFix"/>
<feColorMatrix in="SourceAlpha" type="matrix" values="0 0 0 0 0 0 0 0 0 0 0 0 0 0 0 0 0 0 127 0" result="hardAlpha"/>
<feMorphology radius="56" operator="erode" in="SourceAlpha" result="effect1_dropShadow_1_474"/>
<feOffset dy="94"/>
<feGaussianBlur stdDeviation="57"/>
<feColorMatrix type="matrix" values="0 0 0 0 0 0 0 0 0 0.2975 0 0 0 0 0.425 0 0 0 0.08 0"/>
<feBlend mode="normal" in2="BackgroundImageFix" result="effect1_dropShadow_1_474"/>
<feBlend mode="normal" in="SourceGraphic" in2="effect1_dropShadow_1_474" result="shape"/>
</filter>
</defs>
</svg>
