<svg width="446" height="472" viewBox="0 0 446 472" fill="none" xmlns="http://www.w3.org/2000/svg">
<g filter="url(#filter0_d_1_488)">
<rect x="58" width="330" height="320" fill="#171C1F"/>
</g>
<path d="M188.662 135.08C188.566 139.616 192.478 143.336 196.99 143.264C199.942 143.264 202.438 141.848 203.782 139.616L201.862 138.2C200.734 139.952 199.102 140.936 197.014 140.936C193.774 140.936 191.302 138.44 191.302 135.08C191.302 131.72 193.774 129.224 197.014 129.224C199.102 129.224 200.734 130.208 201.862 131.96L203.782 130.544C202.414 128.312 199.894 126.896 196.99 126.896C192.478 126.824 188.566 130.544 188.662 135.08ZM212.442 131.216C212.154 131.144 211.842 131.096 211.482 131.096C210.138 131.096 208.89 131.696 208.05 132.752V131.216H205.698V143H208.218V136.712C208.218 134.624 209.682 133.448 211.674 133.448H212.442V131.216ZM224.111 137.936C224.231 137.384 224.303 136.856 224.303 136.352C224.303 133.28 221.975 130.952 218.855 130.952C215.519 130.88 212.687 133.736 212.759 137.12C212.759 140.6 215.495 143.264 219.095 143.264C220.895 143.264 222.455 142.64 223.799 141.368L222.599 139.64C221.543 140.576 220.391 141.032 219.167 141.032C217.151 141.032 215.639 139.856 215.327 137.936H224.111ZM215.375 135.968C215.759 134.216 217.103 133.088 218.759 133.088C220.415 133.088 221.759 134.168 221.783 135.968H215.375ZM235.591 135.872C235.591 132.704 233.671 130.952 230.767 130.952C228.727 130.952 226.975 131.768 225.799 133.472L227.263 134.96C228.247 133.784 229.207 133.208 230.527 133.208C232.135 133.208 233.047 134.096 233.047 135.728V136.496H229.711C227.047 136.496 225.367 137.816 225.367 139.856C225.367 141.896 226.999 143.264 229.471 143.264C231.079 143.264 232.375 142.712 233.239 141.68V143H235.591V135.872ZM233.047 138.536C233.047 140.144 231.703 141.32 229.999 141.32C228.775 141.32 227.935 140.744 227.935 139.76C227.935 138.8 228.679 138.32 230.023 138.32H233.047V138.536ZM245.146 140.864C244.45 140.936 243.946 140.984 243.586 140.984C242.05 140.984 241.258 140.456 241.258 138.944V133.4H244.762V131.216H241.258V128.12H238.714V131.216H236.794V133.4H238.714V139.16C238.714 141.92 240.346 143.264 243.058 143.264C243.658 143.264 244.354 143.168 245.146 143V140.864ZM257.114 137.936C257.234 137.384 257.306 136.856 257.306 136.352C257.306 133.28 254.978 130.952 251.858 130.952C248.522 130.88 245.69 133.736 245.762 137.12C245.762 140.6 248.498 143.264 252.098 143.264C253.898 143.264 255.458 142.64 256.802 141.368L255.602 139.64C254.546 140.576 253.394 141.032 252.17 141.032C250.154 141.032 248.642 139.856 248.33 137.936H257.114ZM248.378 135.968C248.762 134.216 250.106 133.088 251.762 133.088C253.418 133.088 254.762 134.168 254.786 135.968H248.378Z" fill="white"/>
<path d="M95.9755 180.332C95.9755 182.754 97.5015 184.154 99.6575 184.154C101.772 184.154 103.312 182.754 103.312 180.332V174.76H102.22V180.402C102.22 182.194 101.17 183.146 99.6575 183.146C98.1315 183.146 97.0675 182.194 97.0675 180.402V174.76H95.9755V180.332ZM104.678 182.824C105.28 183.608 106.204 184.154 107.338 184.154C108.01 184.154 108.57 183.986 109.032 183.636C109.494 183.286 109.732 182.782 109.732 182.152C109.732 181.214 109.2 180.682 107.926 180.136L107.296 179.87C106.47 179.52 106.19 179.31 106.19 178.876C106.19 178.33 106.652 178.022 107.324 178.022C107.954 178.022 108.542 178.316 109.004 178.778L109.662 178.106C109.102 177.434 108.332 177.028 107.38 177.028C106.078 177.028 105.084 177.742 105.084 178.932C105.084 179.842 105.644 180.36 106.778 180.822L107.436 181.102C108.276 181.438 108.626 181.648 108.626 182.194C108.626 182.796 108.066 183.16 107.324 183.16C106.554 183.16 106.022 182.782 105.364 182.11L104.678 182.824ZM117.419 180.92C117.475 180.64 117.503 180.374 117.503 180.108C117.503 178.302 116.159 177.028 114.395 177.028C112.449 177.028 110.909 178.624 110.909 180.598C110.909 182.6 112.491 184.154 114.521 184.154C115.599 184.154 116.537 183.706 117.251 182.964L116.621 182.236C116.005 182.852 115.305 183.16 114.535 183.16C113.191 183.16 112.155 182.264 112.029 180.92H117.419ZM112.071 179.968C112.309 178.792 113.233 178.008 114.367 178.008C115.501 178.008 116.383 178.75 116.397 179.968H112.071ZM127.605 177.182L125.351 182.614L123.097 177.182H121.935L124.763 183.79L124.399 184.602C124.049 185.428 123.573 185.694 122.859 185.694C122.663 185.694 122.383 185.666 122.033 185.624V186.534C122.383 186.632 122.733 186.674 123.083 186.674C124.133 186.674 124.875 186.142 125.393 184.952L128.753 177.182H127.605ZM129.264 180.584C129.236 182.502 130.874 184.182 132.82 184.14C134.766 184.182 136.446 182.502 136.404 180.584C136.446 178.638 134.78 177 132.834 177.028C130.888 176.986 129.222 178.638 129.264 180.584ZM135.298 180.598C135.298 182.026 134.206 183.146 132.82 183.146C131.434 183.146 130.37 182.026 130.37 180.598C130.37 179.128 131.434 178.022 132.834 178.022C134.22 178.022 135.298 179.128 135.298 180.598ZM137.935 181.284C137.935 183.006 139.167 184.154 140.763 184.154C142.345 184.154 143.577 183.006 143.577 181.284V177.182H142.499V181.354C142.499 182.432 141.757 183.16 140.763 183.16C139.755 183.16 138.999 182.46 138.999 181.354V177.182H137.935V181.284ZM149.199 177.182C149.017 177.14 148.849 177.126 148.695 177.126C147.869 177.126 147.071 177.49 146.581 178.148V177.182H145.573V184H146.651V180.136C146.651 178.876 147.645 178.134 148.793 178.134H149.199V177.182ZM159.651 179.716C159.651 178.106 158.699 177.028 157.117 177.028C156.263 177.028 155.521 177.35 155.017 177.91V177.182H154.009V184H155.087V179.842C155.087 178.778 155.829 178.022 156.879 178.022C157.929 178.022 158.573 178.764 158.573 179.842V184H159.651V179.716ZM167.679 180.92C167.735 180.64 167.763 180.374 167.763 180.108C167.763 178.302 166.419 177.028 164.655 177.028C162.709 177.028 161.169 178.624 161.169 180.598C161.169 182.6 162.751 184.154 164.781 184.154C165.859 184.154 166.797 183.706 167.511 182.964L166.881 182.236C166.265 182.852 165.565 183.16 164.795 183.16C163.451 183.16 162.415 182.264 162.289 180.92H167.679ZM162.331 179.968C162.569 178.792 163.493 178.008 164.627 178.008C165.761 178.008 166.643 178.75 166.657 179.968H162.331ZM178.302 177.182L176.37 182.194L174.074 177.028H173.668L171.4 182.236L169.426 177.182H168.278L171.176 184.154H171.554L173.864 179.002L176.188 184.154H176.58L179.45 177.182H178.302ZM191.334 180.598C191.334 178.596 189.878 177.028 187.96 177.028C186.938 177.028 186 177.462 185.454 178.176V173.5H184.376V184H185.384V182.922C185.902 183.692 186.91 184.154 187.974 184.154C189.892 184.154 191.334 182.6 191.334 180.598ZM190.228 180.584C190.228 182.054 189.192 183.16 187.806 183.16C186.588 183.16 185.44 182.32 185.44 180.598C185.44 178.862 186.546 178.022 187.806 178.022C189.192 178.022 190.228 179.114 190.228 180.584ZM198.961 180.92C199.017 180.64 199.045 180.374 199.045 180.108C199.045 178.302 197.701 177.028 195.937 177.028C193.991 177.028 192.451 178.624 192.451 180.598C192.451 182.6 194.033 184.154 196.063 184.154C197.141 184.154 198.079 183.706 198.793 182.964L198.163 182.236C197.547 182.852 196.847 183.16 196.077 183.16C194.733 183.16 193.697 182.264 193.571 180.92H198.961ZM193.613 179.968C193.851 178.792 194.775 178.008 195.909 178.008C197.043 178.008 197.925 178.75 197.939 179.968H193.613ZM205.769 179.8C205.769 178.008 204.719 177.028 203.109 177.028C201.975 177.028 200.953 177.518 200.337 178.526L201.051 179.114C201.611 178.386 202.213 178.022 203.039 178.022C204.061 178.022 204.691 178.624 204.691 179.744V180.332H202.535C201.065 180.332 200.085 181.074 200.085 182.236C200.085 183.412 201.065 184.154 202.465 184.154C203.459 184.154 204.257 183.79 204.761 183.118V184H205.769V179.8ZM204.691 181.382C204.691 182.432 203.725 183.258 202.605 183.258C201.807 183.258 201.191 182.866 201.191 182.18C201.191 181.55 201.709 181.214 202.661 181.214H204.691V181.382ZM211.5 183.09C211.15 183.146 210.856 183.174 210.59 183.174C209.652 183.174 209.148 182.838 209.148 181.872V178.148H211.276V177.182H209.148V175.32H208.07V177.182H206.922V178.148H208.07V181.942C208.07 183.44 208.952 184.154 210.366 184.154C210.688 184.154 211.066 184.098 211.5 184V183.09ZM212.184 182.824C212.786 183.608 213.71 184.154 214.844 184.154C215.516 184.154 216.076 183.986 216.538 183.636C217 183.286 217.238 182.782 217.238 182.152C217.238 181.214 216.706 180.682 215.432 180.136L214.802 179.87C213.976 179.52 213.696 179.31 213.696 178.876C213.696 178.33 214.158 178.022 214.83 178.022C215.46 178.022 216.048 178.316 216.51 178.778L217.168 178.106C216.608 177.434 215.838 177.028 214.886 177.028C213.584 177.028 212.59 177.742 212.59 178.932C212.59 179.842 213.15 180.36 214.284 180.822L214.942 181.102C215.782 181.438 216.132 181.648 216.132 182.194C216.132 182.796 215.572 183.16 214.83 183.16C214.06 183.16 213.528 182.782 212.87 182.11L212.184 182.824ZM223.795 175.628C223.795 174.662 224.313 174.326 225.223 174.326C225.405 174.326 225.601 174.34 225.825 174.368V173.458C225.559 173.388 225.265 173.346 224.971 173.346C223.585 173.346 222.717 174.06 222.717 175.558V177.182H221.737V178.148H222.717V184H223.795V178.148H225.503V177.182H223.795V175.628ZM226.017 180.584C225.989 182.502 227.627 184.182 229.573 184.14C231.519 184.182 233.199 182.502 233.157 180.584C233.199 178.638 231.533 177 229.587 177.028C227.641 176.986 225.975 178.638 226.017 180.584ZM232.051 180.598C232.051 182.026 230.959 183.146 229.573 183.146C228.187 183.146 227.123 182.026 227.123 180.598C227.123 179.128 228.187 178.022 229.587 178.022C230.973 178.022 232.051 179.128 232.051 180.598ZM238.398 177.182C238.216 177.14 238.048 177.126 237.894 177.126C237.068 177.126 236.27 177.49 235.78 178.148V177.182H234.772V184H235.85V180.136C235.85 178.876 236.844 178.134 237.992 178.134H238.398V177.182ZM248.052 177.182L245.798 182.614L243.544 177.182H242.382L245.21 183.79L244.846 184.602C244.496 185.428 244.02 185.694 243.306 185.694C243.11 185.694 242.83 185.666 242.48 185.624V186.534C242.83 186.632 243.18 186.674 243.53 186.674C244.58 186.674 245.322 186.142 245.84 184.952L249.2 177.182H248.052ZM249.712 180.584C249.684 182.502 251.322 184.182 253.268 184.14C255.214 184.182 256.894 182.502 256.852 180.584C256.894 178.638 255.228 177 253.282 177.028C251.336 176.986 249.67 178.638 249.712 180.584ZM255.746 180.598C255.746 182.026 254.654 183.146 253.268 183.146C251.882 183.146 250.818 182.026 250.818 180.598C250.818 179.128 251.882 178.022 253.282 178.022C254.668 178.022 255.746 179.128 255.746 180.598ZM258.383 181.284C258.383 183.006 259.615 184.154 261.211 184.154C262.793 184.154 264.025 183.006 264.025 181.284V177.182H262.947V181.354C262.947 182.432 262.205 183.16 261.211 183.16C260.203 183.16 259.447 182.46 259.447 181.354V177.182H258.383V181.284ZM269.647 177.182C269.465 177.14 269.297 177.126 269.143 177.126C268.317 177.126 267.519 177.49 267.029 178.148V177.182H266.021V184H267.099V180.136C267.099 178.876 268.093 178.134 269.241 178.134H269.647V177.182ZM281.415 180.584C281.415 178.582 279.987 177.028 278.041 177.028C276.977 177.028 275.983 177.49 275.465 178.274V177.182H274.457V186.52H275.535V183.02C276.095 183.734 277.033 184.154 278.041 184.154C279.959 184.154 281.415 182.586 281.415 180.584ZM280.309 180.598C280.309 182.068 279.273 183.16 277.887 183.16C276.627 183.16 275.521 182.32 275.521 180.584C275.521 178.862 276.669 178.022 277.887 178.022C279.273 178.022 280.309 179.128 280.309 180.598ZM286.649 177.182C286.467 177.14 286.299 177.126 286.145 177.126C285.319 177.126 284.521 177.49 284.031 178.148V177.182H283.023V184H284.101V180.136C284.101 178.876 285.095 178.134 286.243 178.134H286.649V177.182ZM287.188 180.584C287.16 182.502 288.798 184.182 290.744 184.14C292.69 184.182 294.37 182.502 294.328 180.584C294.37 178.638 292.704 177 290.758 177.028C288.812 176.986 287.146 178.638 287.188 180.584ZM293.222 180.598C293.222 182.026 292.13 183.146 290.744 183.146C289.358 183.146 288.294 182.026 288.294 180.598C288.294 179.128 289.358 178.022 290.758 178.022C292.144 178.022 293.222 179.128 293.222 180.598ZM293.913 186.562C294.179 186.632 294.473 186.674 294.781 186.674C296.139 186.674 297.021 185.96 297.021 184.462V177.182H295.943V184.392C295.943 185.344 295.439 185.694 294.543 185.694C294.361 185.694 294.151 185.68 293.913 185.652V186.562ZM295.677 174.578C295.677 175.026 296.041 175.362 296.489 175.362C296.937 175.362 297.287 175.026 297.287 174.578C297.287 174.144 296.923 173.794 296.489 173.794C296.041 173.794 295.677 174.144 295.677 174.578ZM305.128 180.92C305.184 180.64 305.212 180.374 305.212 180.108C305.212 178.302 303.868 177.028 302.104 177.028C300.158 177.028 298.618 178.624 298.618 180.598C298.618 182.6 300.2 184.154 302.23 184.154C303.308 184.154 304.246 183.706 304.96 182.964L304.33 182.236C303.714 182.852 303.014 183.16 302.244 183.16C300.9 183.16 299.864 182.264 299.738 180.92H305.128ZM299.78 179.968C300.018 178.792 300.942 178.008 302.076 178.008C303.21 178.008 304.092 178.75 304.106 179.968H299.78ZM306.336 180.584C306.336 182.558 307.932 184.154 309.906 184.154C311.096 184.154 312.09 183.58 312.706 182.67L311.936 182.068C311.39 182.796 310.718 183.16 309.92 183.16C308.506 183.16 307.442 182.012 307.442 180.584C307.442 179.17 308.506 178.022 309.92 178.022C310.718 178.022 311.404 178.386 311.95 179.128L312.72 178.512C312.104 177.602 311.096 177.028 309.906 177.028C307.96 177 306.294 178.638 306.336 180.584ZM317.981 183.09C317.631 183.146 317.337 183.174 317.071 183.174C316.133 183.174 315.629 182.838 315.629 181.872V178.148H317.757V177.182H315.629V175.32H314.551V177.182H313.403V178.148H314.551V181.942C314.551 183.44 315.433 184.154 316.847 184.154C317.169 184.154 317.547 184.098 317.981 184V183.09ZM318.665 182.824C319.267 183.608 320.191 184.154 321.325 184.154C321.997 184.154 322.557 183.986 323.019 183.636C323.481 183.286 323.719 182.782 323.719 182.152C323.719 181.214 323.187 180.682 321.913 180.136L321.283 179.87C320.457 179.52 320.177 179.31 320.177 178.876C320.177 178.33 320.639 178.022 321.311 178.022C321.941 178.022 322.529 178.316 322.991 178.778L323.649 178.106C323.089 177.434 322.319 177.028 321.367 177.028C320.065 177.028 319.071 177.742 319.071 178.932C319.071 179.842 319.631 180.36 320.765 180.822L321.423 181.102C322.263 181.438 322.613 181.648 322.613 182.194C322.613 182.796 322.053 183.16 321.311 183.16C320.541 183.16 320.009 182.782 319.351 182.11L318.665 182.824ZM334.141 179.8C334.141 178.008 333.091 177.028 331.481 177.028C330.347 177.028 329.325 177.518 328.709 178.526L329.423 179.114C329.983 178.386 330.585 178.022 331.411 178.022C332.433 178.022 333.063 178.624 333.063 179.744V180.332H330.907C329.437 180.332 328.457 181.074 328.457 182.236C328.457 183.412 329.437 184.154 330.837 184.154C331.831 184.154 332.629 183.79 333.133 183.118V184H334.141V179.8ZM333.063 181.382C333.063 182.432 332.097 183.258 330.977 183.258C330.179 183.258 329.563 182.866 329.563 182.18C329.563 181.55 330.081 181.214 331.033 181.214H333.063V181.382ZM341.789 179.716C341.789 178.106 340.837 177.028 339.255 177.028C338.401 177.028 337.659 177.35 337.155 177.91V177.182H336.147V184H337.225V179.842C337.225 178.778 337.967 178.022 339.017 178.022C340.067 178.022 340.711 178.764 340.711 179.842V184H341.789V179.716ZM349.201 173.5V178.19C348.655 177.462 347.703 177.028 346.681 177.028C344.763 177.028 343.307 178.596 343.307 180.598C343.307 182.6 344.763 184.154 346.681 184.154C347.745 184.154 348.739 183.692 349.257 182.922V184H350.279V173.5H349.201ZM349.215 180.598C349.215 182.32 348.067 183.16 346.835 183.16C345.449 183.16 344.413 182.054 344.413 180.584C344.413 179.114 345.449 178.022 346.835 178.022C348.067 178.022 349.215 178.862 349.215 180.598ZM93.0155 204.584C93.0155 206.558 94.6115 208.154 96.5855 208.154C97.7755 208.154 98.7695 207.58 99.3855 206.67L98.6155 206.068C98.0695 206.796 97.3975 207.16 96.5995 207.16C95.1855 207.16 94.1215 206.012 94.1215 204.584C94.1215 203.17 95.1855 202.022 96.5995 202.022C97.3975 202.022 98.0835 202.386 98.6295 203.128L99.3995 202.512C98.7835 201.602 97.7755 201.028 96.5855 201.028C94.6395 201 92.9735 202.638 93.0155 204.584ZM104.562 201.182C104.38 201.14 104.212 201.126 104.058 201.126C103.232 201.126 102.434 201.49 101.944 202.148V201.182H100.936V208H102.014V204.136C102.014 202.876 103.008 202.134 104.156 202.134H104.562V201.182ZM111.612 204.92C111.668 204.64 111.696 204.374 111.696 204.108C111.696 202.302 110.352 201.028 108.588 201.028C106.642 201.028 105.102 202.624 105.102 204.598C105.102 206.6 106.684 208.154 108.714 208.154C109.792 208.154 110.73 207.706 111.444 206.964L110.814 206.236C110.198 206.852 109.498 207.16 108.728 207.16C107.384 207.16 106.348 206.264 106.222 204.92H111.612ZM106.264 203.968C106.502 202.792 107.426 202.008 108.56 202.008C109.694 202.008 110.576 202.75 110.59 203.968H106.264ZM118.42 203.8C118.42 202.008 117.37 201.028 115.76 201.028C114.626 201.028 113.604 201.518 112.988 202.526L113.702 203.114C114.262 202.386 114.864 202.022 115.69 202.022C116.712 202.022 117.342 202.624 117.342 203.744V204.332H115.186C113.716 204.332 112.736 205.074 112.736 206.236C112.736 207.412 113.716 208.154 115.116 208.154C116.11 208.154 116.908 207.79 117.412 207.118V208H118.42V203.8ZM117.342 205.382C117.342 206.432 116.376 207.258 115.256 207.258C114.458 207.258 113.842 206.866 113.842 206.18C113.842 205.55 114.36 205.214 115.312 205.214H117.342V205.382ZM124.15 207.09C123.8 207.146 123.506 207.174 123.24 207.174C122.302 207.174 121.798 206.838 121.798 205.872V202.148H123.926V201.182H121.798V199.32H120.72V201.182H119.572V202.148H120.72V205.942C120.72 207.44 121.602 208.154 123.016 208.154C123.338 208.154 123.716 208.098 124.15 208V207.09ZM131.362 204.92C131.418 204.64 131.446 204.374 131.446 204.108C131.446 202.302 130.102 201.028 128.338 201.028C126.392 201.028 124.852 202.624 124.852 204.598C124.852 206.6 126.434 208.154 128.464 208.154C129.542 208.154 130.48 207.706 131.194 206.964L130.564 206.236C129.948 206.852 129.248 207.16 128.478 207.16C127.134 207.16 126.098 206.264 125.972 204.92H131.362ZM126.014 203.968C126.252 202.792 127.176 202.008 128.31 202.008C129.444 202.008 130.326 202.75 130.34 203.968H126.014ZM136.06 206.824C136.662 207.608 137.586 208.154 138.72 208.154C139.392 208.154 139.952 207.986 140.414 207.636C140.876 207.286 141.114 206.782 141.114 206.152C141.114 205.214 140.582 204.682 139.308 204.136L138.678 203.87C137.852 203.52 137.572 203.31 137.572 202.876C137.572 202.33 138.034 202.022 138.706 202.022C139.336 202.022 139.924 202.316 140.386 202.778L141.044 202.106C140.484 201.434 139.714 201.028 138.762 201.028C137.46 201.028 136.466 201.742 136.466 202.932C136.466 203.842 137.026 204.36 138.16 204.822L138.818 205.102C139.658 205.438 140.008 205.648 140.008 206.194C140.008 206.796 139.448 207.16 138.706 207.16C137.936 207.16 137.404 206.782 136.746 206.11L136.06 206.824ZM142.291 204.584C142.263 206.502 143.901 208.182 145.847 208.14C147.793 208.182 149.473 206.502 149.431 204.584C149.473 202.638 147.807 201 145.861 201.028C143.915 200.986 142.249 202.638 142.291 204.584ZM148.325 204.598C148.325 206.026 147.233 207.146 145.847 207.146C144.461 207.146 143.397 206.026 143.397 204.598C143.397 203.128 144.461 202.022 145.861 202.022C147.247 202.022 148.325 203.128 148.325 204.598ZM161 203.716C161 202.092 160.09 201.028 158.522 201.028C157.514 201.028 156.688 201.49 156.184 202.204C155.792 201.462 155.078 201.028 154.084 201.028C153.244 201.028 152.544 201.336 152.054 201.896V201.182H151.046V208H152.124V203.856C152.124 202.778 152.838 202.022 153.86 202.022C154.854 202.022 155.484 202.75 155.484 203.856V208H156.562V203.758C156.562 202.792 157.29 202.022 158.312 202.022C159.32 202.022 159.922 202.75 159.922 203.856V208H161V203.716ZM169.022 204.92C169.078 204.64 169.106 204.374 169.106 204.108C169.106 202.302 167.762 201.028 165.998 201.028C164.052 201.028 162.512 202.624 162.512 204.598C162.512 206.6 164.094 208.154 166.124 208.154C167.202 208.154 168.14 207.706 168.854 206.964L168.224 206.236C167.608 206.852 166.908 207.16 166.138 207.16C164.794 207.16 163.758 206.264 163.632 204.92H169.022ZM163.674 203.968C163.912 202.792 164.836 202.008 165.97 202.008C167.104 202.008 167.986 202.75 168 203.968H163.674ZM174.444 207.09C174.094 207.146 173.8 207.174 173.534 207.174C172.596 207.174 172.092 206.838 172.092 205.872V202.148H174.22V201.182H172.092V199.32H171.014V201.182H169.866V202.148H171.014V205.942C171.014 207.44 171.896 208.154 173.31 208.154C173.632 208.154 174.01 208.098 174.444 208V207.09ZM181.414 203.716C181.414 202.106 180.462 201.028 178.894 201.028C178.04 201.028 177.312 201.378 176.85 201.952V197.5H175.772V208H176.85V203.856C176.85 202.792 177.592 202.022 178.642 202.022C179.692 202.022 180.336 202.75 180.336 203.856V208H181.414V203.716ZM183.422 208H184.5V201.182H183.422V208ZM183.156 198.578C183.156 199.026 183.52 199.362 183.968 199.362C184.416 199.362 184.766 199.026 184.766 198.578C184.766 198.144 184.402 197.794 183.968 197.794C183.52 197.794 183.156 198.144 183.156 198.578ZM192.229 203.716C192.229 202.106 191.277 201.028 189.695 201.028C188.841 201.028 188.099 201.35 187.595 201.91V201.182H186.587V208H187.665V203.842C187.665 202.778 188.407 202.022 189.457 202.022C190.507 202.022 191.151 202.764 191.151 203.842V208H192.229V203.716ZM199.767 201.182V202.274C199.249 201.49 198.255 201.028 197.177 201.028C195.259 201.028 193.831 202.526 193.831 204.486C193.831 206.46 195.259 207.93 197.177 207.93C198.199 207.93 199.165 207.51 199.711 206.796V207.398C199.711 208.868 198.857 209.68 197.443 209.68C196.421 209.68 195.665 209.274 194.895 208.602L194.265 209.358C195.035 210.128 196.141 210.674 197.471 210.674C199.487 210.674 200.789 209.414 200.789 207.342V201.182H199.767ZM199.725 204.486C199.725 206.138 198.591 206.936 197.345 206.936C195.959 206.936 194.923 205.942 194.923 204.5C194.923 203.072 195.959 202.05 197.345 202.05C198.577 202.05 199.725 202.848 199.725 204.486ZM211.625 203.8C211.625 202.008 210.575 201.028 208.965 201.028C207.831 201.028 206.809 201.518 206.193 202.526L206.907 203.114C207.467 202.386 208.069 202.022 208.895 202.022C209.917 202.022 210.547 202.624 210.547 203.744V204.332H208.391C206.921 204.332 205.941 205.074 205.941 206.236C205.941 207.412 206.921 208.154 208.321 208.154C209.315 208.154 210.113 207.79 210.617 207.118V208H211.625V203.8ZM210.547 205.382C210.547 206.432 209.581 207.258 208.461 207.258C207.663 207.258 207.047 206.866 207.047 206.18C207.047 205.55 207.565 205.214 208.517 205.214H210.547V205.382ZM223.585 203.716C223.585 202.092 222.675 201.028 221.107 201.028C220.099 201.028 219.273 201.49 218.769 202.204C218.377 201.462 217.663 201.028 216.669 201.028C215.829 201.028 215.129 201.336 214.639 201.896V201.182H213.631V208H214.709V203.856C214.709 202.778 215.423 202.022 216.445 202.022C217.439 202.022 218.069 202.75 218.069 203.856V208H219.147V203.758C219.147 202.792 219.875 202.022 220.897 202.022C221.905 202.022 222.507 202.75 222.507 203.856V208H223.585V203.716ZM230.698 203.8C230.698 202.008 229.648 201.028 228.038 201.028C226.904 201.028 225.882 201.518 225.266 202.526L225.98 203.114C226.54 202.386 227.142 202.022 227.968 202.022C228.99 202.022 229.62 202.624 229.62 203.744V204.332H227.464C225.994 204.332 225.014 205.074 225.014 206.236C225.014 207.412 225.994 208.154 227.394 208.154C228.388 208.154 229.186 207.79 229.69 207.118V208H230.698V203.8ZM229.62 205.382C229.62 206.432 228.654 207.258 227.534 207.258C226.736 207.258 226.12 206.866 226.12 206.18C226.12 205.55 226.638 205.214 227.59 205.214H229.62V205.382ZM233.544 207.048L237.45 201.504V201.182H232.214V202.148H235.784L231.892 207.678V208H237.492V207.048H233.544ZM238.782 208H239.86V201.182H238.782V208ZM238.516 198.578C238.516 199.026 238.88 199.362 239.328 199.362C239.776 199.362 240.126 199.026 240.126 198.578C240.126 198.144 239.762 197.794 239.328 197.794C238.88 197.794 238.516 198.144 238.516 198.578ZM247.589 203.716C247.589 202.106 246.637 201.028 245.055 201.028C244.201 201.028 243.459 201.35 242.955 201.91V201.182H241.947V208H243.025V203.842C243.025 202.778 243.767 202.022 244.817 202.022C245.867 202.022 246.511 202.764 246.511 203.842V208H247.589V203.716ZM255.127 201.182V202.274C254.609 201.49 253.615 201.028 252.537 201.028C250.619 201.028 249.191 202.526 249.191 204.486C249.191 206.46 250.619 207.93 252.537 207.93C253.559 207.93 254.525 207.51 255.071 206.796V207.398C255.071 208.868 254.217 209.68 252.803 209.68C251.781 209.68 251.025 209.274 250.255 208.602L249.625 209.358C250.395 210.128 251.501 210.674 252.831 210.674C254.847 210.674 256.149 209.414 256.149 207.342V201.182H255.127ZM255.085 204.486C255.085 206.138 253.951 206.936 252.705 206.936C251.319 206.936 250.283 205.942 250.283 204.5C250.283 203.072 251.319 202.05 252.705 202.05C253.937 202.05 255.085 202.848 255.085 204.486ZM261.619 207.272C261.619 207.776 262.011 208.154 262.501 208.154C262.991 208.154 263.383 207.776 263.383 207.272C263.383 206.768 262.991 206.39 262.501 206.39C262.011 206.39 261.619 206.768 261.619 207.272ZM258.119 207.272C258.119 207.776 258.511 208.154 259.001 208.154C259.491 208.154 259.883 207.776 259.883 207.272C259.883 206.768 259.491 206.39 259.001 206.39C258.511 206.39 258.119 206.768 258.119 207.272ZM265.105 207.272C265.105 207.776 265.497 208.154 265.987 208.154C266.477 208.154 266.869 207.776 266.869 207.272C266.869 206.768 266.477 206.39 265.987 206.39C265.497 206.39 265.105 206.768 265.105 207.272ZM268.234 204.584C268.206 206.502 269.844 208.182 271.79 208.14C273.736 208.182 275.416 206.502 275.374 204.584C275.416 202.638 273.75 201 271.804 201.028C269.858 200.986 268.192 202.638 268.234 204.584ZM274.268 204.598C274.268 206.026 273.176 207.146 271.79 207.146C270.404 207.146 269.34 206.026 269.34 204.598C269.34 203.128 270.404 202.022 271.804 202.022C273.19 202.022 274.268 203.128 274.268 204.598ZM280.615 201.182C280.433 201.14 280.265 201.126 280.111 201.126C279.285 201.126 278.487 201.49 277.997 202.148V201.182H276.989V208H278.067V204.136C278.067 202.876 279.061 202.134 280.209 202.134H280.615V201.182ZM292.383 204.598C292.383 202.596 290.927 201.028 289.009 201.028C287.987 201.028 287.049 201.462 286.503 202.176V197.5H285.425V208H286.433V206.922C286.951 207.692 287.959 208.154 289.023 208.154C290.941 208.154 292.383 206.6 292.383 204.598ZM291.277 204.584C291.277 206.054 290.241 207.16 288.855 207.16C287.637 207.16 286.489 206.32 286.489 204.598C286.489 202.862 287.595 202.022 288.855 202.022C290.241 202.022 291.277 203.114 291.277 204.584ZM300.011 204.92C300.067 204.64 300.095 204.374 300.095 204.108C300.095 202.302 298.751 201.028 296.987 201.028C295.041 201.028 293.501 202.624 293.501 204.598C293.501 206.6 295.083 208.154 297.113 208.154C298.191 208.154 299.129 207.706 299.843 206.964L299.213 206.236C298.597 206.852 297.897 207.16 297.127 207.16C295.783 207.16 294.747 206.264 294.621 204.92H300.011ZM294.663 203.968C294.901 202.792 295.825 202.008 296.959 202.008C298.093 202.008 298.975 202.75 298.989 203.968H294.663ZM305.433 207.09C305.083 207.146 304.789 207.174 304.523 207.174C303.585 207.174 303.081 206.838 303.081 205.872V202.148H305.209V201.182H303.081V199.32H302.003V201.182H300.855V202.148H302.003V205.942C302.003 207.44 302.885 208.154 304.299 208.154C304.621 208.154 304.999 208.098 305.433 208V207.09ZM310.061 207.09C309.711 207.146 309.417 207.174 309.151 207.174C308.213 207.174 307.709 206.838 307.709 205.872V202.148H309.837V201.182H307.709V199.32H306.631V201.182H305.483V202.148H306.631V205.942C306.631 207.44 307.513 208.154 308.927 208.154C309.249 208.154 309.627 208.098 310.061 208V207.09ZM317.273 204.92C317.329 204.64 317.357 204.374 317.357 204.108C317.357 202.302 316.013 201.028 314.249 201.028C312.303 201.028 310.763 202.624 310.763 204.598C310.763 206.6 312.345 208.154 314.375 208.154C315.453 208.154 316.391 207.706 317.105 206.964L316.475 206.236C315.859 206.852 315.159 207.16 314.389 207.16C313.045 207.16 312.009 206.264 311.883 204.92H317.273ZM311.925 203.968C312.163 202.792 313.087 202.008 314.221 202.008C315.355 202.008 316.237 202.75 316.251 203.968H311.925ZM322.597 201.182C322.415 201.14 322.247 201.126 322.093 201.126C321.267 201.126 320.469 201.49 319.979 202.148V201.182H318.971V208H320.049V204.136C320.049 202.876 321.043 202.134 322.191 202.134H322.597V201.182ZM331.131 207.09C330.781 207.146 330.487 207.174 330.221 207.174C329.283 207.174 328.779 206.838 328.779 205.872V202.148H330.907V201.182H328.779V199.32H327.701V201.182H326.553V202.148H327.701V205.942C327.701 207.44 328.583 208.154 329.997 208.154C330.319 208.154 330.697 208.098 331.131 208V207.09ZM338.101 203.716C338.101 202.106 337.149 201.028 335.581 201.028C334.727 201.028 333.999 201.378 333.537 201.952V197.5H332.459V208H333.537V203.856C333.537 202.792 334.279 202.022 335.329 202.022C336.379 202.022 337.023 202.75 337.023 203.856V208H338.101V203.716ZM345.218 203.8C345.218 202.008 344.168 201.028 342.558 201.028C341.424 201.028 340.402 201.518 339.786 202.526L340.5 203.114C341.06 202.386 341.662 202.022 342.488 202.022C343.51 202.022 344.14 202.624 344.14 203.744V204.332H341.984C340.514 204.332 339.534 205.074 339.534 206.236C339.534 207.412 340.514 208.154 341.914 208.154C342.908 208.154 343.706 207.79 344.21 207.118V208H345.218V203.8ZM344.14 205.382C344.14 206.432 343.174 207.258 342.054 207.258C341.256 207.258 340.64 206.866 340.64 206.18C340.64 205.55 341.158 205.214 342.11 205.214H344.14V205.382ZM352.867 203.716C352.867 202.106 351.915 201.028 350.333 201.028C349.479 201.028 348.737 201.35 348.233 201.91V201.182H347.225V208H348.303V203.842C348.303 202.778 349.045 202.022 350.095 202.022C351.145 202.022 351.789 202.764 351.789 203.842V208H352.867V203.716ZM122.176 227.8C122.176 226.008 121.126 225.028 119.516 225.028C118.382 225.028 117.36 225.518 116.744 226.526L117.458 227.114C118.018 226.386 118.62 226.022 119.446 226.022C120.468 226.022 121.098 226.624 121.098 227.744V228.332H118.942C117.472 228.332 116.492 229.074 116.492 230.236C116.492 231.412 117.472 232.154 118.872 232.154C119.866 232.154 120.664 231.79 121.168 231.118V232H122.176V227.8ZM121.098 229.382C121.098 230.432 120.132 231.258 119.012 231.258C118.214 231.258 117.598 230.866 117.598 230.18C117.598 229.55 118.116 229.214 119.068 229.214H121.098V229.382ZM134.137 227.716C134.137 226.092 133.227 225.028 131.659 225.028C130.651 225.028 129.825 225.49 129.321 226.204C128.929 225.462 128.215 225.028 127.221 225.028C126.381 225.028 125.681 225.336 125.191 225.896V225.182H124.183V232H125.261V227.856C125.261 226.778 125.975 226.022 126.997 226.022C127.991 226.022 128.621 226.75 128.621 227.856V232H129.699V227.758C129.699 226.792 130.427 226.022 131.449 226.022C132.457 226.022 133.059 226.75 133.059 227.856V232H134.137V227.716ZM141.249 227.8C141.249 226.008 140.199 225.028 138.589 225.028C137.455 225.028 136.433 225.518 135.817 226.526L136.531 227.114C137.091 226.386 137.693 226.022 138.519 226.022C139.541 226.022 140.171 226.624 140.171 227.744V228.332H138.015C136.545 228.332 135.565 229.074 135.565 230.236C135.565 231.412 136.545 232.154 137.945 232.154C138.939 232.154 139.737 231.79 140.241 231.118V232H141.249V227.8ZM140.171 229.382C140.171 230.432 139.205 231.258 138.085 231.258C137.287 231.258 136.671 230.866 136.671 230.18C136.671 229.55 137.189 229.214 138.141 229.214H140.171V229.382ZM144.096 231.048L148.002 225.504V225.182H142.766V226.148H146.336L142.444 231.678V232H148.044V231.048H144.096ZM149.333 232H150.411V225.182H149.333V232ZM149.067 222.578C149.067 223.026 149.431 223.362 149.879 223.362C150.327 223.362 150.677 223.026 150.677 222.578C150.677 222.144 150.313 221.794 149.879 221.794C149.431 221.794 149.067 222.144 149.067 222.578ZM158.141 227.716C158.141 226.106 157.189 225.028 155.607 225.028C154.753 225.028 154.011 225.35 153.507 225.91V225.182H152.499V232H153.577V227.842C153.577 226.778 154.319 226.022 155.369 226.022C156.419 226.022 157.063 226.764 157.063 227.842V232H158.141V227.716ZM165.678 225.182V226.274C165.16 225.49 164.166 225.028 163.088 225.028C161.17 225.028 159.742 226.526 159.742 228.486C159.742 230.46 161.17 231.93 163.088 231.93C164.11 231.93 165.076 231.51 165.622 230.796V231.398C165.622 232.868 164.768 233.68 163.354 233.68C162.332 233.68 161.576 233.274 160.806 232.602L160.176 233.358C160.946 234.128 162.052 234.674 163.382 234.674C165.398 234.674 166.7 233.414 166.7 231.342V225.182H165.678ZM165.636 228.486C165.636 230.138 164.502 230.936 163.256 230.936C161.87 230.936 160.834 229.942 160.834 228.5C160.834 227.072 161.87 226.05 163.256 226.05C164.488 226.05 165.636 226.848 165.636 228.486ZM172.17 231.272C172.17 231.776 172.562 232.154 173.052 232.154C173.542 232.154 173.934 231.776 173.934 231.272C173.934 230.768 173.542 230.39 173.052 230.39C172.562 230.39 172.17 230.768 172.17 231.272ZM168.67 231.272C168.67 231.776 169.062 232.154 169.552 232.154C170.042 232.154 170.434 231.776 170.434 231.272C170.434 230.768 170.042 230.39 169.552 230.39C169.062 230.39 168.67 230.768 168.67 231.272ZM175.656 231.272C175.656 231.776 176.048 232.154 176.538 232.154C177.028 232.154 177.42 231.776 177.42 231.272C177.42 230.768 177.028 230.39 176.538 230.39C176.048 230.39 175.656 230.768 175.656 231.272ZM178.786 228.584C178.758 230.502 180.396 232.182 182.342 232.14C184.288 232.182 185.968 230.502 185.926 228.584C185.968 226.638 184.302 225 182.356 225.028C180.41 224.986 178.744 226.638 178.786 228.584ZM184.82 228.598C184.82 230.026 183.728 231.146 182.342 231.146C180.956 231.146 179.892 230.026 179.892 228.598C179.892 227.128 180.956 226.022 182.356 226.022C183.742 226.022 184.82 227.128 184.82 228.598ZM191.167 225.182C190.985 225.14 190.817 225.126 190.663 225.126C189.837 225.126 189.039 225.49 188.549 226.148V225.182H187.541V232H188.619V228.136C188.619 226.876 189.613 226.134 190.761 226.134H191.167V225.182ZM201.997 228.92C202.053 228.64 202.081 228.374 202.081 228.108C202.081 226.302 200.737 225.028 198.973 225.028C197.027 225.028 195.487 226.624 195.487 228.598C195.487 230.6 197.069 232.154 199.099 232.154C200.177 232.154 201.115 231.706 201.829 230.964L201.199 230.236C200.583 230.852 199.883 231.16 199.113 231.16C197.769 231.16 196.733 230.264 196.607 228.92H201.997ZM196.649 227.968C196.887 226.792 197.811 226.008 198.945 226.008C200.079 226.008 200.961 226.75 200.975 227.968H196.649ZM208.265 225.182L206.011 230.32L203.743 225.182H202.595L205.815 232.154H206.207L209.413 225.182H208.265ZM216.435 228.92C216.491 228.64 216.519 228.374 216.519 228.108C216.519 226.302 215.175 225.028 213.411 225.028C211.465 225.028 209.925 226.624 209.925 228.598C209.925 230.6 211.507 232.154 213.537 232.154C214.615 232.154 215.553 231.706 216.267 230.964L215.637 230.236C215.021 230.852 214.321 231.16 213.551 231.16C212.207 231.16 211.171 230.264 211.045 228.92H216.435ZM211.087 227.968C211.325 226.792 212.249 226.008 213.383 226.008C214.517 226.008 215.399 226.75 215.413 227.968H211.087ZM223.775 227.716C223.775 226.106 222.823 225.028 221.241 225.028C220.387 225.028 219.645 225.35 219.141 225.91V225.182H218.133V232H219.211V227.842C219.211 226.778 219.953 226.022 221.003 226.022C222.053 226.022 222.697 226.764 222.697 227.842V232H223.775V227.716ZM236.384 228.598C236.384 226.596 234.928 225.028 233.01 225.028C231.988 225.028 231.05 225.462 230.504 226.176V221.5H229.426V232H230.434V230.922C230.952 231.692 231.96 232.154 233.024 232.154C234.942 232.154 236.384 230.6 236.384 228.598ZM235.278 228.584C235.278 230.054 234.242 231.16 232.856 231.16C231.638 231.16 230.49 230.32 230.49 228.598C230.49 226.862 231.596 226.022 232.856 226.022C234.242 226.022 235.278 227.114 235.278 228.584ZM244.012 228.92C244.068 228.64 244.096 228.374 244.096 228.108C244.096 226.302 242.752 225.028 240.988 225.028C239.042 225.028 237.502 226.624 237.502 228.598C237.502 230.6 239.084 232.154 241.114 232.154C242.192 232.154 243.13 231.706 243.844 230.964L243.214 230.236C242.598 230.852 241.898 231.16 241.128 231.16C239.784 231.16 238.748 230.264 238.622 228.92H244.012ZM238.664 227.968C238.902 226.792 239.826 226.008 240.96 226.008C242.094 226.008 242.976 226.75 242.99 227.968H238.664ZM249.434 231.09C249.084 231.146 248.79 231.174 248.524 231.174C247.586 231.174 247.082 230.838 247.082 229.872V226.148H249.21V225.182H247.082V223.32H246.004V225.182H244.856V226.148H246.004V229.942C246.004 231.44 246.886 232.154 248.3 232.154C248.622 232.154 249 232.098 249.434 232V231.09ZM254.062 231.09C253.712 231.146 253.418 231.174 253.152 231.174C252.214 231.174 251.71 230.838 251.71 229.872V226.148H253.838V225.182H251.71V223.32H250.632V225.182H249.484V226.148H250.632V229.942C250.632 231.44 251.514 232.154 252.928 232.154C253.25 232.154 253.628 232.098 254.062 232V231.09ZM261.274 228.92C261.33 228.64 261.358 228.374 261.358 228.108C261.358 226.302 260.014 225.028 258.25 225.028C256.304 225.028 254.764 226.624 254.764 228.598C254.764 230.6 256.346 232.154 258.376 232.154C259.454 232.154 260.392 231.706 261.106 230.964L260.476 230.236C259.86 230.852 259.16 231.16 258.39 231.16C257.046 231.16 256.01 230.264 255.884 228.92H261.274ZM255.926 227.968C256.164 226.792 257.088 226.008 258.222 226.008C259.356 226.008 260.238 226.75 260.252 227.968H255.926ZM266.598 225.182C266.416 225.14 266.248 225.126 266.094 225.126C265.268 225.126 264.47 225.49 263.98 226.148V225.182H262.972V232H264.05V228.136C264.05 226.876 265.044 226.134 266.192 226.134H266.598V225.182ZM275.132 231.09C274.782 231.146 274.488 231.174 274.222 231.174C273.284 231.174 272.78 230.838 272.78 229.872V226.148H274.908V225.182H272.78V223.32H271.702V225.182H270.554V226.148H271.702V229.942C271.702 231.44 272.584 232.154 273.998 232.154C274.32 232.154 274.698 232.098 275.132 232V231.09ZM282.102 227.716C282.102 226.106 281.15 225.028 279.582 225.028C278.728 225.028 278 225.378 277.538 225.952V221.5H276.46V232H277.538V227.856C277.538 226.792 278.28 226.022 279.33 226.022C280.38 226.022 281.024 226.75 281.024 227.856V232H282.102V227.716ZM289.219 227.8C289.219 226.008 288.169 225.028 286.559 225.028C285.425 225.028 284.403 225.518 283.787 226.526L284.501 227.114C285.061 226.386 285.663 226.022 286.489 226.022C287.511 226.022 288.141 226.624 288.141 227.744V228.332H285.985C284.515 228.332 283.535 229.074 283.535 230.236C283.535 231.412 284.515 232.154 285.915 232.154C286.909 232.154 287.707 231.79 288.211 231.118V232H289.219V227.8ZM288.141 229.382C288.141 230.432 287.175 231.258 286.055 231.258C285.257 231.258 284.641 230.866 284.641 230.18C284.641 229.55 285.159 229.214 286.111 229.214H288.141V229.382ZM296.868 227.716C296.868 226.106 295.916 225.028 294.334 225.028C293.48 225.028 292.738 225.35 292.234 225.91V225.182H291.226V232H292.304V227.842C292.304 226.778 293.046 226.022 294.096 226.022C295.146 226.022 295.79 226.764 295.79 227.842V232H296.868V227.716ZM306.243 231.09C305.893 231.146 305.599 231.174 305.333 231.174C304.395 231.174 303.891 230.838 303.891 229.872V226.148H306.019V225.182H303.891V223.32H302.813V225.182H301.665V226.148H302.813V229.942C302.813 231.44 303.695 232.154 305.109 232.154C305.431 232.154 305.809 232.098 306.243 232V231.09ZM313.214 227.716C313.214 226.106 312.262 225.028 310.694 225.028C309.84 225.028 309.112 225.378 308.65 225.952V221.5H307.572V232H308.65V227.856C308.65 226.792 309.392 226.022 310.442 226.022C311.492 226.022 312.136 226.75 312.136 227.856V232H313.214V227.716ZM320.331 227.8C320.331 226.008 319.281 225.028 317.671 225.028C316.537 225.028 315.515 225.518 314.899 226.526L315.613 227.114C316.173 226.386 316.775 226.022 317.601 226.022C318.623 226.022 319.253 226.624 319.253 227.744V228.332H317.097C315.627 228.332 314.647 229.074 314.647 230.236C314.647 231.412 315.627 232.154 317.027 232.154C318.021 232.154 318.819 231.79 319.323 231.118V232H320.331V227.8ZM319.253 229.382C319.253 230.432 318.287 231.258 317.167 231.258C316.369 231.258 315.753 230.866 315.753 230.18C315.753 229.55 316.271 229.214 317.223 229.214H319.253V229.382ZM326.062 231.09C325.712 231.146 325.418 231.174 325.152 231.174C324.214 231.174 323.71 230.838 323.71 229.872V226.148H325.838V225.182H323.71V223.32H322.632V225.182H321.484V226.148H322.632V229.942C322.632 231.44 323.514 232.154 324.928 232.154C325.25 232.154 325.628 232.098 326.062 232V231.09ZM327.278 231.272C327.278 231.776 327.67 232.154 328.16 232.154C328.65 232.154 329.042 231.776 329.042 231.272C329.042 230.768 328.65 230.39 328.16 230.39C327.67 230.39 327.278 230.768 327.278 231.272Z" fill="#595959"/>
<rect x="191" y="32" width="64" height="64" rx="32" fill="#242B1E"/>
<path d="M228 56.5C227.337 56.5 226.701 56.2366 226.232 55.7678C225.763 55.2989 225.5 54.663 225.5 54V50.5H214C213.602 50.5 213.221 50.658 212.939 50.9393C212.658 51.2206 212.5 51.6022 212.5 52V76C212.5 76.3978 212.658 76.7794 212.939 77.0607C213.221 77.342 213.602 77.5 214 77.5H224.53C223.867 76.4538 223.52 75.2386 223.53 74C223.533 72.2821 224.214 70.6348 225.426 69.4173C226.638 68.1997 228.282 67.5106 230 67.5C230.505 67.4982 231.009 67.5587 231.5 67.68V56.5H228ZM222 68.5H216C215.867 68.5 215.74 68.4473 215.646 68.3536C215.553 68.2598 215.5 68.1326 215.5 68C215.5 67.8674 215.553 67.7402 215.646 67.6464C215.74 67.5527 215.867 67.5 216 67.5H222C222.133 67.5 222.26 67.5527 222.354 67.6464C222.447 67.7402 222.5 67.8674 222.5 68C222.5 68.1326 222.447 68.2598 222.354 68.3536C222.26 68.4473 222.133 68.5 222 68.5ZM228 64.5H216C215.867 64.5 215.74 64.4473 215.646 64.3536C215.553 64.2598 215.5 64.1326 215.5 64C215.5 63.8674 215.553 63.7402 215.646 63.6464C215.74 63.5527 215.867 63.5 216 63.5H228C228.133 63.5 228.26 63.5527 228.354 63.6464C228.447 63.7402 228.5 63.8674 228.5 64C228.5 64.1326 228.447 64.2598 228.354 64.3536C228.26 64.4473 228.133 64.5 228 64.5ZM228 60.5H216C215.867 60.5 215.74 60.4473 215.646 60.3536C215.553 60.2598 215.5 60.1326 215.5 60C215.5 59.8674 215.553 59.7402 215.646 59.6464C215.74 59.5527 215.867 59.5 216 59.5H228C228.133 59.5 228.26 59.5527 228.354 59.6464C228.447 59.7402 228.5 59.8674 228.5 60C228.5 60.1326 228.447 60.2598 228.354 60.3536C228.26 60.4473 228.133 60.5 228 60.5Z" fill="#D4F70E"/>
<path d="M231.85 68.82L231.71 68.77C231.157 68.593 230.58 68.5019 230 68.5C228.95 68.5007 227.921 68.8023 227.037 69.369C226.152 69.9358 225.449 70.7439 225.009 71.698C224.569 72.652 224.412 73.712 224.556 74.7526C224.699 75.7932 225.138 76.7709 225.82 77.57L225.88 77.64C226.436 78.2651 227.127 78.7552 227.901 79.0729C228.675 79.3906 229.511 79.5276 230.346 79.4735C231.181 79.4194 231.992 79.1755 232.718 78.7605C233.445 78.3455 234.067 77.7703 234.537 77.0786C235.008 76.3869 235.314 75.597 235.434 74.769C235.553 73.941 235.482 73.0967 235.226 72.3003C234.969 71.504 234.535 70.7766 233.955 70.1735C233.375 69.5704 232.666 69.1075 231.88 68.82H231.85ZM232 74.5H230.5V76C230.5 76.1326 230.447 76.2598 230.354 76.3536C230.26 76.4473 230.133 76.5 230 76.5C229.867 76.5 229.74 76.4473 229.646 76.3536C229.553 76.2598 229.5 76.1326 229.5 76V74.5H227.88C227.769 74.4726 227.671 74.4081 227.602 74.3171C227.533 74.2261 227.497 74.1142 227.5 74C227.5 73.8674 227.553 73.7402 227.646 73.6464C227.74 73.5527 227.867 73.5 228 73.5H229.5V72C229.497 71.8896 229.532 71.7817 229.6 71.6942C229.667 71.6068 229.763 71.5453 229.87 71.52H230C230.133 71.52 230.26 71.5727 230.354 71.6664C230.447 71.7602 230.5 71.8874 230.5 72.02V73.52H232C232.133 73.52 232.26 73.5727 232.354 73.6664C232.447 73.7602 232.5 73.8874 232.5 74.02C232.5 74.1526 232.447 74.2798 232.354 74.3736C232.26 74.4673 232.133 74.52 232 74.52V74.5Z" fill="#D4F70E"/>
<path d="M230.79 55.5H228C227.602 55.5 227.221 55.3419 226.939 55.0606C226.658 54.7793 226.5 54.3978 226.5 54V51.21L230.79 55.5Z" fill="#D4F70E"/>
<defs>
<filter id="filter0_d_1_488" x="0" y="0" width="446" height="472" filterUnits="userSpaceOnUse" color-interpolation-filters="sRGB">
<feFlood flood-opacity="0" result="BackgroundImageFix"/>
<feColorMatrix in="SourceAlpha" type="matrix" values="0 0 0 0 0 0 0 0 0 0 0 0 0 0 0 0 0 0 127 0" result="hardAlpha"/>
<feMorphology radius="56" operator="erode" in="SourceAlpha" result="effect1_dropShadow_1_488"/>
<feOffset dy="94"/>
<feGaussianBlur stdDeviation="57"/>
<feColorMatrix type="matrix" values="0 0 0 0 0 0 0 0 0 0.2975 0 0 0 0 0.425 0 0 0 0.08 0"/>
<feBlend mode="normal" in2="BackgroundImageFix" result="effect1_dropShadow_1_488"/>
<feBlend mode="normal" in="SourceGraphic" in2="effect1_dropShadow_1_488" result="shape"/>
</filter>
</defs>
</svg>
