<svg width="412" height="64" viewBox="0 0 412 64" fill="none" xmlns="http://www.w3.org/2000/svg">
<path d="M66.4839 27.1888H-53.9998C-53.9998 16.5302 -49.7683 6.30816 -42.2363 -1.22862C-34.7043 -8.76539 -24.4887 -12.9995 -13.8369 -12.9995H26.3235C36.975 -12.9988 47.1899 -8.76443 54.7214 -1.22772C62.2528 6.30898 66.4839 16.5307 66.4839 27.1888Z" fill="#323638"/>
<path d="M189.795 24.1888H112.595C102.74 24.1888 93.2873 20.2713 86.3178 13.2973C80.0583 7.03381 76.262 -1.23427 75.5534 -9.99951H152.755C152.756 -9.99951 152.756 -9.99951 152.756 -9.99951C162.611 -9.99884 172.062 -6.08099 179.031 0.892859C185.29 7.15626 189.086 15.424 189.795 24.1888Z" stroke="#323638" stroke-width="6"/>
<path d="M-53.9999 32.8112L66.4838 32.8112C66.4838 43.4698 62.2523 53.6918 54.7203 61.2286C47.1883 68.7654 36.9727 72.9995 26.3209 72.9995L-13.8395 72.9995C-24.491 72.9988 -34.7059 68.7644 -42.2374 61.2277C-49.7688 53.691 -53.9999 43.4693 -53.9999 32.8112Z" fill="#323638"/>
<path d="M319.122 27.1884H198.639C198.639 16.5297 202.87 6.30767 210.402 -1.2291C217.934 -8.76588 228.15 -13 238.802 -13H278.962C289.614 -12.9993 299.828 -8.76492 307.36 -1.22821C314.891 6.30849 319.122 16.5302 319.122 27.1884Z" fill="#323638"/>
<path d="M201.76 35.8112L316.002 35.8112C315.293 44.5764 311.497 52.8445 305.237 59.108C298.268 66.0819 288.815 69.9995 278.96 69.9995L238.8 69.9995C238.8 69.9995 238.799 69.9995 238.799 69.9995C228.944 69.9988 219.493 66.081 212.524 59.1071C206.265 52.8437 202.469 44.576 201.76 35.8112Z" stroke="#323638" stroke-width="6"/>
<path d="M192.739 32.8116L112.419 32.8116C101.767 32.8117 91.5512 37.0458 84.0192 44.5825C76.4872 52.1193 72.2557 62.3414 72.2557 73L152.579 73C163.23 72.9993 173.445 68.7649 180.977 61.2282C188.508 53.6915 192.739 43.4698 192.739 32.8116Z" fill="#323638"/>
<path d="M325.1 27.186C325.1 16.5281 329.331 6.30666 336.863 -1.22964C344.394 -8.76594 354.609 -12.9998 365.261 -12.9998L365.261 27.186L325.1 27.186Z" fill="#323638"/>
<path d="M411.192 -13C411.192 -2.34206 406.961 7.87937 399.429 15.4157C391.898 22.952 381.683 27.1858 371.032 27.1858V-13H411.192Z" fill="#323638"/>
<path d="M324.874 32.814C324.874 43.4719 329.105 53.6933 336.637 61.2296C344.168 68.7659 354.383 72.9998 365.035 72.9998L365.035 32.814L324.874 32.814Z" fill="#323638"/>
<path d="M410.947 73C410.947 62.3421 406.715 52.1206 399.184 44.5843C391.652 37.048 381.437 32.8142 370.786 32.8142L370.786 73L410.947 73Z" fill="#323638"/>
</svg>
