<svg width="411" height="64" viewBox="0 0 411 64" fill="none" xmlns="http://www.w3.org/2000/svg">
<path d="M344.708 32.8112L465.192 32.8112C465.192 43.4698 460.961 53.6918 453.429 61.2286C445.897 68.7654 435.681 72.9995 425.029 72.9995L384.869 72.9995C374.217 72.9988 364.002 68.7644 356.471 61.2277C348.939 53.691 344.708 43.4693 344.708 32.8112Z" fill="#323638"/>
<path d="M221.397 35.8112L298.597 35.8112C308.453 35.8112 317.905 39.7287 324.874 46.7027C331.134 52.9662 334.93 61.2343 335.639 69.9995L258.437 69.9995C258.437 69.9995 258.437 69.9995 258.437 69.9995C248.581 69.9988 239.13 66.081 232.161 59.1071C225.902 52.8437 222.106 44.576 221.397 35.8112Z" stroke="#323638" stroke-width="6"/>
<path d="M465.192 27.1889L344.708 27.1888C344.708 16.5302 348.94 6.30816 356.472 -1.22861C364.004 -8.76539 374.22 -12.9995 384.871 -12.9995L425.032 -12.9995C435.683 -12.9988 445.898 -8.76441 453.43 -1.22771C460.961 6.309 465.192 16.5307 465.192 27.1889Z" fill="#323638"/>
<path d="M92.0698 32.8116L212.553 32.8116C212.553 43.4703 208.322 53.6923 200.79 61.2291C193.258 68.7659 183.042 73 172.391 73L132.23 73C121.579 72.9993 111.364 68.7649 103.832 61.2282C96.3009 53.6915 92.0698 43.4698 92.0698 32.8116Z" fill="#323638"/>
<path d="M209.432 24.1889L95.1906 24.1888C95.8992 15.4236 99.6955 7.15552 105.955 0.892034C112.925 -6.08192 122.377 -9.99951 132.232 -9.9995L172.393 -9.9995C172.393 -9.9995 172.393 -9.9995 172.393 -9.9995C182.248 -9.99883 191.7 -6.08097 198.669 0.892876C204.928 7.15628 208.724 15.424 209.432 24.1889Z" stroke="#323638" stroke-width="6"/>
<path d="M218.453 27.1883H298.774C309.425 27.1883 319.641 22.9542 327.173 15.4175C334.705 7.88068 338.937 -2.34139 338.937 -13H258.613C247.962 -12.9993 237.747 -8.76492 230.215 -1.22821C222.684 6.30849 218.453 16.5302 218.453 27.1883Z" fill="#323638"/>
<path d="M86.092 32.814C86.092 43.4719 81.8608 53.6933 74.3293 61.2296C66.7977 68.7659 56.5828 72.9998 45.9316 72.9998L45.9316 32.814L86.092 32.814Z" fill="#323638"/>
<path d="M6.86646e-05 73C6.95963e-05 62.3421 4.23125 52.1206 11.7628 44.5843C19.2943 37.048 29.5093 32.8142 40.1605 32.8142L40.1605 73L6.86646e-05 73Z" fill="#323638"/>
<path d="M86.318 27.186C86.318 16.5281 82.0869 6.30666 74.5553 -1.22964C67.0238 -8.76594 56.8088 -12.9998 46.1577 -12.9998L46.1577 27.186L86.318 27.186Z" fill="#323638"/>
<path d="M0.245552 -13C0.245552 -2.34206 4.47673 7.87937 12.0083 15.4157C19.5398 22.952 29.7547 27.1858 40.4059 27.1858V-13H0.245552Z" fill="#323638"/>
</svg>
