<svg width="872" height="506" viewBox="0 0 872 506" fill="none" xmlns="http://www.w3.org/2000/svg">
<path d="M225.846 247.601H0.0119629C0.0119629 227.621 7.94335 208.459 22.0613 194.331C36.1793 180.202 55.3274 172.265 75.2932 172.265H150.57C170.535 172.266 189.682 180.204 203.798 194.332C217.915 208.46 225.846 227.622 225.846 247.601Z" fill="#D4F70E"/>
<path d="M459.768 244.601H312.277C293.108 244.601 274.723 236.98 261.167 223.415C248.32 210.558 240.808 193.36 240.058 175.265H387.554C406.722 175.266 425.106 182.887 438.66 196.453C451.507 209.309 459.018 226.507 459.768 244.601Z" stroke="#D4F70E" stroke-width="6"/>
<path d="M0.012 258.141L225.846 258.141C225.846 278.121 217.915 297.283 203.797 311.412C189.679 325.54 170.531 333.477 150.565 333.477L75.2885 333.477C55.3235 333.476 36.1766 325.538 22.0597 311.41C7.94275 297.282 0.0119982 278.121 0.012 258.141Z" fill="#D4F70E"/>
<path d="M699.391 247.601H473.557C473.557 227.62 481.488 208.458 495.606 194.33C509.724 180.202 528.872 172.265 548.838 172.265H624.115C644.08 172.266 663.227 180.204 677.343 194.332C691.46 208.46 699.391 227.621 699.391 247.601Z" fill="#D4F70E"/>
<path d="M696.329 261.141C695.58 279.236 688.068 296.434 675.22 309.291C661.665 322.856 643.28 330.477 624.11 330.477L548.834 330.477C529.665 330.476 511.282 322.855 497.727 309.289C484.881 296.433 477.369 279.235 476.62 261.141L696.329 261.141Z" stroke="#D4F70E" stroke-width="6"/>
<path d="M462.5 258.142L311.946 258.142C291.981 258.142 272.833 266.079 258.715 280.207C244.597 294.335 236.665 313.497 236.665 333.478L387.223 333.478C407.188 333.476 426.335 325.539 440.452 311.41C454.569 297.282 462.5 278.121 462.5 258.142Z" fill="#D4F70E"/>
<path d="M710.596 247.597C710.596 227.618 718.527 208.457 732.644 194.33C746.761 180.202 765.908 172.266 785.872 172.266L785.872 247.597L710.596 247.597Z" fill="#D4F70E"/>
<path d="M871.966 172.265C871.966 192.244 864.035 211.404 849.918 225.532C835.801 239.659 816.654 247.596 796.69 247.596V172.265H871.966Z" fill="#D4F70E"/>
<path d="M710.172 258.146C710.172 278.125 718.103 297.285 732.22 311.413C746.337 325.54 765.484 333.477 785.449 333.477L785.449 258.146L710.172 258.146Z" fill="#D4F70E"/>
<path d="M871.506 333.478C871.506 313.498 863.575 294.338 849.458 280.21C835.341 266.083 816.194 258.146 796.229 258.146L796.229 333.478L871.506 333.478Z" fill="#D4F70E"/>
<path d="M321.611 419.454C321.611 409.558 323.559 399.76 327.344 390.618C331.128 381.477 336.676 373.171 343.669 366.175C350.662 359.179 358.963 353.63 368.1 349.845C377.236 346.061 387.028 344.115 396.916 344.118L547.473 344.118L547.473 419.454L321.611 419.454Z" fill="#D4F70E"/>
<path d="M781.395 416.454L633.904 416.454C614.734 416.454 596.35 408.834 582.794 395.268C569.947 382.411 562.435 365.213 561.685 347.118L709.18 347.118C728.349 347.119 746.732 354.74 760.287 368.306C773.133 381.162 780.645 398.36 781.395 416.454Z" stroke="#D4F70E" stroke-width="6"/>
<path d="M795.284 430.221C795.284 450.2 803.215 469.361 817.332 483.488C831.449 497.615 850.596 505.552 870.561 505.552L870.561 430.221L795.284 430.221Z" fill="#D4F70E"/>
<path d="M75.2817 419.453C75.2817 399.474 67.3508 380.313 53.2338 366.186C39.1167 352.059 19.9698 344.122 0.00525561 344.122L0.00524902 419.453L75.2817 419.453Z" fill="#D4F70E"/>
<path d="M311.377 344.122C311.377 364.101 303.446 383.262 289.329 397.389C275.212 411.517 256.065 419.453 236.101 419.453L160.824 419.453C150.938 419.454 141.149 417.506 132.016 413.72C122.882 409.935 114.583 404.386 107.593 397.391C100.602 390.396 95.0568 382.091 91.2735 372.951C87.4902 363.811 85.543 354.015 85.543 344.122L311.377 344.122Z" fill="#D4F70E"/>
<path d="M321.606 75.3941C321.606 65.4988 323.554 55.7005 327.339 46.5588C331.123 37.4171 336.671 29.1111 343.664 22.1152C350.657 15.1193 358.958 9.5706 368.095 5.78601C377.231 2.00142 387.023 0.0551059 396.911 0.0582102L547.468 0.058197L547.468 75.394L321.606 75.3941Z" fill="#D4F70E"/>
<path d="M784.452 75.3945L633.899 75.3944C613.933 75.3944 594.785 67.4573 580.667 53.3291C566.549 39.2009 558.618 20.0389 558.618 0.0585938L709.175 0.0586201C729.14 0.0598775 748.287 7.99758 762.404 22.1257C776.521 36.2537 784.452 55.415 784.452 75.3945Z" fill="#D4F70E"/>
<path d="M795.275 86.1606C795.275 106.14 803.206 125.301 817.323 139.428C831.44 153.555 850.587 161.492 870.551 161.492L870.551 86.1606L795.275 86.1606Z" fill="#D4F70E"/>
<path d="M75.2767 75.394C75.2767 55.415 67.3458 36.2542 53.2287 22.1269C39.1117 7.99952 19.9648 0.0628756 0.000250726 0.0628738L0.000244141 75.394L75.2767 75.394Z" fill="#D4F70E"/>
<path d="M311.372 0.0635161C311.372 20.0426 303.441 39.2034 289.324 53.3307C275.207 67.458 256.06 75.3946 236.096 75.3946L160.819 75.3946C150.933 75.3953 141.144 73.4472 132.011 69.6617C122.877 65.8763 114.578 60.3275 107.587 53.3323C100.597 46.3371 95.0517 38.0324 91.2684 28.8925C87.4851 19.7526 85.5378 9.9565 85.5378 0.0634766L311.372 0.0635161Z" fill="#D4F70E"/>
<path d="M548.96 86.1611C548.96 96.0564 547.012 105.855 543.227 114.996C539.442 124.138 533.895 132.444 526.902 139.44C519.909 146.436 511.607 151.985 502.471 155.769C493.335 159.554 483.543 161.5 473.655 161.497H323.097V86.1611L548.96 86.1611Z" fill="#D4F70E"/>
<path d="M89.1756 158.497L236.666 158.497C255.836 158.497 274.221 150.876 287.776 137.311C300.624 124.454 308.136 107.256 308.886 89.1611L161.39 89.1611C142.221 89.1623 123.838 96.7834 110.283 110.349C97.4369 123.205 89.9254 140.403 89.1756 158.497Z" stroke="#D4F70E" stroke-width="6"/>
<path d="M72.2326 89.1611C71.4827 107.255 63.9711 124.452 51.1246 137.308C38.2788 150.163 21.0958 157.679 3.01819 158.43L3.01819 89.1611L72.2326 89.1611Z" stroke="#D4F70E" stroke-width="6"/>
<path d="M798.351 72.394C799.101 54.3006 806.612 37.1032 819.459 24.2474C832.305 11.3922 849.488 3.87606 867.565 3.12514L867.565 72.394L798.351 72.394Z" stroke="#D4F70E" stroke-width="6"/>
<path d="M559.193 161.493C559.193 141.514 567.124 122.353 581.241 108.226C595.358 94.0982 614.505 86.1616 634.47 86.1616L709.746 86.1616C719.632 86.161 729.421 88.109 738.555 91.8945C747.688 95.6799 755.987 101.229 762.978 108.224C769.969 115.219 775.514 123.524 779.297 132.664C783.08 141.804 785.028 151.6 785.028 161.493L559.193 161.493Z" fill="#D4F70E"/>
<path d="M548.954 430.222C548.954 440.117 547.006 449.916 543.222 459.057C539.437 468.199 533.89 476.505 526.897 483.501C519.904 490.497 511.602 496.046 502.466 499.83C493.329 503.615 483.538 505.561 473.65 505.558H323.092V430.222H548.954Z" fill="#D4F70E"/>
<path d="M89.17 433.222L236.661 433.222C255.83 433.222 274.215 440.843 287.771 454.408C300.618 467.265 308.13 484.463 308.88 502.558L161.384 502.558C142.216 502.557 123.832 494.936 110.278 481.371C97.4313 468.514 89.9199 451.316 89.17 433.222Z" stroke="#D4F70E" stroke-width="6"/>
<path d="M75.2895 430.222C75.2895 450.201 67.3586 469.362 53.2415 483.489C39.1244 497.617 19.9775 505.553 0.0129395 505.553L0.0129395 430.222H75.2895Z" fill="#D4F70E"/>
<path d="M795.284 419.455C795.284 399.476 803.215 380.315 817.332 366.187C831.449 352.06 850.596 344.123 870.56 344.123L870.56 419.455L795.284 419.455Z" fill="#D4F70E"/>
<path d="M559.188 505.553C559.188 485.574 567.119 466.413 581.236 452.286C595.353 438.159 614.5 430.222 634.465 430.222L709.741 430.222C719.627 430.221 729.416 432.169 738.55 435.955C747.683 439.74 755.982 445.289 762.973 452.284C769.963 459.28 775.508 467.584 779.292 476.724C783.075 485.864 785.022 495.66 785.022 505.553L559.188 505.553Z" fill="#D4F70E"/>
</svg>
