<svg width="840" height="96" viewBox="0 0 840 96" fill="none" xmlns="http://www.w3.org/2000/svg">
<path d="M21.8109 57.7776C21.9421 57.7776 22.0265 57.6558 22.0639 57.4122C22.1202 57.1686 22.0358 56.7281 21.8109 56.091C21.736 55.8474 21.5673 55.4163 21.3049 54.7978C21.0613 54.1794 20.7708 53.4672 20.4335 52.6614C20.0962 51.8556 19.7495 51.0404 19.3934 50.2157C19.0561 49.3911 18.7468 48.6321 18.4657 47.9387C18.1846 47.2453 17.9691 46.7206 17.8192 46.3645C17.5755 45.7273 17.3132 45.2776 17.0321 45.0152C16.7697 44.7528 16.5542 44.6216 16.3855 44.6216H22.1202C22.0077 44.6216 21.9328 44.7528 21.8953 45.0152C21.8578 45.2776 21.9328 45.7273 22.1202 46.3645C22.2139 46.7018 22.3638 47.1985 22.5699 47.8544C22.7948 48.5103 23.0385 49.2505 23.3008 50.0752C23.5819 50.8998 23.8631 51.7431 24.1442 52.6052C24.444 53.4672 24.7158 54.2637 24.9594 54.9946H24.9875C25.1937 54.245 25.4185 53.4391 25.6622 52.5771C25.9058 51.6962 26.1401 50.8436 26.3649 50.019C26.5898 49.1756 26.7866 48.426 26.9553 47.7701C27.1427 47.1141 27.2739 46.6269 27.3488 46.3083C27.5175 45.6711 27.5831 45.2307 27.5456 44.9871C27.5081 44.7434 27.4425 44.6216 27.3488 44.6216H33.5895C33.4771 44.6216 33.4021 44.7528 33.3646 45.0152C33.3271 45.2776 33.4021 45.7273 33.5895 46.3645C33.6832 46.7018 33.8238 47.1985 34.0112 47.8544C34.1985 48.5103 34.4047 49.2505 34.6296 50.0752C34.8545 50.8998 35.0888 51.7431 35.3324 52.6052C35.576 53.4672 35.7916 54.2637 35.9789 54.9946H36.0071C36.2882 54.245 36.5787 53.4391 36.8785 52.5771C37.1971 51.6962 37.5064 50.8436 37.8062 50.019C38.106 49.1756 38.3684 48.426 38.5933 47.7701C38.8182 47.1141 38.9681 46.6269 39.0431 46.3083C39.2117 45.7086 39.2774 45.2776 39.2398 45.0152C39.2023 44.7528 39.1368 44.6216 39.0431 44.6216H44.6372C44.506 44.6216 44.3185 44.7434 44.0749 44.9871C43.8314 45.2307 43.5784 45.6617 43.3159 46.2802C43.1848 46.6175 42.9692 47.1141 42.6694 47.7701C42.3696 48.426 42.0415 49.1569 41.6855 49.9627C41.3295 50.7685 40.9733 51.5745 40.6173 52.3803C40.2612 53.1861 39.9426 53.917 39.6615 54.573C39.3991 55.2289 39.2117 55.7349 39.0993 56.091C38.9119 56.6907 38.8369 57.1217 38.8744 57.3841C38.9119 57.6465 38.9868 57.7776 39.0993 57.7776H32.8305C32.9429 57.7776 33.0179 57.6465 33.0554 57.3841C33.0929 57.1217 33.0179 56.6907 32.8305 56.091C32.7743 55.9223 32.6618 55.5381 32.4932 54.9384C32.3432 54.3387 32.1558 53.6172 31.9309 52.7738C31.7061 51.9118 31.4718 51.0215 31.2282 50.1033C30.9846 49.185 30.7503 48.3136 30.5254 47.489H30.4411C30.2162 48.2761 29.9819 49.1194 29.7383 50.019C29.4947 50.8998 29.2604 51.7618 29.0355 52.6052C28.8106 53.4298 28.6044 54.1607 28.4171 54.7978C28.2484 55.4163 28.1359 55.8474 28.0797 56.091C27.9111 56.7094 27.8454 57.1498 27.8829 57.4122C27.9205 57.6558 27.986 57.7776 28.0797 57.7776H21.8109ZM50.88 58.0587C48.9123 58.0587 47.3661 57.787 46.2417 57.2435C45.136 56.7 44.3583 55.9223 43.9085 54.9103C43.4587 53.8796 43.2338 52.652 43.2338 51.2277C43.2338 49.11 43.8241 47.4327 45.0048 46.1958C46.1855 44.959 47.994 44.3405 50.4303 44.3405C51.8545 44.3405 53.0071 44.5373 53.8879 44.9308C54.7875 45.3244 55.4716 45.8491 55.94 46.5051C56.4085 47.161 56.7271 47.8919 56.8958 48.6977C57.0832 49.4848 57.1769 50.2814 57.1769 51.0872V52.4084C57.1769 52.3522 56.9145 52.296 56.3898 52.2397C55.8838 52.1648 55.0218 52.1273 53.8036 52.1273H47.2818C47.2818 53.158 47.591 53.9358 48.2095 54.4605C48.8466 54.9665 49.8774 55.2195 51.3017 55.2195C52.5011 55.2195 53.5693 55.079 54.5064 54.7978C55.4621 54.498 56.1555 54.2169 56.5866 53.9545V54.7978L56.8677 56.9343C56.5117 57.1779 55.8276 57.4309 54.8156 57.6933C53.8036 57.9369 52.4918 58.0587 50.88 58.0587ZM48.3219 49.7097H53.1851C53.1851 49.2975 53.0914 48.8945 52.904 48.501C52.7354 48.1074 52.4543 47.7888 52.0607 47.5452C51.6671 47.2828 51.1236 47.1516 50.4303 47.1516C49.3996 47.1516 48.6593 47.3671 48.2095 47.7982C47.7597 48.2292 47.5348 48.679 47.5348 49.1475C47.5348 49.3349 47.591 49.4754 47.7035 49.5692C47.8159 49.6629 48.0221 49.7097 48.3219 49.7097ZM63.9631 58.0587C62.67 58.0587 61.733 57.787 61.152 57.2435C60.571 56.6813 60.2805 55.7723 60.2805 54.5167V47.4327H57.7505V44.6216C58.6127 44.6216 59.2873 44.5186 59.7745 44.3124C60.2618 44.0875 60.6086 43.7033 60.8146 43.1598C61.0208 42.6164 61.1238 41.8574 61.1238 40.8828H64.2723V44.6216H69.0793C68.9481 44.9964 68.817 45.465 68.6857 46.0272C68.5733 46.5707 68.5171 47.0392 68.5171 47.4327H64.2723V52.9706C64.2723 53.8327 64.3379 54.423 64.4691 54.7416C64.6003 55.0603 64.9096 55.2195 65.3967 55.2195C65.7154 55.2195 66.0621 55.1071 66.4368 54.8822C66.8304 54.6573 67.2053 54.3856 67.5613 54.067C67.9361 53.7296 68.2454 53.411 68.489 53.1112V53.9826L68.7701 56.7094C68.4327 57.0092 67.8424 57.3091 66.9991 57.609C66.1557 57.9088 65.1437 58.0587 63.9631 58.0587ZM69.4621 57.7776C69.5934 57.7776 69.7151 57.6465 69.8275 57.3841C69.9588 57.1217 70.0243 56.6907 70.0243 56.091V46.5894C70.0243 45.9897 69.9588 45.568 69.8275 45.3244C69.7151 45.062 69.5934 44.9215 69.4621 44.9027C70.2867 44.9027 71.1301 44.8465 71.9921 44.7341C72.8542 44.6029 73.5289 44.4717 74.0161 44.3405V45.465L73.9599 45.9428L74.0161 45.9991C74.1474 45.7929 74.3534 45.568 74.6345 45.3244C74.9345 45.062 75.3092 44.8371 75.759 44.6497C76.2276 44.4436 76.771 44.3405 77.3894 44.3405C78.3078 44.3405 79.123 44.4717 79.8351 44.7341C80.5473 44.9777 81.0533 45.2307 81.3531 45.4931L80.5098 49.26V50.1033C80.2286 49.7097 79.8445 49.3068 79.3572 48.8945C78.8887 48.4822 78.364 48.1355 77.783 47.8544C77.2208 47.5733 76.6398 47.4327 76.0401 47.4327C75.3654 47.4327 74.8594 47.6764 74.5221 48.1636C74.1848 48.6509 74.0161 49.4192 74.0161 50.4687V56.091C74.0161 56.6907 74.0723 57.1217 74.1848 57.3841C74.316 57.6465 74.4472 57.7776 74.5783 57.7776H69.4621ZM86.6108 58.0587C84.9242 58.0587 83.5748 57.7308 82.5628 57.0748C81.5695 56.4002 81.073 55.3225 81.073 53.8421C81.073 52.8114 81.3352 51.9773 81.8601 51.3402C82.3848 50.703 83.097 50.2344 83.9965 49.9346C84.9148 49.616 85.9549 49.4567 87.1168 49.4567C88.41 49.4567 89.422 49.6067 90.1528 49.9065C90.8837 50.2063 91.3428 50.4125 91.5303 50.525C91.5303 49.363 91.3241 48.5103 90.9118 47.9668C90.4995 47.4234 89.7031 47.1516 88.5224 47.1516C87.3791 47.1516 86.3671 47.2641 85.4864 47.489C84.6055 47.7138 83.8841 47.9762 83.3218 48.2761C82.7783 48.5759 82.4035 48.8289 82.1974 49.0351V48.1917L81.9163 45.4368C82.0474 45.3619 82.3942 45.2401 82.9564 45.0714C83.5186 44.9027 84.2869 44.7434 85.2615 44.5935C86.236 44.4248 87.398 44.3405 88.7473 44.3405C90.6026 44.3405 92.0175 44.6122 92.9921 45.1557C93.9665 45.6805 94.6318 46.4395 94.988 47.4327C95.3627 48.426 95.5502 49.6254 95.5502 51.031V56.091C95.5502 56.6157 95.6064 56.9999 95.7188 57.2435C95.85 57.4684 95.9811 57.6465 96.1124 57.7776H91.5584V57.1873L91.6146 56.6532L91.5584 56.597C91.2585 56.9156 90.687 57.2435 89.8436 57.5808C89.019 57.8995 87.9414 58.0587 86.6108 58.0587ZM87.9321 55.2195C89.0939 55.2195 89.9842 55.0884 90.6026 54.826C91.2398 54.5448 91.5584 54.1888 91.5584 53.7577C91.5584 53.3267 91.2304 52.9706 90.5745 52.6895C89.9372 52.4084 89.0658 52.2678 87.9602 52.2678C86.892 52.2678 86.133 52.4178 85.6832 52.7176C85.2521 53.0174 85.0366 53.3923 85.0366 53.8421C85.0366 54.4043 85.2896 54.7791 85.7956 54.9665C86.3016 55.1352 87.0137 55.2195 87.9321 55.2195ZM97.3009 57.7776C97.4322 57.7776 97.5539 57.6465 97.6663 57.3841C97.7976 57.1217 97.8631 56.6907 97.8631 56.091V46.5894C97.8631 45.9897 97.7976 45.568 97.6663 45.3244C97.5539 45.062 97.4322 44.9215 97.3009 44.9027C98.1255 44.9027 98.9689 44.8465 99.8309 44.7341C100.693 44.6029 101.368 44.4717 101.855 44.3405V46.0553L101.799 46.4207L101.855 46.477C101.911 46.3458 102.089 46.1115 102.389 45.7742C102.689 45.4368 103.12 45.1182 103.682 44.8184C104.244 44.4998 104.938 44.3405 105.762 44.3405C107.505 44.3405 108.836 44.8371 109.754 45.8304C110.691 46.8237 111.16 48.3791 111.16 50.4968V56.091C111.16 56.6907 111.216 57.1217 111.328 57.3841C111.46 57.6465 111.591 57.7776 111.722 57.7776H106.606C106.737 57.7776 106.859 57.6465 106.971 57.3841C107.102 57.1217 107.168 56.6907 107.168 56.091V50.5812C107.168 49.2505 106.962 48.351 106.549 47.8825C106.137 47.3952 105.612 47.1516 104.975 47.1516C104.169 47.1516 103.448 47.4421 102.811 48.0231C102.174 48.5853 101.855 49.5224 101.855 50.8342V56.091C101.855 56.6907 101.911 57.1217 102.024 57.3841C102.155 57.6465 102.286 57.7776 102.417 57.7776H97.3009ZM119.951 58.0587C118.283 58.0587 116.877 57.965 115.734 57.7776C114.591 57.5903 113.804 57.4028 113.373 57.2154V56.3721L112.782 53.6172C113.27 53.9732 114.179 54.3294 115.509 54.6854C116.84 55.0414 118.47 55.2195 120.401 55.2195C121.281 55.2195 121.89 55.1352 122.228 54.9665C122.584 54.7978 122.762 54.5073 122.762 54.0951C122.762 53.7764 122.64 53.5328 122.396 53.3642C122.172 53.1955 121.759 53.0644 121.16 52.9706C120.56 52.8582 119.688 52.727 118.545 52.5771C117.102 52.3897 115.959 52.1273 115.116 51.79C114.272 51.4339 113.673 50.9841 113.317 50.4406C112.979 49.8784 112.811 49.1944 112.811 48.3885C112.811 47.6389 112.989 46.9642 113.345 46.3645C113.719 45.7461 114.357 45.2588 115.256 44.9027C116.175 44.5279 117.449 44.3405 119.079 44.3405C120.616 44.3405 121.965 44.4342 123.127 44.6216C124.289 44.809 125.123 44.9964 125.629 45.1838V46.0272L126.191 48.501C125.76 48.2198 124.917 47.9294 123.661 47.6295C122.406 47.3297 120.813 47.1797 118.883 47.1797C118.133 47.1797 117.599 47.2547 117.28 47.4046C116.962 47.5546 116.802 47.8169 116.802 48.1917C116.802 48.4354 116.905 48.6415 117.112 48.8102C117.318 48.9601 117.721 49.1007 118.32 49.2318C118.939 49.363 119.857 49.513 121.075 49.6816C122.668 49.8878 123.868 50.1782 124.673 50.5531C125.479 50.9091 126.023 51.3589 126.304 51.9024C126.585 52.4271 126.726 53.0644 126.726 53.814C126.726 55.257 126.182 56.3253 125.095 57.0186C124.008 57.712 122.293 58.0587 119.951 58.0587ZM128.369 57.7776C128.5 57.7776 128.622 57.6465 128.734 57.3841C128.865 57.1217 128.931 56.6907 128.931 56.091V47.4327H126.401V44.6216H129.212L129.24 44.5654C129.184 44.4717 129.072 44.1625 128.903 43.6377C128.734 43.0942 128.65 42.4571 128.65 41.7262C128.65 40.2457 129.072 39.1774 129.915 38.5215C130.777 37.8656 131.948 37.5376 133.429 37.5376C134.628 37.5376 135.687 37.6032 136.605 37.7344C137.524 37.8468 138.189 37.9687 138.602 38.0998V38.9713L139.164 42.0354C138.826 41.7918 138.385 41.5481 137.843 41.3045C137.317 41.0421 136.755 40.8266 136.156 40.658C135.556 40.4706 134.956 40.3768 134.356 40.3768C133.757 40.3768 133.326 40.5174 133.063 40.7985C132.82 41.0796 132.698 41.4919 132.698 42.0354V43.7783C132.698 44.1906 132.735 44.4342 132.81 44.5092C132.885 44.5841 133.138 44.6216 133.569 44.6216H137.786C137.655 44.7903 137.524 45.1182 137.392 45.6055C137.28 46.074 137.224 46.6831 137.224 47.4327H132.979V56.091C132.979 56.6907 133.035 57.1217 133.148 57.3841C133.279 57.6465 133.41 57.7776 133.541 57.7776H128.369ZM144.692 58.0587C142.724 58.0587 141.178 57.787 140.054 57.2435C138.948 56.7 138.17 55.9223 137.72 54.9103C137.271 53.8796 137.046 52.652 137.046 51.2277C137.046 49.11 137.636 47.4327 138.817 46.1958C139.997 44.959 141.806 44.3405 144.242 44.3405C145.666 44.3405 146.819 44.5373 147.7 44.9308C148.599 45.3244 149.284 45.8491 149.752 46.5051C150.22 47.161 150.539 47.8919 150.708 48.6977C150.895 49.4848 150.989 50.2814 150.989 51.0872V52.4084C150.989 52.3522 150.726 52.296 150.202 52.2397C149.696 52.1648 148.834 52.1273 147.615 52.1273H141.094C141.094 53.158 141.403 53.9358 142.021 54.4605C142.658 54.9665 143.69 55.2195 145.114 55.2195C146.313 55.2195 147.381 55.079 148.318 54.7978C149.274 54.498 149.967 54.2169 150.399 53.9545V54.7978L150.68 56.9343C150.324 57.1779 149.64 57.4309 148.628 57.6933C147.616 57.9369 146.304 58.0587 144.692 58.0587ZM142.134 49.7097H146.997C146.997 49.2975 146.903 48.8945 146.716 48.501C146.547 48.1074 146.266 47.7888 145.873 47.5452C145.479 47.2828 144.935 47.1516 144.242 47.1516C143.212 47.1516 142.471 47.3671 142.021 47.7982C141.572 48.2292 141.347 48.679 141.347 49.1475C141.347 49.3349 141.403 49.4754 141.515 49.5692C141.628 49.6629 141.834 49.7097 142.134 49.7097ZM152.237 57.7776C152.369 57.7776 152.49 57.6465 152.602 57.3841C152.734 57.1217 152.799 56.6907 152.799 56.091V46.5894C152.799 45.9897 152.734 45.568 152.602 45.3244C152.49 45.062 152.369 44.9215 152.237 44.9027C153.062 44.9027 153.905 44.8465 154.767 44.7341C155.63 44.6029 156.304 44.4717 156.791 44.3405V45.465L156.734 45.9428L156.791 45.9991C156.923 45.7929 157.128 45.568 157.409 45.3244C157.71 45.062 158.084 44.8371 158.534 44.6497C159.003 44.4436 159.546 44.3405 160.164 44.3405C161.083 44.3405 161.898 44.4717 162.61 44.7341C163.322 44.9777 163.828 45.2307 164.128 45.4931L163.284 49.26V50.1033C163.003 49.7097 162.619 49.3068 162.132 48.8945C161.664 48.4822 161.139 48.1355 160.558 47.8544C159.995 47.5733 159.415 47.4327 158.815 47.4327C158.14 47.4327 157.634 47.6764 157.297 48.1636C156.959 48.6509 156.791 49.4192 156.791 50.4687V56.091C156.791 56.6907 156.847 57.1217 156.959 57.3841C157.091 57.6465 157.222 57.7776 157.353 57.7776H152.237Z" fill="#595959"/>
<path d="M277.82 50.6877L281.071 49.7999C281.125 50.5157 281.459 51.1812 282.002 51.6517C282.638 52.179 283.449 52.4468 284.274 52.4013C284.889 52.4363 285.499 52.27 286.011 51.9279C286.203 51.7998 286.361 51.6265 286.47 51.4233C286.58 51.22 286.638 50.993 286.639 50.7621C286.64 50.5707 286.599 50.3815 286.518 50.2079C286.437 50.0343 286.319 49.8806 286.172 49.7578C285.772 49.4411 285.293 49.2379 284.787 49.1695L282.453 48.6458C281.252 48.4248 280.154 47.8258 279.319 46.9367C278.597 46.1291 278.206 45.0797 278.223 43.9972C278.222 43.3214 278.373 42.654 278.664 42.0438C278.955 41.4336 279.378 40.896 279.904 40.4703C281.041 39.4827 282.508 38.9576 284.015 38.9988C284.78 38.9901 285.543 39.0956 286.277 39.3117C286.867 39.4781 287.426 39.7388 287.933 40.0838C288.35 40.3834 288.719 40.744 289.028 41.1536C289.301 41.5031 289.529 41.8858 289.705 42.2925C289.845 42.6284 289.944 42.9797 290.001 43.3389L286.911 44.2267C286.877 43.9718 286.802 43.724 286.69 43.4923C286.562 43.2263 286.398 42.9789 286.203 42.757C285.961 42.4904 285.659 42.2859 285.321 42.1606C284.905 42.0005 284.461 41.9225 284.015 41.9311C283.427 41.9096 282.851 42.0974 282.389 42.4611C282.191 42.607 282.029 42.7969 281.917 43.0158C281.805 43.2348 281.745 43.4768 281.742 43.7228C281.74 43.9173 281.778 44.1102 281.853 44.2897C281.928 44.4692 282.039 44.6315 282.179 44.7665C282.5 45.0724 282.907 45.2732 283.346 45.3423L285.724 45.831C286.965 46.0344 288.113 46.6156 289.011 47.4953C289.761 48.2722 290.172 49.3144 290.154 50.3935C290.154 51.0436 290.027 51.6874 289.781 52.2893C289.526 52.911 289.164 53.4829 288.709 53.9787C288.194 54.5253 287.563 54.9495 286.862 55.2198C286.047 55.5438 285.176 55.7044 284.299 55.6923C283.313 55.7078 282.333 55.5355 281.411 55.1848C280.65 54.9065 279.962 54.4598 279.398 53.8783C278.947 53.4016 278.57 52.8606 278.278 52.2731C278.034 51.7751 277.879 51.2387 277.82 50.6877Z" fill="#595959"/>
<path d="M290.163 42.7857V39.4911H290.971C291.305 39.5151 291.64 39.4666 291.954 39.349C292.267 39.2313 292.551 39.0473 292.787 38.8095C293.212 38.3115 293.432 37.6702 293.402 37.0161V34.6362H296.795V39.4911H300.062V42.7857H296.795V50.1174C296.77 50.3894 296.8 50.6638 296.882 50.9242C296.965 51.1847 297.099 51.4259 297.277 51.6337C297.705 51.9826 298.253 52.1506 298.803 52.1018C299.237 52.1027 299.671 52.0601 300.097 51.9745V55.0521C299.356 55.3147 298.572 55.4316 297.788 55.3964C297.156 55.4312 296.524 55.3386 295.929 55.1241C295.333 54.9096 294.788 54.5778 294.324 54.1482C293.889 53.6906 293.552 53.1488 293.334 52.5563C293.117 51.9638 293.023 51.333 293.059 50.7029V42.7857H290.163Z" fill="#595959"/>
<path d="M300.992 50.9912C300.965 50.3881 301.068 49.7862 301.294 49.2263C301.52 48.6664 301.864 48.1615 302.302 47.7459C303.265 46.8955 304.466 46.3606 305.743 46.2134L309.783 45.5982C310.561 45.5002 310.951 45.1465 310.951 44.5373C310.958 44.2294 310.895 43.9239 310.767 43.644C310.638 43.3642 310.446 43.1176 310.207 42.9232C309.56 42.459 308.77 42.2367 307.976 42.2955C307.146 42.2529 306.331 42.5349 305.705 43.082C305.141 43.6047 304.794 44.3199 304.732 45.0861L301.321 44.3302C301.392 43.5992 301.606 42.8893 301.952 42.2414C302.299 41.5934 302.77 41.02 303.338 40.5541C304.623 39.4883 306.258 38.9351 307.927 39.0009C308.984 38.9816 310.036 39.1464 311.037 39.4879C311.842 39.7564 312.569 40.2161 313.157 40.8276C313.669 41.3804 314.063 42.0319 314.314 42.7421C314.57 43.486 314.697 44.2682 314.689 45.0548V52.6851C314.676 53.5299 314.744 54.3741 314.894 55.2058H311.349C311.197 54.5498 311.136 53.8759 311.17 53.2034C310.697 53.9353 310.053 54.5413 309.294 54.9691C308.384 55.476 307.354 55.7267 306.312 55.6945C304.897 55.7569 303.514 55.2598 302.463 54.3109C301.995 53.8941 301.622 53.3823 301.368 52.8098C301.114 52.2372 300.986 51.6172 300.992 50.9912ZM304.732 50.7221C304.728 50.9912 304.779 51.2582 304.884 51.5061C304.989 51.754 305.145 51.9772 305.341 52.1614C305.569 52.366 305.836 52.5235 306.125 52.6247C306.414 52.726 306.721 52.7691 307.027 52.7514C307.536 52.7572 308.042 52.6853 308.529 52.538C308.981 52.3972 309.403 52.1727 309.772 51.8762C310.17 51.5421 310.471 51.1064 310.642 50.6154C310.86 49.9954 310.965 49.3411 310.951 48.6839V47.9745L306.848 48.6023C306.281 48.6758 305.747 48.9136 305.313 49.2865C305.118 49.4692 304.966 49.6919 304.865 49.9393C304.765 50.1867 304.72 50.4528 304.732 50.7194V50.7221Z" fill="#595959"/>
<path d="M317.218 55.2074V39.4911H320.833V41.4496C321.28 40.6693 321.959 40.0474 322.776 39.6697C323.615 39.2527 324.539 39.0354 325.476 39.0348C326.478 39.0166 327.467 39.2562 328.349 39.7306C329.182 40.1835 329.844 40.8953 330.234 41.7581C330.751 40.8803 331.501 40.1617 332.4 39.6813C333.299 39.2009 334.313 38.9772 335.331 39.0348C336.024 39.0296 336.713 39.1495 337.363 39.3889C338.002 39.6283 338.589 39.9869 339.094 40.4453C339.65 40.966 340.074 41.6116 340.33 42.3285C340.647 43.1861 340.801 44.0949 340.786 45.0088V55.2074H337.267V45.5764C337.31 44.7242 337.042 43.8854 336.512 43.2162C336.225 42.9081 335.872 42.6683 335.48 42.5146C335.087 42.361 334.665 42.2974 334.245 42.3285C333.803 42.3134 333.363 42.3956 332.956 42.5694C332.549 42.7433 332.186 43.0047 331.892 43.3346C331.282 44.0199 330.957 44.9127 330.986 45.8292V55.2074H327.246V45.5764C327.286 44.7283 327.021 43.8938 326.498 43.2243C326.212 42.9123 325.858 42.6694 325.464 42.514C325.07 42.3586 324.646 42.295 324.224 42.3276C323.78 42.3094 323.339 42.3883 322.929 42.5587C322.52 42.7291 322.153 42.9868 321.854 43.3139C321.246 44.0087 320.928 44.9099 320.964 45.832V55.2099L317.218 55.2074Z" fill="#595959"/>
<path d="M343.48 61.3421V39.4914H347.126V41.597C347.586 40.8311 348.259 40.2152 349.063 39.8241C350.009 39.3461 351.057 39.1075 352.116 39.1292C353.12 39.0809 354.122 39.2621 355.046 39.659C355.969 40.0558 356.79 40.6579 357.445 41.4194C358.787 43.0882 359.476 45.187 359.385 47.3253C359.47 49.49 358.748 51.6093 357.358 53.2725C356.696 54.0382 355.869 54.6453 354.94 55.0488C354.01 55.4524 353.002 55.6421 351.989 55.6039C350.998 55.623 350.015 55.415 349.116 54.996C348.36 54.6538 347.706 54.1207 347.218 53.4491V61.3403L343.48 61.3421ZM347.189 47.328C347.127 48.6351 347.547 49.9195 348.37 50.9374C348.741 51.3804 349.206 51.734 349.733 51.9717C350.259 52.2093 350.833 52.3247 351.41 52.3094C351.989 52.3258 352.564 52.2117 353.093 51.9755C353.621 51.7394 354.089 51.3873 354.463 50.9454C355.289 49.9257 355.709 48.6379 355.644 47.328C355.706 46.0396 355.288 44.7741 354.471 43.7751C354.094 43.336 353.622 42.9872 353.092 42.7544C352.562 42.5216 351.986 42.4107 351.407 42.43C350.831 42.4141 350.258 42.5277 349.732 42.7625C349.206 42.9974 348.739 43.3475 348.367 43.7868C347.55 44.7803 347.13 46.0409 347.189 47.3253V47.328Z" fill="#595959"/>
<path d="M359.658 50.6877L362.909 49.7999C362.963 50.5157 363.298 51.1812 363.84 51.6517C364.476 52.1791 365.288 52.4469 366.114 52.4013C366.728 52.4361 367.338 52.2699 367.849 51.9279C368.042 51.7998 368.199 51.6265 368.309 51.4233C368.419 51.22 368.477 50.993 368.478 50.7621C368.479 50.5707 368.437 50.3815 368.357 50.2079C368.276 50.0343 368.158 49.8806 368.011 49.7578C367.611 49.4411 367.132 49.2378 366.626 49.1695L364.292 48.6458C363.092 48.425 361.994 47.826 361.16 46.9367C360.437 46.1296 360.045 45.0799 360.062 43.9972C360.062 43.3214 360.213 42.654 360.503 42.0438C360.794 41.4336 361.218 40.896 361.743 40.4703C362.881 39.4827 364.348 38.9576 365.854 38.9988C366.62 38.9901 367.382 39.0956 368.117 39.3117C368.707 39.4779 369.266 39.7387 369.772 40.0838C370.189 40.3836 370.559 40.7442 370.869 41.1536C371.141 41.5033 371.368 41.886 371.545 42.2925C371.684 42.6284 371.783 42.9797 371.84 43.3389L368.751 44.2267C368.717 43.9719 368.642 43.724 368.531 43.4923C368.402 43.2264 368.237 42.9791 368.042 42.757C367.8 42.4904 367.498 42.2859 367.161 42.1606C366.744 42.0004 366.3 41.9224 365.854 41.9311C365.267 41.9096 364.691 42.0975 364.229 42.4611C364.031 42.6068 363.869 42.7967 363.757 43.0157C363.644 43.2346 363.584 43.4767 363.582 43.7228C363.58 43.9173 363.617 44.1102 363.692 44.2897C363.767 44.4692 363.878 44.6315 364.018 44.7665C364.34 45.0722 364.747 45.273 365.185 45.3423L367.563 45.831C368.804 46.0342 369.953 46.6155 370.851 47.4953C371.6 48.2725 372.011 49.3146 371.993 50.3935C371.993 51.0436 371.866 51.6876 371.62 52.2893C371.365 52.9112 371.002 53.4832 370.548 53.9787C370.033 54.5254 369.402 54.9495 368.7 55.2198C367.886 55.5438 367.015 55.7043 366.138 55.6923C365.152 55.7079 364.171 55.5356 363.25 55.1848C362.489 54.9063 361.801 54.4596 361.238 53.8783C360.787 53.4016 360.409 52.8606 360.117 52.2731C359.874 51.775 359.719 51.2386 359.658 50.6877Z" fill="#595959"/>
<path d="M250.658 39.2043C250.675 39.1614 250.686 39.117 250.693 39.0716C250.807 38.2651 251.222 37.5316 251.856 37.019C252.305 36.6617 252.842 36.4315 253.41 36.3527C253.448 36.3471 253.485 36.3378 253.521 36.3249C253.632 36.3134 253.744 36.3077 253.856 36.3079C254.631 36.3034 255.38 36.5819 255.962 37.091C256.545 37.6002 256.921 38.3047 257.019 39.0716C257.03 39.1932 257.086 39.3064 257.177 39.3882C257.267 39.4701 257.386 39.5146 257.508 39.5128H257.624C257.746 39.515 257.865 39.4707 257.955 39.3887C258.046 39.3068 258.102 39.1934 258.112 39.0716C258.206 38.3065 258.578 37.6026 259.157 37.0932C259.737 36.5837 260.483 36.3043 261.254 36.3079C262.029 36.3034 262.778 36.5819 263.36 37.091C263.943 37.6002 264.319 38.3047 264.417 39.0716C264.428 39.1932 264.484 39.3064 264.575 39.3882C264.665 39.4701 264.784 39.5146 264.906 39.5128H264.996C265.118 39.515 265.237 39.4707 265.327 39.3887C265.418 39.3068 265.474 39.1934 265.484 39.0716C265.582 38.3081 265.955 37.6064 266.533 37.0977C267.112 36.589 267.856 36.3082 268.626 36.3079C269.459 36.3078 270.259 36.6335 270.854 37.2154C271.438 37.8109 271.764 38.6113 271.763 39.4447C271.763 40.2146 271.482 40.9582 270.973 41.536C270.463 42.1138 269.76 42.4861 268.995 42.5832C268.874 42.5932 268.76 42.6492 268.678 42.7398C268.596 42.8305 268.551 42.9489 268.554 43.0711V43.1607C268.552 43.2828 268.596 43.4009 268.678 43.4915C268.76 43.582 268.874 43.6381 268.995 43.6485C269.763 43.7464 270.469 44.1217 270.979 44.7036C271.489 45.2854 271.768 46.0336 271.763 46.8068C271.767 47.5778 271.487 48.3232 270.977 48.9017C270.467 49.4803 269.762 49.8516 268.995 49.9454C268.874 49.9554 268.76 50.0114 268.678 50.102C268.596 50.1926 268.551 50.3111 268.554 50.4332V50.5498C268.552 50.6718 268.597 50.7899 268.679 50.8803C268.761 50.9708 268.874 51.027 268.995 51.0376C269.763 51.1355 270.469 51.5108 270.979 52.0927C271.489 52.6745 271.768 53.4226 271.763 54.1959C271.763 54.2999 271.758 54.4022 271.748 54.5035C271.732 54.5464 271.719 54.5908 271.712 54.6362C271.599 55.4428 271.184 56.1765 270.55 56.6888C270.101 57.0462 269.564 57.2763 268.995 57.3551C268.958 57.361 268.922 57.37 268.886 57.382C268.774 57.3939 268.662 57.3999 268.549 57.3999C267.775 57.4044 267.026 57.1258 266.444 56.6167C265.861 56.1076 265.485 55.4031 265.387 54.6362C265.377 54.5146 265.32 54.4015 265.23 54.3196C265.139 54.2377 265.021 54.1932 264.899 54.195H264.782C264.66 54.1928 264.541 54.2372 264.45 54.3191C264.36 54.4011 264.304 54.5144 264.294 54.6362C264.2 55.4013 263.828 56.1055 263.249 56.6149C262.669 57.1244 261.923 57.4037 261.151 57.3999C260.377 57.4045 259.628 57.1259 259.045 56.6168C258.463 56.1076 258.087 55.4032 257.988 54.6362C257.978 54.5146 257.922 54.4015 257.831 54.3196C257.74 54.2377 257.622 54.1932 257.5 54.195H257.41C257.288 54.1928 257.169 54.2372 257.078 54.3191C256.988 54.4011 256.932 54.5144 256.922 54.6362C256.824 55.3999 256.451 56.1018 255.873 56.6106C255.294 57.1194 254.55 57.4 253.779 57.3999C252.945 57.4011 252.143 57.0752 251.546 56.4924C250.963 55.8967 250.637 55.0964 250.638 54.2632C250.638 53.4933 250.919 52.7499 251.428 52.1721C251.937 51.5944 252.64 51.2219 253.405 51.1246C253.527 51.1148 253.641 51.0589 253.723 50.9683C253.805 50.8776 253.85 50.7591 253.847 50.6368V50.5471C253.849 50.425 253.804 50.3068 253.722 50.2163C253.64 50.1258 253.527 50.0697 253.405 50.0593C252.637 49.9612 251.932 49.5858 251.422 49.004C250.912 48.4222 250.633 47.6741 250.638 46.901C250.634 46.1301 250.914 45.3847 251.424 44.8062C251.934 44.2276 252.639 43.8562 253.405 43.7624C253.527 43.7526 253.641 43.6967 253.723 43.6061C253.805 43.5155 253.85 43.3969 253.847 43.2746V43.158C253.849 43.0359 253.804 42.9177 253.722 42.8272C253.64 42.7367 253.527 42.6806 253.405 42.6702C252.637 42.5721 251.932 42.1967 251.422 41.6149C250.912 41.0331 250.633 40.285 250.638 39.5119C250.638 39.4079 250.643 39.3057 250.653 39.2043H250.658ZM253.413 35.3278C253.374 35.3177 253.334 35.3108 253.294 35.3071C252.236 35.4545 251.272 35.9954 250.596 36.8217C250.085 37.4297 249.756 38.1695 249.648 38.9559C249.65 38.9901 249.656 39.024 249.664 39.0573C249.65 39.1928 249.643 39.329 249.643 39.4653C249.65 40.2214 249.858 40.9621 250.246 41.6112C250.634 42.2602 251.189 42.7942 251.853 43.158C251.189 43.522 250.634 44.0561 250.246 44.7053C249.857 45.3545 249.649 46.0954 249.643 46.8517C249.65 47.6078 249.858 48.3485 250.246 48.9975C250.634 49.6466 251.189 50.1806 251.853 50.5444C251.185 50.9037 250.627 51.4367 250.238 52.087C249.849 52.7372 249.643 53.4805 249.643 54.238C249.643 54.3555 249.648 54.4712 249.657 54.5869C249.645 54.6403 249.64 54.6954 249.645 54.7501C249.768 55.6733 250.194 56.5299 250.855 57.1865C251.512 57.8471 252.37 58.2721 253.294 58.3953C253.35 58.3998 253.405 58.3956 253.459 58.3828C253.574 58.3926 253.69 58.3971 253.808 58.3971C254.566 58.3968 255.31 58.1915 255.961 57.803C256.612 57.4144 257.146 56.8571 257.505 56.1902C257.869 56.8532 258.404 57.4072 259.054 57.7951C259.704 58.183 260.445 58.3908 261.202 58.3971C261.96 58.391 262.701 58.1832 263.352 57.7953C264.002 57.4074 264.536 56.8533 264.9 56.1902C265.265 56.8532 265.799 57.4072 266.449 57.7951C267.099 58.183 267.841 58.3908 268.598 58.3971C268.731 58.3971 268.867 58.3908 268.995 58.3783C269.034 58.3885 269.074 58.3951 269.114 58.398C270.171 58.2505 271.133 57.7099 271.807 56.8843C272.319 56.2764 272.648 55.5366 272.756 54.7501C272.754 54.7159 272.748 54.6821 272.74 54.6488C272.754 54.5143 272.76 54.3798 272.76 54.2408C272.754 53.4847 272.546 52.744 272.157 52.095C271.769 51.4459 271.215 50.9119 270.551 50.548C271.215 50.184 271.769 49.6499 272.158 49.0007C272.546 48.3514 272.754 47.6106 272.76 46.8544C272.754 46.0983 272.546 45.3576 272.157 44.7086C271.769 44.0595 271.215 43.5255 270.551 43.1616C271.219 42.8022 271.777 42.2692 272.165 41.6189C272.554 40.9686 272.76 40.2254 272.76 39.468C272.76 39.3505 272.755 39.2339 272.746 39.1191C272.758 39.0656 272.763 39.0107 272.759 38.9559C272.636 38.0324 272.21 37.1756 271.548 36.5195C270.891 35.8586 270.034 35.4335 269.109 35.3107C269.054 35.3062 268.999 35.3104 268.945 35.3233C268.83 35.3134 268.713 35.3089 268.596 35.3089C267.838 35.3092 267.094 35.5145 266.443 35.9031C265.792 36.2916 265.258 36.8489 264.899 37.5158C264.534 36.8527 264 36.2986 263.35 35.9107C262.7 35.5228 261.958 35.3151 261.201 35.3089C260.444 35.3152 259.702 35.523 259.052 35.9109C258.402 36.2988 257.868 36.8528 257.503 37.5158C257.139 36.8527 256.604 36.2986 255.954 35.9107C255.304 35.5228 254.562 35.3151 253.805 35.3089C253.672 35.3089 253.536 35.3152 253.408 35.3278H253.413Z" fill="#595959"/>
<path d="M269.138 59.1854L269.055 59.1791C269.021 59.1791 268.986 59.1719 268.952 59.1675C268.836 59.1755 268.717 59.18 268.599 59.18C267.689 59.1787 266.796 58.9257 266.02 58.4492C265.607 58.1967 265.232 57.8869 264.906 57.5291C264.437 58.045 263.865 58.4581 263.228 58.7422C262.591 59.0264 261.902 59.1754 261.204 59.18C260.293 59.1787 259.401 58.9257 258.625 58.4492C258.213 58.1971 257.839 57.8883 257.513 57.5318C257.19 57.889 256.818 58.1979 256.407 58.4492C255.625 58.9271 254.726 59.18 253.81 59.18C253.706 59.18 253.601 59.18 253.496 59.1702C253.41 59.1809 253.323 59.1827 253.236 59.1755H253.214H253.191C252.64 59.1017 252.105 58.9372 251.608 58.6886C251.125 58.4463 250.685 58.1275 250.304 57.7444C249.92 57.3642 249.601 56.9241 249.359 56.4414C249.11 55.9452 248.944 55.4109 248.871 54.8605V54.838V54.8156C248.865 54.7289 248.866 54.6419 248.876 54.5556C248.87 54.4516 248.867 54.3466 248.867 54.2435C248.867 53.328 249.12 52.4302 249.598 51.6492C249.849 51.2382 250.159 50.8658 250.517 50.5436C250.16 50.2189 249.85 49.8451 249.598 49.4334C249.121 48.6584 248.868 47.7668 248.867 46.8571C248.872 46.1603 249.021 45.4719 249.305 44.8355C249.59 44.1992 250.003 43.6286 250.519 43.1599C250.161 42.8343 249.851 42.4597 249.598 42.047C249.121 41.272 248.868 40.3804 248.867 39.4707C248.867 39.3461 248.872 39.2205 248.882 39.0959C248.878 39.0708 248.875 39.0457 248.873 39.0206L248.867 38.9381L248.878 38.8555C249.006 37.9245 249.395 37.0486 249.999 36.3286C250.799 35.3487 251.941 34.7079 253.195 34.5351L253.277 34.5234L253.361 34.5297C253.395 34.5297 253.429 34.5369 253.463 34.5414C253.581 34.5333 253.699 34.5288 253.816 34.5288C254.727 34.5304 255.62 34.7833 256.396 35.2597C256.809 35.5122 257.184 35.822 257.51 36.1797C257.979 35.6639 258.55 35.2508 259.187 34.9666C259.824 34.6825 260.514 34.5334 261.211 34.5288C262.122 34.5304 263.015 34.7833 263.792 35.2597C264.203 35.5118 264.578 35.8206 264.903 36.177C265.226 35.8199 265.598 35.511 266.009 35.2597C266.791 34.7817 267.69 34.5287 268.607 34.5288C268.711 34.5288 268.816 34.5288 268.919 34.5387C269.006 34.5279 269.093 34.5261 269.18 34.5333H269.202H269.224C269.775 34.607 270.31 34.7715 270.807 35.0202C271.291 35.2622 271.732 35.5811 272.113 35.9645C272.497 36.3443 272.816 36.7845 273.057 37.2674C273.306 37.7638 273.471 38.2981 273.545 38.8484V38.8708V38.8932C273.551 38.9799 273.549 39.067 273.538 39.1533C273.545 39.2573 273.548 39.3613 273.548 39.4653C273.548 40.3809 273.295 41.2787 272.816 42.0596C272.565 42.4706 272.256 42.843 271.898 43.1652C272.256 43.4897 272.565 43.8636 272.816 44.2754C273.294 45.0503 273.547 45.942 273.548 46.8517C273.544 47.5487 273.394 48.2371 273.11 48.8735C272.825 49.5099 272.412 50.0804 271.895 50.549C272.254 50.8741 272.564 51.2485 272.816 51.6609C273.293 52.4362 273.547 53.3281 273.548 54.2381C273.548 54.3628 273.544 54.4883 273.534 54.6121C273.534 54.6372 273.54 54.6632 273.542 54.6883L273.548 54.7708L273.536 54.8533C273.409 55.7842 273.02 56.6602 272.416 57.3803C271.616 58.3603 270.474 59.0012 269.22 59.1737L269.138 59.1854ZM266.168 54.5439C266.243 55.121 266.527 55.6506 266.966 56.0326C267.406 56.4147 267.97 56.6226 268.553 56.6171C268.616 56.6171 268.679 56.6172 268.742 56.61C268.784 56.5992 268.827 56.5902 268.87 56.5831H268.893C269.32 56.5233 269.723 56.3502 270.06 56.0818C270.539 55.6955 270.852 55.1418 270.937 54.5331V54.5107C270.946 54.4575 270.958 54.4048 270.972 54.3529C270.972 54.3018 270.978 54.2498 270.978 54.1987C270.983 53.6166 270.775 53.0528 270.392 52.6138C270.009 52.1748 269.479 51.891 268.901 51.816C268.589 51.7835 268.3 51.6362 268.09 51.4026C267.881 51.1691 267.766 50.8661 267.768 50.5525V50.436C267.766 50.129 267.876 49.8318 268.078 49.6005C268.28 49.3692 268.559 49.2198 268.864 49.1805H268.887H268.91C269.483 49.1059 270.008 48.8251 270.389 48.3909C270.769 47.9568 270.977 47.3989 270.975 46.8221C270.98 46.2401 270.772 45.6763 270.389 45.2373C270.007 44.7983 269.476 44.5145 268.898 44.4395C268.586 44.407 268.297 44.2596 268.088 44.0261C267.878 43.7926 267.763 43.4896 267.765 43.176V43.0864C267.763 42.7794 267.873 42.4822 268.075 42.2509C268.277 42.0195 268.557 41.8702 268.862 41.8309H268.884H268.907C269.477 41.7505 270 41.4681 270.379 41.0351C270.758 40.6022 270.969 40.0476 270.972 39.4725C270.974 38.8463 270.73 38.2445 270.293 37.7956C269.843 37.3588 269.241 37.1152 268.614 37.1168C268.036 37.1146 267.478 37.3228 267.043 37.7025C266.608 38.0822 266.327 38.6073 266.252 39.1793V39.2026V39.225C266.213 39.5294 266.064 39.8089 265.832 40.0107C265.6 40.2124 265.303 40.3225 264.996 40.3199H264.906C264.592 40.3219 264.288 40.2071 264.054 39.9979C263.82 39.7888 263.673 39.5002 263.64 39.1882C263.565 38.611 263.281 38.0813 262.841 37.6991C262.402 37.3169 261.837 37.1088 261.254 37.1141C260.677 37.1119 260.118 37.3201 259.684 37.6999C259.249 38.0796 258.968 38.6046 258.893 39.1766V39.1999V39.2223C258.854 39.5267 258.704 39.8062 258.473 40.008C258.241 40.2097 257.943 40.3197 257.636 40.3172H257.52C257.206 40.3192 256.903 40.2044 256.669 39.9952C256.435 39.7861 256.287 39.4975 256.254 39.1856C256.179 38.6083 255.895 38.0786 255.456 37.6964C255.016 37.3143 254.452 37.1061 253.869 37.1114C253.806 37.1114 253.742 37.1114 253.679 37.1195C253.638 37.1303 253.595 37.1392 253.552 37.1464H253.529C253.102 37.2059 252.698 37.379 252.362 37.6477C251.882 38.0335 251.569 38.5874 251.484 39.1963V39.2187C251.476 39.2719 251.464 39.3246 251.449 39.3766C251.449 39.4277 251.445 39.4797 251.445 39.5308C251.44 40.1127 251.648 40.6764 252.03 41.1154C252.413 41.5544 252.943 41.8383 253.521 41.9134C253.833 41.9459 254.122 42.0933 254.331 42.3268C254.541 42.5604 254.656 42.8634 254.654 43.1769V43.2935C254.656 43.6003 254.546 43.8974 254.344 44.1287C254.143 44.36 253.863 44.5095 253.558 44.5489H253.535H253.512C252.939 44.6234 252.413 44.9041 252.033 45.3383C251.653 45.7726 251.444 46.3305 251.447 46.9073C251.441 47.4892 251.649 48.0528 252.032 48.4917C252.414 48.9306 252.945 49.2143 253.522 49.289C253.835 49.322 254.123 49.4696 254.333 49.7032C254.542 49.9369 254.657 50.2399 254.655 50.5534V50.6431C254.658 50.9499 254.548 51.247 254.346 51.4783C254.144 51.7096 253.865 51.8591 253.56 51.8985H253.537H253.513C252.943 51.979 252.421 52.2614 252.042 52.6943C251.663 53.1273 251.452 53.6818 251.448 54.257C251.447 54.8829 251.691 55.4845 252.128 55.9329C252.577 56.3701 253.18 56.6138 253.807 56.6118C254.383 56.6078 254.938 56.3973 255.371 56.0187C255.805 55.6402 256.088 55.1187 256.168 54.5493V54.526L256.173 54.5026C256.212 54.1984 256.362 53.9191 256.593 53.7175C256.825 53.516 257.123 53.4061 257.43 53.4086H257.519C257.833 53.4067 258.137 53.5215 258.371 53.7307C258.605 53.9398 258.753 54.2284 258.785 54.5403C258.86 55.1174 259.145 55.6471 259.584 56.0291C260.024 56.4112 260.588 56.6191 261.171 56.6136C261.748 56.616 262.307 56.4078 262.742 56.028C263.177 55.6483 263.458 55.1231 263.532 54.5511V54.5278L263.537 54.5054C263.576 54.2009 263.725 53.9214 263.957 53.7197C264.189 53.5179 264.486 53.4079 264.794 53.4104H264.91C265.223 53.4106 265.525 53.5265 265.757 53.7358C265.99 53.9452 266.136 54.2331 266.168 54.5439Z" fill="#595959"/>
<path d="M261.215 49.9123C260.648 49.9139 260.086 49.8032 259.562 49.5864C259.038 49.3697 258.562 49.0513 258.162 48.6497C257.76 48.2502 257.442 47.7751 257.225 47.2517C257.008 46.7284 256.897 46.1672 256.898 45.6008C256.898 45.3469 256.999 45.1035 257.179 44.9239C257.358 44.7443 257.602 44.6433 257.856 44.6431C258.11 44.6433 258.354 44.7443 258.534 44.9239C258.713 45.1035 258.814 45.3469 258.814 45.6008C258.815 46.2364 259.068 46.8456 259.518 47.295C259.969 47.7443 260.579 47.9971 261.215 47.9978C261.851 47.9971 262.461 47.7443 262.911 47.295C263.362 46.8456 263.615 46.2364 263.616 45.6008C263.616 45.4751 263.64 45.3506 263.688 45.2344C263.736 45.1182 263.807 45.0126 263.896 44.9236C263.985 44.8347 264.091 44.7641 264.207 44.716C264.323 44.6679 264.448 44.6431 264.574 44.6431C264.828 44.6433 265.072 44.7443 265.251 44.9239C265.431 45.1035 265.532 45.3469 265.532 45.6008C265.533 46.1672 265.422 46.7283 265.205 47.2517C264.988 47.775 264.67 48.2502 264.268 48.6497C263.868 49.0513 263.392 49.3696 262.868 49.5864C262.344 49.8031 261.782 49.9139 261.215 49.9123Z" fill="#595959"/>
<path d="M505.851 58.3279V58.5186H497.717V58.3279C498.631 58.1691 498.991 57.9465 499.089 57.2475V46.6965C499.089 44.7567 498.371 43.8032 496.901 43.8032C496.415 43.8128 495.944 43.9717 495.557 44.2572C495.169 44.5426 494.884 44.9401 494.743 45.3927C494.809 45.7601 494.842 46.1326 494.841 46.5058V56.425C494.841 57.6012 495.2 58.0784 496.309 58.3321V58.5228H488.535V58.3279C489.645 58.0759 490.002 57.597 490.002 56.4208V46.6923C490.002 44.7525 489.25 43.799 487.813 43.799C487.356 43.8031 486.912 43.9463 486.543 44.2087C486.174 44.471 485.898 44.8392 485.755 45.2616V56.4208C485.755 57.597 486.114 58.0742 487.223 58.3279V58.5186H478.991V58.3279C480.265 58.0423 480.918 57.5012 480.918 56.2276V46.0925C480.918 44.4072 480.461 43.8981 478.991 43.7712V43.5805L485.753 41.7684V44.7567C486.038 43.8449 486.625 43.0508 487.423 42.4985C488.221 41.9463 489.184 41.667 490.163 41.7045C492.612 41.7045 494.148 42.9126 494.637 44.8844C494.956 43.9389 495.579 43.1187 496.415 42.5458C497.251 41.9729 498.254 41.6778 499.276 41.7045C502.315 41.7045 503.915 43.6124 503.915 46.5058V56.2343C503.923 57.5054 504.577 58.0465 505.851 58.3279Z" fill="#595959"/>
<path d="M523.132 55.0577C522.577 57.662 520.846 59.0003 518.558 59.0003C518.145 59.037 517.729 58.9935 517.334 58.8722C516.939 58.751 516.573 58.5544 516.257 58.2941C515.941 58.0337 515.681 57.7147 515.493 57.3557C515.304 56.9966 515.191 56.6047 515.16 56.2028L515.095 55.9507C514.797 56.8727 514.192 57.6723 513.377 58.2241C512.561 58.776 511.581 59.049 510.589 59.0003C510.028 59.0428 509.464 58.9714 508.932 58.7906C508.401 58.6097 507.914 58.3234 507.503 57.9498C507.091 57.5762 506.764 57.1234 506.542 56.6202C506.319 56.117 506.207 55.5743 506.212 55.0266C506.212 52.1971 508.564 50.353 512.32 49.5894L515.031 49.0492V48.3771C515.031 45.929 514.117 44.2445 511.372 44.2445C509.25 44.2445 507.747 45.23 507.028 47.71L506.769 47.6462C507.287 43.99 509.774 41.7007 513.629 41.7007C517.973 41.7007 519.868 44.4033 519.868 48.4728V54.8628C519.868 55.9759 520.423 56.548 521.142 56.548C521.763 56.548 522.481 56.1986 522.84 55.0224L523.132 55.0577ZM515.031 55.408V49.8431L513.757 50.0657C511.209 50.5748 510.72 52.1324 510.72 53.69C510.72 55.3114 511.536 56.5833 513.104 56.5833C513.512 56.6134 513.919 56.5156 514.266 56.3041C514.613 56.0926 514.881 55.7786 515.031 55.408Z" fill="#595959"/>
<path d="M540.871 58.3282V58.5189H532.64V58.3282C533.718 58.0762 534.107 57.5973 534.107 56.4211V46.7287C534.107 44.7889 533.356 43.8034 531.821 43.8034C531.3 43.7991 530.79 43.9446 530.354 44.2217C529.918 44.4989 529.576 44.8953 529.371 45.361V56.4253C529.371 57.6015 529.73 58.0787 530.838 58.3324V58.5231H522.608V58.3282C523.882 58.0426 524.535 57.5015 524.535 56.2279V46.0927C524.535 44.4075 524.078 43.8983 522.608 43.7715V43.5808L529.37 41.7687V44.8863C529.701 43.9164 530.351 43.0795 531.219 42.5045C532.088 41.9296 533.126 41.6486 534.175 41.7048C537.282 41.7048 538.944 43.5531 538.944 46.5372V56.2346C538.945 57.5057 539.598 58.0468 540.871 58.3282Z" fill="#595959"/>
<path d="M551.978 54.7718C551.26 57.0922 549.496 59.0001 546.654 59.0001C543.91 59.0001 542.603 57.3149 542.603 54.8357V42.8808H540.709V42.722C543.312 41.2942 545.572 39.3437 547.34 37H547.471V42.2457H550.77V42.8808H547.467V54.1039C547.467 55.5666 548.088 56.552 549.296 56.552C549.858 56.5511 550.402 56.3652 550.841 56.0245C551.28 55.6839 551.587 55.2085 551.713 54.676L551.978 54.7718Z" fill="#595959"/>
<path d="M565.536 52.7689C564.719 57.3467 561.747 59.0001 558.905 59.0001C555.115 59.0001 551.654 56.1386 551.654 50.6703C551.654 45.4565 554.627 41.7046 559.102 41.7046C562.27 41.7046 565.537 43.6444 565.504 48.8901H555.443C555.77 52.9596 557.926 55.217 561.095 55.217C561.981 55.2964 562.871 55.0947 563.63 54.642C564.389 54.1893 564.978 53.5099 565.308 52.7051L565.536 52.7689ZM555.409 47.7425V48.092H561.06C561.093 44.0225 560.015 42.5918 558.384 42.5918C556.553 42.5951 555.409 44.566 555.409 47.7425Z" fill="#595959"/>
<path d="M578.048 41.7046V46.2832H577.885C577.351 46.0549 576.768 45.9565 576.186 45.9967C574.063 45.9967 572.658 47.1099 572.658 51.3382V56.2344C572.658 57.6626 573.475 58.1095 575.238 58.3347V58.5254H565.896V58.328C567.17 58.0423 567.824 57.5013 567.824 56.2277V46.3782C567.824 44.566 567.333 43.9301 565.896 43.8032V43.6125L572.462 41.7685V48.8901H572.626C572.885 43.7713 574.847 41.7046 577.689 41.7046H578.048Z" fill="#595959"/>
<path d="M576.611 56.3294C576.622 55.6362 576.913 54.9749 577.42 54.4879C577.927 54.0009 578.61 53.727 579.322 53.7251C580.029 53.7342 580.704 54.0115 581.204 54.498C581.704 54.9844 581.989 55.6416 581.998 56.3294C582.002 57.0244 581.722 57.6925 581.22 58.1871C580.719 58.6818 580.036 58.9627 579.322 58.9682C578.966 58.9691 578.613 58.9015 578.283 58.7692C577.954 58.6369 577.655 58.4425 577.403 58.1973C577.151 57.9521 576.951 57.6609 576.815 57.3403C576.679 57.0198 576.61 56.6762 576.611 56.3294Z" fill="#595959"/>
<path d="M695.034 56.7207C699.156 56.7207 702.709 54.6174 702.709 50.9224C702.709 42.7364 691.225 46.6588 691.225 40.5478C691.225 38.9277 692.277 37.6202 694.437 37.6202C698.587 37.6202 697.535 42.6796 700.605 42.6796C701.827 42.6796 702.424 41.9974 702.424 40.9173C702.453 38.5582 699.298 36 694.523 36C689.833 36 686.99 38.5013 686.99 41.9121C687.019 50.3254 698.502 46.1757 698.502 52.2298C698.502 53.9637 697.194 55.1006 695.205 55.1006C690.401 55.1006 691.169 49.9275 688.326 49.8707C687.161 49.8707 686.621 50.6097 686.621 51.6045C686.621 53.8784 689.634 56.7207 695.034 56.7207ZM717.037 53.5373V43.1343C717.037 42.6512 716.696 42.5375 715.957 42.6227L712.319 43.1627C711.978 43.2196 711.751 43.4754 711.751 43.7597V43.8449C711.751 44.4703 712.888 44.7544 712.888 46.0051V51.775C712.888 53.7931 711.807 55.1006 710.443 55.1006C708.88 55.1006 708.084 53.8784 708.084 51.235L708.169 43.1343C708.169 42.6512 707.743 42.5375 707.004 42.6227L703.422 43.1627C703.053 43.2196 702.826 43.4754 702.826 43.7597V43.8449C702.826 44.4703 703.934 44.7544 703.934 46.0051V50.8087C703.934 54.7027 706.293 56.7207 709.221 56.7207C711.182 56.7207 712.575 56.0102 713.342 54.7596C713.428 56.1523 714.252 56.6071 715.872 56.6071C717.464 56.6071 718.402 56.4365 718.402 55.7828C718.402 54.7311 717.037 55.7828 717.037 53.5373ZM730.964 42.7933C728.065 42.7933 727.126 42.509 725.307 42.509C721.328 42.509 718.571 44.925 718.571 48.4779C718.571 51.7182 721.413 54.1058 725.222 54.1058C725.592 54.1058 725.961 54.0774 726.331 54.0489C727.439 54.2763 728.093 55.2427 728.093 56.6639C728.093 58.2557 726.984 59.3357 725.222 59.3357C721.897 59.2789 722.522 55.0153 720.191 55.0153C719.026 55.0153 718.514 55.8112 718.514 56.6071C718.514 58.8241 720.959 60.5295 725.137 60.5295C729.173 60.5295 732.271 58.9662 732.271 56.5502C732.271 55.0437 731.39 53.8784 728.86 53.3099C730.822 52.372 732.044 50.6097 732.044 48.3642C732.044 46.9999 731.362 45.664 730.452 44.726C731.333 44.4703 732.413 44.5839 732.612 43.6459C732.783 43.1343 732.499 42.7933 730.964 42.7933ZM722.579 46.602C722.579 44.8681 723.375 43.7597 724.682 43.7597C726.672 43.7597 728.008 47.2557 728.008 49.9844C728.008 51.6613 727.212 52.8268 725.847 52.8268C724.057 52.8268 722.579 49.6149 722.579 46.602ZM745.911 53.5941L745.286 48.3358C744.888 44.7544 742.386 42.509 738.691 42.509C735.735 42.509 733.234 43.7028 733.234 45.7493C733.234 46.7157 733.916 47.341 734.939 47.341C737.071 47.341 736.417 43.7028 738.691 43.7028C740.425 43.7028 740.88 45.2945 741.221 48.62L741.249 48.9611C740.51 48.4495 739.459 48.1084 738.151 48.1084C735.366 48.1084 732.978 49.5865 733.007 52.4288C733.007 55.2711 735.281 56.7207 738.35 56.7207C740.311 56.7207 741.505 56.0102 742.131 55.0721C742.301 56.2944 743.04 56.6071 744.66 56.6071C746.025 56.6071 747.389 56.4365 747.389 55.7828C747.389 55.0153 746.138 55.5554 745.911 53.5941ZM739.601 55.4701C738.151 55.4701 737.213 53.7363 737.213 51.775C737.213 50.3254 738.094 49.3875 739.288 49.3875C740.454 49.3875 741.363 50.2402 741.534 51.9172L741.619 52.912C741.704 54.1911 740.908 55.4701 739.601 55.4701ZM755.834 42.509C753.93 42.509 752.594 43.5038 751.969 45.3229V43.1911C751.969 42.6512 751.713 42.3101 751.059 42.6227L747.649 44.2144C747.279 44.385 747.052 44.6123 747.052 44.8966V45.0103C747.052 45.7209 748.359 45.8062 748.359 47.0568V53.7078C748.359 54.9017 747.251 55.129 747.251 55.8396V55.9533C747.251 56.266 747.506 56.4365 747.904 56.4365H753.163C753.532 56.4365 753.788 56.266 753.788 55.9533V55.8396C753.788 55.129 752.367 54.9017 752.367 53.7078V48.0232C752.367 46.4598 752.765 44.8966 753.873 44.8966C755.408 44.8966 754.413 47.341 756.63 47.341C757.995 47.341 758.449 46.2894 758.449 45.0955C758.449 43.6459 757.511 42.509 755.834 42.509ZM765.068 56.7207C768.764 56.7207 770.697 54.4185 770.867 52.0877C770.923 51.4625 770.213 51.3488 769.872 51.8035C769.276 52.8268 768.195 53.7931 766.461 53.7931C763.562 53.7931 761.629 51.3203 761.629 47.54C761.629 45.4366 762.653 43.7597 764.272 43.7597C766.746 43.7312 766.575 47.7674 769.02 47.9095C770.327 47.9664 770.782 47.2273 770.782 46.4883C770.782 44.2713 768.167 42.4806 764.897 42.509C761.061 42.5375 757.735 45.2092 757.735 49.5865C757.735 53.4236 760.776 56.7207 765.068 56.7207ZM784.108 53.5941L783.483 48.3358C783.085 44.7544 780.584 42.509 776.889 42.509C773.933 42.509 771.431 43.7028 771.431 45.7493C771.431 46.7157 772.113 47.341 773.137 47.341C775.268 47.341 774.615 43.7028 776.889 43.7028C778.623 43.7028 779.077 45.2945 779.418 48.62L779.447 48.9611C778.708 48.4495 777.656 48.1084 776.349 48.1084C773.563 48.1084 771.176 49.5865 771.204 52.4288C771.204 55.2711 773.478 56.7207 776.548 56.7207C778.508 56.7207 779.702 56.0102 780.328 55.0721C780.498 56.2944 781.238 56.6071 782.857 56.6071C784.222 56.6071 785.586 56.4365 785.586 55.7828C785.586 55.0153 784.336 55.5554 784.108 53.5941ZM777.798 55.4701C776.349 55.4701 775.411 53.7363 775.411 51.775C775.411 50.3254 776.292 49.3875 777.486 49.3875C778.651 49.3875 779.56 50.2402 779.731 51.9172L779.816 52.912C779.901 54.1911 779.105 55.4701 777.798 55.4701ZM800.114 53.6794L799.773 48.5632C799.432 44.0439 796.931 42.509 794.344 42.509C792.412 42.509 790.905 43.3617 790.138 44.8113V43.2196C790.138 42.6796 789.826 42.2816 789.171 42.6227L785.789 44.2713C785.448 44.4418 785.221 44.5839 785.221 44.8681V44.9818C785.221 45.6925 786.613 45.8062 786.613 47.0852V53.7078C786.613 54.9301 785.391 55.1574 785.391 55.868V55.9817C785.391 56.266 785.647 56.465 786.044 56.465H791.332C791.729 56.465 791.985 56.266 791.985 55.9817V55.868C791.985 55.1574 790.763 54.9301 790.763 53.7078V47.2557C790.763 45.4082 791.644 44.1292 793.179 44.1292C794.686 44.1292 795.511 45.3798 795.652 48.4211L795.936 53.6794C795.993 54.9301 794.913 55.1574 794.913 55.868V55.9817C794.913 56.266 795.169 56.465 795.567 56.465H800.484C800.882 56.465 801.138 56.266 801.138 55.9817V55.868C801.138 55.1574 800.2 54.9301 800.114 53.6794ZM812.864 52.1161C812.324 52.9973 811.13 53.7647 809.624 53.7647C807.918 53.7647 806.611 52.8552 805.872 51.2919L812.182 48.4211C812.95 48.08 813.432 47.5116 813.432 46.5451C813.432 44.6692 811.785 42.509 808.061 42.509C804.337 42.509 801.182 45.3798 801.182 49.5012C801.182 53.8784 804.11 56.7207 808.061 56.7207C811.727 56.7207 813.66 54.0774 813.831 52.4288C813.859 51.8319 813.205 51.6898 812.864 52.1161ZM807.549 43.7597C809.084 43.7597 809.823 45.7777 809.823 46.8009C809.823 47.3979 809.596 47.8811 809.084 48.1368L805.417 49.9844C805.219 49.2454 805.133 48.4211 805.133 47.54C805.133 45.3798 806.043 43.7597 807.549 43.7597Z" fill="#595959"/>
</svg>
