<svg width="64" height="64" viewBox="0 0 64 64" fill="none" xmlns="http://www.w3.org/2000/svg">
<rect width="64" height="64" rx="32" fill="#242B1E"/>
<path d="M37 24.5C36.337 24.5 35.7011 24.2366 35.2322 23.7678C34.7634 23.2989 34.5 22.663 34.5 22V18.5H23C22.6022 18.5 22.2206 18.658 21.9393 18.9393C21.658 19.2206 21.5 19.6022 21.5 20V44C21.5 44.3978 21.658 44.7794 21.9393 45.0607C22.2206 45.342 22.6022 45.5 23 45.5H33.53C32.867 44.4538 32.5198 43.2386 32.53 42C32.5326 40.2821 33.2142 38.6348 34.4261 37.4173C35.638 36.1997 37.2821 35.5106 39 35.5C39.5055 35.4982 40.0093 35.5587 40.5 35.68V24.5H37ZM31 36.5H25C24.8674 36.5 24.7402 36.4473 24.6464 36.3536C24.5527 36.2598 24.5 36.1326 24.5 36C24.5 35.8674 24.5527 35.7402 24.6464 35.6464C24.7402 35.5527 24.8674 35.5 25 35.5H31C31.1326 35.5 31.2598 35.5527 31.3536 35.6464C31.4473 35.7402 31.5 35.8674 31.5 36C31.5 36.1326 31.4473 36.2598 31.3536 36.3536C31.2598 36.4473 31.1326 36.5 31 36.5ZM37 32.5H25C24.8674 32.5 24.7402 32.4473 24.6464 32.3536C24.5527 32.2598 24.5 32.1326 24.5 32C24.5 31.8674 24.5527 31.7402 24.6464 31.6464C24.7402 31.5527 24.8674 31.5 25 31.5H37C37.1326 31.5 37.2598 31.5527 37.3536 31.6464C37.4473 31.7402 37.5 31.8674 37.5 32C37.5 32.1326 37.4473 32.2598 37.3536 32.3536C37.2598 32.4473 37.1326 32.5 37 32.5ZM37 28.5H25C24.8674 28.5 24.7402 28.4473 24.6464 28.3536C24.5527 28.2598 24.5 28.1326 24.5 28C24.5 27.8674 24.5527 27.7402 24.6464 27.6464C24.7402 27.5527 24.8674 27.5 25 27.5H37C37.1326 27.5 37.2598 27.5527 37.3536 27.6464C37.4473 27.7402 37.5 27.8674 37.5 28C37.5 28.1326 37.4473 28.2598 37.3536 28.3536C37.2598 28.4473 37.1326 28.5 37 28.5Z" fill="#D4F70E"/>
<path d="M40.85 36.82L40.71 36.77C40.1572 36.593 39.5805 36.5019 39 36.5C37.9495 36.5007 36.9212 36.8023 36.0367 37.369C35.1522 37.9358 34.4485 38.7439 34.0088 39.698C33.5692 40.652 33.4119 41.712 33.5556 42.7526C33.6994 43.7932 34.1381 44.7709 34.82 45.57L34.88 45.64C35.4359 46.2651 36.1271 46.7552 36.901 47.0729C37.6749 47.3906 38.511 47.5276 39.3458 47.4735C40.1806 47.4194 40.9921 47.1755 41.7184 46.7605C42.4448 46.3455 43.0669 45.7703 43.5374 45.0786C44.0079 44.3869 44.3145 43.597 44.4337 42.769C44.553 41.941 44.4818 41.0967 44.2255 40.3003C43.9693 39.504 43.5347 38.7766 42.955 38.1735C42.3753 37.5704 41.6656 37.1075 40.88 36.82H40.85ZM41 42.5H39.5V44C39.5 44.1326 39.4473 44.2598 39.3536 44.3536C39.2598 44.4473 39.1326 44.5 39 44.5C38.8674 44.5 38.7402 44.4473 38.6464 44.3536C38.5527 44.2598 38.5 44.1326 38.5 44V42.5H36.88C36.7691 42.4726 36.6708 42.4081 36.6017 42.3171C36.5326 42.2261 36.4967 42.1142 36.5 42C36.5 41.8674 36.5527 41.7402 36.6464 41.6464C36.7402 41.5527 36.8674 41.5 37 41.5H38.5V40C38.4971 39.8896 38.5323 39.7817 38.5997 39.6942C38.6671 39.6068 38.7625 39.5453 38.87 39.52H39C39.1326 39.52 39.2598 39.5727 39.3536 39.6664C39.4473 39.7602 39.5 39.8874 39.5 40.02V41.52H41C41.1326 41.52 41.2598 41.5727 41.3536 41.6664C41.4473 41.7602 41.5 41.8874 41.5 42.02C41.5 42.1526 41.4473 42.2798 41.3536 42.3736C41.2598 42.4673 41.1326 42.52 41 42.52V42.5Z" fill="#D4F70E"/>
<path d="M39.79 23.5H37C36.6022 23.5 36.2206 23.3419 35.9393 23.0606C35.658 22.7793 35.5 22.3978 35.5 22V19.21L39.79 23.5Z" fill="#D4F70E"/>
</svg>
