<svg width="64" height="64" viewBox="0 0 64 64" fill="none" xmlns="http://www.w3.org/2000/svg">
<rect width="64" height="64" rx="32" fill="#242B1E"/>
<path d="M43.8669 29.7354C40.0057 38.24 38.7494 38.24 37.9999 38.24H30.6153C28.0289 38.24 26.047 36.6579 25.5661 34.208C25.5513 34.1331 24.0892 26.6691 23.7154 24.584C23.5317 23.5616 23.0646 22.88 21.3846 22.88C20.6194 22.88 20 22.2358 20 21.44C20 20.6442 20.6194 20 21.3846 20C24.1723 20 25.9667 21.44 26.4375 24.055C26.8076 26.1181 28.2652 33.5571 28.2799 33.633C28.5744 35.1363 29.8695 35.361 30.6153 35.361H37.6352C38.3894 34.5181 40.1081 31.2704 41.3626 28.5056C41.6894 27.7866 42.5155 27.4803 43.206 27.8182C43.8983 28.1571 44.1936 29.0154 43.8669 29.7354ZM29.6922 39.2C28.4175 39.2 27.3846 40.2742 27.3846 41.6C27.3846 42.9258 28.4175 44 29.6922 44C30.967 44 31.9999 42.9258 31.9999 41.6C31.9999 40.2742 30.967 39.2 29.6922 39.2ZM37.9999 39.2C36.7251 39.2 35.6922 40.2742 35.6922 41.6C35.6922 42.9258 36.7251 44 37.9999 44C39.2746 44 40.3075 42.9258 40.3075 41.6C40.3075 40.2742 39.2746 39.2 37.9999 39.2ZM33.535 31.3702C33.6273 31.448 33.7408 31.4854 33.8543 31.4854C33.9679 31.4854 34.0796 31.448 34.1737 31.3702C34.266 31.2944 36.7842 28.7398 38.1577 26.6144C38.2638 26.4493 38.274 26.2381 38.1835 26.0634C38.0958 25.8896 37.9205 25.7802 37.7312 25.7802H35.6765C35.6765 25.7802 35.4762 21.6608 35.3451 21.4698C35.155 21.1875 34.3694 20.9955 33.8534 20.9955C33.3356 20.9955 32.5362 21.1875 32.3451 21.4698C32.215 21.6598 32.0424 25.7802 32.0424 25.7802H29.9608C29.7707 25.7802 29.5962 25.8896 29.5067 26.0634C29.4172 26.2381 29.4273 26.4502 29.5325 26.6144C30.907 28.7408 33.4436 31.2944 33.535 31.3702Z" fill="#D4F70E"/>
</svg>
