<svg width="92" height="90" viewBox="0 0 92 90" fill="none" xmlns="http://www.w3.org/2000/svg">
<g filter="url(#filter0_b_1_774)">
<path d="M22.4511 0.709473H70.2659C76.0301 0.709473 81.5583 2.99899 85.6342 7.07436C89.7101 11.1497 91.9999 16.6771 91.9999 22.4406V68.0785C91.9999 73.8419 89.7101 79.3693 85.6342 83.4447C81.5583 87.5201 76.0301 89.8096 70.2659 89.8096H22.4511C16.6868 89.8096 11.1587 87.5201 7.08279 83.4447C3.00687 79.3693 0.717041 73.8419 0.717041 68.0785V22.4406C0.717041 16.6771 3.00687 11.1497 7.08279 7.07436C11.1587 2.99899 16.6868 0.709473 22.4511 0.709473Z" fill="#D4F70E"/>
<path d="M22.4511 1.70947H70.2659C75.765 1.70947 81.0388 3.89367 84.9271 7.78152C88.8155 11.6694 90.9999 16.9424 90.9999 22.4406V68.0785C90.9999 73.5767 88.8155 78.8497 84.9271 82.7375C81.0388 86.6254 75.765 88.8096 70.2659 88.8096H22.4511C16.952 88.8096 11.6782 86.6254 7.78985 82.7375C3.90148 78.8497 1.71704 73.5767 1.71704 68.0785V22.4406C1.71704 16.9424 3.90148 11.6694 7.78985 7.78152C11.6782 3.89367 16.952 1.70947 22.4511 1.70947Z" stroke="#D4F70E" stroke-width="2"/>
</g>
<path d="M58.4078 28.4801H35.0394C33.8773 28.4801 32.7629 28.9417 31.9412 29.7634C31.1195 30.5851 30.6578 31.6996 30.6578 32.8616V56.2301C30.6578 57.3921 31.1195 58.5066 31.9412 59.3283C32.7629 60.15 33.8773 60.6116 35.0394 60.6116H58.4078C59.5699 60.6116 60.6844 60.15 61.5061 59.3283C62.3278 58.5066 62.7894 57.3921 62.7894 56.2301V32.8616C62.7894 31.6996 62.3278 30.5851 61.5061 29.7634C60.6844 28.9417 59.5699 28.4801 58.4078 28.4801ZM40.8815 57.6906H35.0394C34.6521 57.6906 34.2806 57.5367 34.0067 57.2628C33.7328 56.9889 33.5789 56.6174 33.5789 56.2301V54.5066C34.0472 54.6767 34.5412 54.7656 35.0394 54.7695H40.8815V57.6906ZM40.8815 51.8485H35.0394C34.6521 51.8485 34.2806 51.6946 34.0067 51.4207C33.7328 51.1468 33.5789 50.7753 33.5789 50.388V48.6645C34.0472 48.8346 34.5412 48.9235 35.0394 48.9274H40.8815V51.8485ZM40.8815 46.0064H35.0394C34.6521 46.0064 34.2806 45.8525 34.0067 45.5786C33.7328 45.3047 33.5789 44.9332 33.5789 44.5458V32.8616C33.5789 32.4743 33.7328 32.1028 34.0067 31.8289C34.2806 31.555 34.6521 31.4011 35.0394 31.4011H40.8815V46.0064ZM49.6447 57.6906H43.8026V48.9274H49.6447V57.6906ZM49.6447 46.0064H43.8026V31.4011H49.6447V46.0064ZM59.8684 56.2301C59.8684 56.6174 59.7145 56.9889 59.4406 57.2628C59.1667 57.5367 58.7952 57.6906 58.4078 57.6906H52.5657V54.7695H58.4078C58.9061 54.7656 59.4 54.6767 59.8684 54.5066V56.2301ZM59.8684 50.388C59.8684 50.7753 59.7145 51.1468 59.4406 51.4207C59.1667 51.6946 58.7952 51.8485 58.4078 51.8485H52.5657V48.9274H58.4078C58.9061 48.9235 59.4 48.8346 59.8684 48.6645V50.388ZM59.8684 44.5458C59.8684 44.9332 59.7145 45.3047 59.4406 45.5786C59.1667 45.8525 58.7952 46.0064 58.4078 46.0064H52.5657V31.4011H58.4078C58.7952 31.4011 59.1667 31.555 59.4406 31.8289C59.7145 32.1028 59.8684 32.4743 59.8684 32.8616V44.5458ZM55.4868 37.2432C55.1979 37.2432 54.9155 37.3289 54.6754 37.4894C54.4352 37.6498 54.248 37.8779 54.1374 38.1448C54.0269 38.4117 53.998 38.7054 54.0543 38.9887C54.1107 39.272 54.2498 39.5322 54.454 39.7365C54.6583 39.9407 54.9185 40.0798 55.2018 40.1362C55.4852 40.1926 55.7788 40.1636 56.0457 40.0531C56.3126 39.9425 56.5407 39.7553 56.7012 39.5152C56.8617 39.275 56.9473 38.9926 56.9473 38.7037C56.9473 38.3164 56.7934 37.9449 56.5195 37.671C56.2456 37.3971 55.8741 37.2432 55.4868 37.2432ZM37.9605 40.1643C38.2493 40.1643 38.5317 40.0786 38.7719 39.9181C39.0121 39.7576 39.1993 39.5295 39.3098 39.2627C39.4204 38.9958 39.4493 38.7021 39.3929 38.4188C39.3366 38.1355 39.1975 37.8753 38.9932 37.671C38.789 37.4667 38.5287 37.3276 38.2454 37.2713C37.9621 37.2149 37.6684 37.2438 37.4015 37.3544C37.1347 37.4649 36.9066 37.6521 36.7461 37.8923C36.5856 38.1325 36.4999 38.4149 36.4999 38.7037C36.4999 39.0911 36.6538 39.4626 36.9277 39.7365C37.2016 40.0104 37.5731 40.1643 37.9605 40.1643Z" fill="black"/>
<defs>
<filter id="filter0_b_1_774" x="-6.28296" y="-6.29053" width="105.283" height="103.1" filterUnits="userSpaceOnUse" color-interpolation-filters="sRGB">
<feFlood flood-opacity="0" result="BackgroundImageFix"/>
<feGaussianBlur in="BackgroundImage" stdDeviation="3.5"/>
<feComposite in2="SourceAlpha" operator="in" result="effect1_backgroundBlur_1_774"/>
<feBlend mode="normal" in="SourceGraphic" in2="effect1_backgroundBlur_1_774" result="shape"/>
</filter>
</defs>
</svg>
