<svg width="275" height="635" viewBox="0 0 275 635" fill="none" xmlns="http://www.w3.org/2000/svg">
<mask id="mask0_1_546" style="mask-type:alpha" maskUnits="userSpaceOnUse" x="0" y="0" width="275" height="635">
<rect width="275" height="635" fill="#171C1F"/>
</mask>
<g mask="url(#mask0_1_546)">
<path d="M71.1544 685.249L71.1544 482.099C87.7094 482.099 103.586 489.234 115.293 501.934C126.999 514.633 133.575 531.858 133.575 549.818L133.575 617.533C133.574 635.493 126.997 652.717 115.291 665.415C103.585 678.114 87.7088 685.249 71.1544 685.249Z" fill="#161C1E"/>
<path d="M62.4209 56.1218L62.4209 259.271C45.8659 259.271 29.9889 252.136 18.2827 239.436C6.57658 226.737 0.000120067 209.512 0.000119344 191.552L0.000116617 123.837C0.00115483 105.877 6.57807 88.6537 18.2841 75.9548C29.9902 63.2559 45.8665 56.1218 62.4209 56.1218Z" fill="#161C1E"/>
<path d="M74.1544 59.2036C88.7455 60.007 102.635 66.6499 113.087 77.9889C124.26 90.1108 130.575 106.6 130.575 123.84L130.575 191.555C130.574 208.794 124.259 225.283 113.085 237.404C102.634 248.742 88.7448 255.384 74.1544 256.188L74.1544 59.2036Z" stroke="#161C1E" stroke-width="6"/>
<path d="M62.4214 482.1L62.4214 685.249C45.8664 685.249 29.9894 678.115 18.2832 665.415C6.57706 652.715 0.000608348 635.49 0.000607625 617.53L0.000604898 549.815C0.00164311 531.855 6.57856 514.632 18.2846 501.933C29.9907 489.234 45.867 482.1 62.4214 482.1Z" fill="#161C1E"/>
<path d="M59.4215 272.003L59.4215 404.351C59.4215 421.59 53.1066 438.08 41.933 450.202C31.4812 461.541 17.5918 468.184 3.00073 468.987L3.00073 336.635C3.00172 319.396 9.31711 302.908 20.4905 290.787C30.9422 279.449 44.8311 272.806 59.4215 272.003Z" stroke="#161C1E" stroke-width="6"/>
<path d="M71.155 269.218L71.155 404.648C71.155 422.608 77.7315 439.833 89.4377 452.533C101.144 465.233 117.021 472.367 133.576 472.367L133.576 336.933C133.575 318.973 126.998 301.75 115.292 289.051C103.586 276.352 87.7094 269.218 71.155 269.218Z" fill="#161C1E"/>
<path d="M62.4176 46.0432C45.8636 46.0432 29.9876 38.9089 18.2822 26.2099C6.57677 13.5109 0.000735513 -3.71272 0.000736237 -21.6719L62.4176 -21.6719L62.4176 46.0432Z" fill="#161C1E"/>
<path d="M71.1582 46.4238C87.7122 46.4238 103.588 39.2895 115.294 26.5904C126.999 13.8913 133.575 -3.3323 133.575 -21.2915L71.1582 -21.2915L71.1582 46.4238Z" fill="#161C1E"/>
<path d="M203.846 -149.504L203.846 53.645C187.291 53.645 171.414 46.5103 159.707 33.8105C148.001 21.1107 141.425 3.886 141.425 -14.0743L141.425 -81.7893C141.426 -99.7489 148.003 -116.972 159.709 -129.671C171.415 -142.37 187.291 -149.504 203.846 -149.504Z" fill="#161C1E"/>
<path d="M212.579 479.622L212.579 276.473C229.134 276.473 245.011 283.607 256.717 296.307C268.424 309.007 275 326.232 275 344.192L275 411.907C274.999 429.867 268.422 447.09 256.716 459.789C245.01 472.488 229.134 479.622 212.579 479.622Z" fill="#161C1E"/>
<path d="M200.846 476.54C186.255 475.737 172.365 469.094 161.913 457.755C150.74 445.633 144.425 429.143 144.425 411.904L144.425 344.189C144.426 326.95 150.741 310.461 161.915 298.34C172.366 287.002 186.255 280.359 200.846 279.556L200.846 476.54Z" stroke="#161C1E" stroke-width="6"/>
<path d="M212.579 53.6448L212.578 -149.505C229.134 -149.505 245.01 -142.37 256.717 -129.67C268.423 -116.97 274.999 -99.7458 274.999 -81.7855L274.999 -14.0704C274.998 3.88919 268.421 21.1128 256.715 33.8117C245.009 46.5107 229.133 53.6448 212.579 53.6448Z" fill="#161C1E"/>
<path d="M215.579 263.741L215.579 131.394C215.579 114.154 221.893 97.6641 233.067 85.5421C243.519 74.2031 257.408 67.5602 271.999 66.7568L271.999 199.109C271.998 216.348 265.683 232.836 254.509 244.957C244.058 256.295 230.169 262.938 215.579 263.741Z" stroke="#161C1E" stroke-width="6"/>
<path d="M203.845 266.526L203.845 131.096C203.845 113.136 197.269 95.9113 185.562 83.2115C173.856 70.5116 157.979 63.377 141.424 63.377L141.424 198.811C141.425 216.771 148.002 233.994 159.708 246.693C171.414 259.392 187.291 266.526 203.845 266.526Z" fill="#161C1E"/>
<path d="M212.583 489.701C229.137 489.701 245.012 496.836 256.718 509.535C268.423 522.234 274.999 539.457 274.999 557.416L212.583 557.416L212.583 489.701Z" fill="#161C1E"/>
<path d="M275 634.862C258.446 634.862 242.57 627.728 230.865 615.029C219.159 602.33 212.583 585.106 212.583 567.147L275 567.147L275 634.862Z" fill="#161C1E"/>
<path d="M203.842 489.32C187.288 489.32 171.412 496.455 159.706 509.154C148.001 521.853 141.425 539.076 141.425 557.035L203.842 557.035L203.842 489.32Z" fill="#161C1E"/>
<path d="M141.424 634.448C157.978 634.448 173.854 627.314 185.56 614.615C197.265 601.916 203.841 584.692 203.841 566.733L141.424 566.733L141.424 634.448Z" fill="#161C1E"/>
<path d="M67.3448 109.415H-147C-147 88.8263 -139.472 69.0808 -126.072 54.5224C-112.672 39.964 -94.4984 31.7852 -75.5484 31.7852H-4.10178C14.8475 31.7864 33.0202 39.9659 46.4189 54.5241C59.8176 69.0824 67.3448 88.8272 67.3448 109.415Z" fill="#D4F70E"/>
<path d="M414.345 520.846H200.001C200.001 500.258 207.528 480.512 220.928 465.954C234.328 451.395 252.502 443.217 271.452 443.217H342.898C361.848 443.218 380.02 451.397 393.419 465.955C406.818 480.514 414.345 500.258 414.345 520.846Z" fill="#D4F70E"/>
<path d="M-147 117.39L67.3444 117.39C67.3444 137.923 59.8165 157.615 46.4168 172.134C33.0171 186.653 14.8433 194.81 -4.10674 194.81L-75.5534 194.81C-94.5026 194.808 -112.675 186.651 -126.074 172.132C-139.473 157.613 -147 137.922 -147 117.39Z" fill="url(#paint0_linear_1_546)"/>
<path d="M200 528.821L414.344 528.821C414.344 549.354 406.816 569.046 393.417 583.565C380.017 598.084 361.843 606.241 342.893 606.241L271.447 606.241C252.497 606.239 234.325 598.082 220.926 583.563C207.527 569.045 200 549.353 200 528.821Z" fill="url(#paint1_linear_1_546)"/>
</g>
<defs>
<linearGradient id="paint0_linear_1_546" x1="-191.502" y1="155.832" x2="117.816" y2="105.502" gradientUnits="userSpaceOnUse">
<stop stop-color="white" stop-opacity="0.07"/>
<stop offset="1" stop-color="#181F25" stop-opacity="0.27"/>
</linearGradient>
<linearGradient id="paint1_linear_1_546" x1="155.498" y1="567.263" x2="464.816" y2="516.933" gradientUnits="userSpaceOnUse">
<stop stop-color="white" stop-opacity="0.07"/>
<stop offset="1" stop-color="#181F25" stop-opacity="0.27"/>
</linearGradient>
</defs>
</svg>
