<svg width="534" height="52" viewBox="0 0 534 52" fill="none" xmlns="http://www.w3.org/2000/svg">
<path fill-rule="evenodd" clip-rule="evenodd" d="M289.679 51.2815C288.73 48.7392 288.234 45.9442 288.234 42.9431C288.234 28.774 299.119 19.0488 316.959 19.0488C330.484 19.0488 339.436 24.3944 343.687 33.0891L328.681 37.7263C326.62 33.2179 322.82 31.0926 316.959 31.0926C308.651 31.0926 304.207 35.6653 304.207 42.8143C304.207 46.2921 305.289 49.206 307.379 51.2815H289.679ZM340.796 51.2815L328.681 47.709C328.124 49.1113 327.452 50.3015 326.615 51.2815H340.796Z" fill="white"/>
<path fill-rule="evenodd" clip-rule="evenodd" d="M276.337 4.96395H269.276V30.0819C269.276 33.6886 268.504 37.2952 261.161 37.2952C253.69 37.2952 252.789 33.5598 252.789 29.8887V4.96395H236.881V33.6242C236.881 45.4103 244.867 51.2711 261.161 51.2711C277.327 51.2711 285.442 45.2815 285.442 33.3021V5.00793H276.337V4.96395ZM291.871 5.00793C296.522 11.9925 305.417 16.2062 317.281 16.2062C329.156 16.2062 337.621 12.1627 342.04 5.00793H291.871ZM152.657 51.268C152.47 51.2701 127.475 51.2711 127.287 51.2711C109.512 51.2711 99.2068 41.868 99.2068 27.4413C99.2068 13.0146 109.512 3.54704 127.287 3.54704C127.475 3.54704 152.47 3.54806 152.657 3.55009C170.273 3.74177 180.111 12.9744 180.111 27.4413C180.111 41.7148 170.024 51.0709 152.657 51.268ZM115.115 27.4413C115.115 34.075 119.108 38.1325 127.287 38.1325C127.477 38.1325 152.472 38.1303 152.657 38.1258C160.449 37.9372 164.075 33.7954 164.075 27.4413C164.075 21.0242 160.449 16.881 152.657 16.6924C152.472 16.6879 127.477 16.6856 127.287 16.6856C119.108 16.6856 115.115 20.8076 115.115 27.4413ZM15.8436 49.8542V35.8139H25.5044C36.6464 35.8139 46.5004 33.1733 46.5004 20.0991C46.5004 7.02491 36.3244 4.96395 25.5044 4.96395H0V49.8542H15.8436ZM15.8436 16.5568H24.7959C24.8768 16.5568 24.9613 16.5565 25.0489 16.5561H25.0493H25.0496H25.05H25.0504H25.0508H25.0512H25.0516C26.9888 16.5477 30.4635 16.5327 30.4635 20.2279C30.4635 24.1802 26.9108 24.1652 25.0286 24.1573L25.0275 24.1573C24.9471 24.157 24.8698 24.1566 24.7959 24.1566H15.8436V16.5568ZM88.2001 33.753C93.0304 31.6276 96.2507 27.5701 96.2507 20.0991C96.2507 7.02491 86.0747 4.96395 75.2547 4.96395H49.7503V49.8542H65.5939V35.8139H72.6785L80.4715 49.8542H98.2473L88.2001 33.753ZM74.7074 16.5565L74.8019 16.5561C76.7391 16.5477 80.2139 16.5327 80.2139 20.2279C80.2139 24.1802 76.6611 24.1652 74.779 24.1573L74.7778 24.1573C74.6974 24.157 74.6201 24.1566 74.5462 24.1566H65.5939V16.5568H74.5462C74.5985 16.5568 74.6522 16.5567 74.7074 16.5565ZM208.607 49.8542C224.965 49.8542 233.982 42.0612 233.982 27.7633C233.982 13.2078 224.579 4.96395 208.8 4.96395H183.682V49.8542H208.607ZM199.783 17.9737H206.739L206.92 17.9736C210.13 17.9699 217.816 17.9611 217.816 27.3125C217.816 37.2272 209.443 36.9625 206.217 36.8605L206.216 36.8605C205.943 36.8519 205.706 36.8444 205.515 36.8444H199.783V17.9737Z" fill="white"/>
<path d="M346.021 5.14508H406.045V20.1509H383.576V50.5506H368.554V20.1509H346.021V5.14508Z" fill="white"/>
<path d="M442.37 4.43359C446.471 4.43359 450.097 4.67076 453.248 5.14508C456.4 5.57628 459.313 6.33088 461.99 7.40888C464.666 8.48689 466.846 9.90985 468.53 11.6778C470.256 13.4026 471.595 15.6017 472.544 18.2752C473.494 20.9055 473.969 24.0101 473.969 27.5891C473.969 31.125 473.537 34.1865 472.674 36.7737C471.854 39.3609 470.645 41.56 469.048 43.3711C467.494 45.139 465.422 46.5835 462.832 47.7047C460.285 48.7827 457.393 49.5588 454.155 50.0331C450.917 50.5075 447.14 50.7446 442.824 50.7446C432.118 50.7446 424.326 48.8042 419.449 44.9234C414.614 40.9995 412.196 34.9411 412.196 26.7483C412.196 19.1591 414.679 13.5535 419.643 9.93141C424.607 6.2662 432.183 4.43359 442.37 4.43359ZM442.953 38.8435C447.529 38.8435 451.069 37.9164 453.572 36.0622C456.076 34.2081 457.328 31.3837 457.328 27.5891C457.328 23.9239 456.011 21.1427 453.378 19.2454C450.745 17.305 447.205 16.3348 442.759 16.3348C440.428 16.3348 438.377 16.5935 436.608 17.1109C434.838 17.5852 433.37 18.3183 432.204 19.31C431.082 20.3018 430.24 21.4876 429.679 22.8675C429.118 24.2473 428.837 25.8212 428.837 27.5891C428.837 30.9956 430.025 33.7337 432.399 35.8035C434.773 37.8302 438.291 38.8435 442.953 38.8435Z" fill="white"/>
<path d="M479.744 5.14508H513.155C514.019 5.14508 514.839 5.16664 515.616 5.20976C516.393 5.25288 517.472 5.4038 518.853 5.66252C520.278 5.87812 521.551 6.20152 522.674 6.63272C523.839 7.0208 525.07 7.64605 526.365 8.50845C527.66 9.32773 528.739 10.3195 529.602 11.4837C530.509 12.6049 531.242 14.0494 531.804 15.8173C532.408 17.5852 532.71 19.5903 532.71 21.8326C532.71 28.9905 529.926 34.1003 524.357 37.1618L533.681 50.5506L516.263 50.4859L508.493 39.8137H494.831V50.5506H479.744V5.14508ZM511.731 26.5542C515.486 26.5542 517.364 25.1313 517.364 22.2853C517.364 19.6981 515.4 18.4045 511.472 18.4045H494.831V26.5542H511.731Z" fill="white"/>
</svg>
