<svg width="180" height="96" viewBox="0 0 180 96" fill="none" xmlns="http://www.w3.org/2000/svg">
<path d="M57.8198 50.6877L61.0708 49.7999C61.1245 50.5157 61.4591 51.1812 62.0019 51.6517C62.6375 52.179 63.4492 52.4468 64.2743 52.4013C64.8892 52.4363 65.4988 52.27 66.0106 51.9279C66.2029 51.7998 66.3608 51.6265 66.4704 51.4233C66.58 51.22 66.6379 50.993 66.6391 50.7621C66.64 50.5707 66.5987 50.3815 66.518 50.2079C66.4373 50.0343 66.3192 49.8806 66.1722 49.7578C65.7717 49.4411 65.2932 49.2379 64.7869 49.1695L62.4526 48.6458C61.2522 48.4248 60.1542 47.8258 59.3192 46.9367C58.5971 46.1291 58.2057 45.0797 58.223 43.9972C58.2224 43.3214 58.3731 42.654 58.6638 42.0438C58.9546 41.4336 59.3782 40.896 59.9037 40.4703C61.0411 39.4827 62.5083 38.9576 64.0148 38.9988C64.7803 38.9901 65.5429 39.0956 66.2773 39.3117C66.8673 39.4781 67.4264 39.7388 67.9328 40.0838C68.3498 40.3834 68.719 40.744 69.0282 41.1536C69.3012 41.5031 69.5286 41.8858 69.7051 42.2925C69.8447 42.6284 69.9439 42.9797 70.0005 43.3389L66.9111 44.2267C66.8767 43.9718 66.8022 43.724 66.6903 43.4923C66.5619 43.2263 66.3979 42.9789 66.2028 42.757C65.961 42.4904 65.6586 42.2859 65.3211 42.1606C64.9046 42.0005 64.461 41.9225 64.0148 41.9311C63.427 41.9096 62.8508 42.0974 62.3888 42.4611C62.1906 42.607 62.029 42.7969 61.9168 43.0158C61.8046 43.2348 61.7449 43.4768 61.7424 43.7228C61.7401 43.9173 61.7776 44.1102 61.8526 44.2897C61.9276 44.4692 62.0386 44.6315 62.1787 44.7665C62.5002 45.0724 62.9073 45.2732 63.3459 45.3423L65.7242 45.831C66.9653 46.0344 68.1133 46.6156 69.0111 47.4953C69.7612 48.2722 70.1722 49.3144 70.154 50.3935C70.1539 51.0436 70.0273 51.6874 69.7814 52.2893C69.5264 52.911 69.1635 53.4829 68.7094 53.9787C68.1943 54.5253 67.5629 54.9495 66.8618 55.2198C66.0467 55.5438 65.1757 55.7044 64.2985 55.6923C63.3125 55.7078 62.3326 55.5355 61.4111 55.1848C60.6501 54.9065 59.9619 54.4598 59.3982 53.8783C58.9472 53.4016 58.5696 52.8606 58.2777 52.2731C58.0343 51.7751 57.8793 51.2387 57.8198 50.6877Z" fill="#595959"/>
<path d="M70.1632 42.7857V39.4911H70.9712C71.3051 39.5151 71.6403 39.4666 71.9537 39.349C72.2671 39.2313 72.5512 39.0473 72.7866 38.8095C73.2123 38.3115 73.4322 37.6702 73.4016 37.0161V34.6362H76.7954V39.4911H80.0616V42.7857H76.7954V50.1174C76.77 50.3894 76.7995 50.6638 76.8822 50.9242C76.9648 51.1847 77.099 51.4259 77.2766 51.6337C77.7047 51.9826 78.2525 52.1506 78.8029 52.1018C79.2373 52.1027 79.6707 52.0601 80.0966 51.9745V55.0521C79.3564 55.3147 78.5722 55.4316 77.7875 55.3964C77.1558 55.4312 76.5236 55.3386 75.9285 55.1241C75.3334 54.9096 74.7876 54.5778 74.3237 54.1482C73.8885 53.6906 73.5517 53.1488 73.3341 52.5563C73.1166 51.9638 73.0228 51.333 73.0587 50.7029V42.7857H70.1632Z" fill="#595959"/>
<path d="M80.9919 50.9912C80.9648 50.3881 81.0677 49.7862 81.2937 49.2263C81.5197 48.6664 81.8635 48.1615 82.3018 47.7459C83.265 46.8955 84.4661 46.3606 85.7431 46.2134L89.7833 45.5982C90.5614 45.5002 90.9505 45.1465 90.9505 44.5373C90.9583 44.2294 90.8954 43.9239 90.7665 43.644C90.6376 43.3642 90.4462 43.1176 90.2071 42.9232C89.5602 42.459 88.7704 42.2367 87.976 42.2955C87.1456 42.2529 86.3311 42.5349 85.7054 43.082C85.1412 43.6047 84.7939 44.3199 84.7322 45.0861L81.3205 44.3302C81.3915 43.5992 81.6063 42.8893 81.9524 42.2414C82.2986 41.5934 82.7695 41.02 83.3379 40.5541C84.6231 39.4883 86.2575 38.9351 87.9266 39.0009C88.9838 38.9816 90.0362 39.1464 91.0367 39.4879C91.8417 39.7564 92.5694 40.2161 93.1573 40.8276C93.6693 41.3804 94.0628 42.0319 94.3137 42.7421C94.5698 43.486 94.6967 44.2682 94.689 45.0548V52.6851C94.6759 53.5299 94.7444 54.3741 94.8937 55.2058H91.3491C91.1967 54.5498 91.1363 53.8759 91.1695 53.2034C90.6971 53.9353 90.0534 54.5413 89.294 54.9691C88.3842 55.476 87.3537 55.7267 86.3124 55.6945C84.8968 55.7569 83.5137 55.2598 82.4625 54.3109C81.9948 53.8941 81.6216 53.3823 81.3679 52.8098C81.1143 52.2372 80.9861 51.6172 80.9919 50.9912ZM84.7322 50.7221C84.7275 50.9912 84.7792 51.2582 84.884 51.5061C84.9889 51.754 85.1445 51.9772 85.3409 52.1614C85.5691 52.366 85.8355 52.5235 86.1249 52.6247C86.4143 52.726 86.7209 52.7691 87.027 52.7514C87.5357 52.7572 88.0422 52.6853 88.5291 52.538C88.9811 52.3972 89.4027 52.1727 89.7716 51.8762C90.1702 51.5421 90.4709 51.1064 90.6416 50.6154C90.8604 49.9954 90.965 49.3411 90.9505 48.6839V47.9745L86.8483 48.6023C86.2807 48.6758 85.747 48.9136 85.3131 49.2865C85.1183 49.4692 84.9655 49.6919 84.8652 49.9393C84.765 50.1867 84.7196 50.4528 84.7322 50.7194V50.7221Z" fill="#595959"/>
<path d="M97.2179 55.2074V39.4911H100.833V41.4496C101.28 40.6693 101.959 40.0474 102.776 39.6697C103.615 39.2527 104.539 39.0354 105.476 39.0348C106.478 39.0166 107.467 39.2562 108.349 39.7306C109.182 40.1835 109.844 40.8953 110.234 41.7581C110.751 40.8803 111.501 40.1617 112.4 39.6813C113.299 39.2009 114.313 38.9772 115.331 39.0348C116.024 39.0296 116.713 39.1495 117.363 39.3889C118.002 39.6283 118.589 39.9869 119.094 40.4453C119.65 40.966 120.074 41.6116 120.33 42.3285C120.647 43.1861 120.801 44.0949 120.786 45.0088V55.2074H117.267V45.5764C117.31 44.7242 117.042 43.8854 116.512 43.2162C116.225 42.9081 115.872 42.6683 115.48 42.5146C115.087 42.361 114.665 42.2974 114.245 42.3285C113.803 42.3134 113.363 42.3956 112.956 42.5694C112.549 42.7433 112.186 43.0047 111.892 43.3346C111.282 44.0199 110.957 44.9127 110.986 45.8292V55.2074H107.246V45.5764C107.286 44.7283 107.021 43.8938 106.498 43.2243C106.212 42.9123 105.858 42.6694 105.464 42.514C105.07 42.3586 104.646 42.295 104.224 42.3276C103.78 42.3094 103.339 42.3883 102.929 42.5587C102.52 42.7291 102.153 42.9868 101.854 43.3139C101.246 44.0087 100.928 44.9099 100.964 45.832V55.2099L97.2179 55.2074Z" fill="#595959"/>
<path d="M123.48 61.3421V39.4914H127.126V41.597C127.586 40.8311 128.259 40.2152 129.063 39.8241C130.009 39.3461 131.057 39.1075 132.116 39.1292C133.12 39.0809 134.122 39.2621 135.046 39.659C135.969 40.0558 136.79 40.6579 137.445 41.4194C138.787 43.0882 139.476 45.187 139.385 47.3253C139.47 49.49 138.748 51.6093 137.358 53.2725C136.696 54.0382 135.869 54.6453 134.94 55.0488C134.01 55.4524 133.002 55.6421 131.989 55.6039C130.998 55.623 130.015 55.415 129.116 54.996C128.36 54.6538 127.706 54.1207 127.218 53.4491V61.3403L123.48 61.3421ZM127.189 47.328C127.127 48.6351 127.547 49.9195 128.37 50.9374C128.741 51.3804 129.206 51.734 129.733 51.9717C130.259 52.2093 130.833 52.3247 131.41 52.3094C131.989 52.3258 132.564 52.2117 133.093 51.9755C133.621 51.7394 134.089 51.3873 134.463 50.9454C135.289 49.9257 135.709 48.6379 135.644 47.328C135.706 46.0396 135.288 44.7741 134.471 43.7751C134.094 43.336 133.622 42.9872 133.092 42.7544C132.562 42.5216 131.986 42.4107 131.407 42.43C130.831 42.4141 130.258 42.5277 129.732 42.7625C129.206 42.9974 128.739 43.3475 128.367 43.7868C127.55 44.7803 127.13 46.0409 127.189 47.3253V47.328Z" fill="#595959"/>
<path d="M139.658 50.6877L142.909 49.7999C142.963 50.5157 143.298 51.1812 143.84 51.6517C144.476 52.1791 145.288 52.4469 146.114 52.4013C146.728 52.4361 147.338 52.2699 147.849 51.9279C148.042 51.7998 148.199 51.6265 148.309 51.4233C148.419 51.22 148.477 50.993 148.478 50.7621C148.479 50.5707 148.437 50.3815 148.357 50.2079C148.276 50.0343 148.158 49.8806 148.011 49.7578C147.611 49.4411 147.132 49.2378 146.626 49.1695L144.292 48.6458C143.092 48.425 141.994 47.826 141.16 46.9367C140.437 46.1296 140.045 45.0799 140.062 43.9972C140.062 43.3214 140.213 42.654 140.503 42.0438C140.794 41.4336 141.218 40.896 141.743 40.4703C142.881 39.4827 144.348 38.9576 145.854 38.9988C146.62 38.9901 147.382 39.0956 148.117 39.3117C148.707 39.4779 149.266 39.7387 149.772 40.0838C150.189 40.3836 150.559 40.7442 150.869 41.1536C151.141 41.5033 151.368 41.886 151.545 42.2925C151.684 42.6284 151.783 42.9797 151.84 43.3389L148.751 44.2267C148.717 43.9719 148.642 43.724 148.531 43.4923C148.402 43.2264 148.237 42.9791 148.042 42.757C147.8 42.4904 147.498 42.2859 147.161 42.1606C146.744 42.0004 146.3 41.9224 145.854 41.9311C145.267 41.9096 144.691 42.0975 144.229 42.4611C144.031 42.6068 143.869 42.7967 143.757 43.0157C143.644 43.2346 143.584 43.4767 143.582 43.7228C143.58 43.9173 143.617 44.1102 143.692 44.2897C143.767 44.4692 143.878 44.6315 144.018 44.7665C144.34 45.0722 144.747 45.273 145.185 45.3423L147.563 45.831C148.804 46.0342 149.953 46.6155 150.851 47.4953C151.6 48.2725 152.011 49.3146 151.993 50.3935C151.993 51.0436 151.866 51.6876 151.62 52.2893C151.365 52.9112 151.002 53.4832 150.548 53.9787C150.033 54.5254 149.402 54.9495 148.7 55.2198C147.886 55.5438 147.015 55.7043 146.138 55.6923C145.152 55.7079 144.171 55.5356 143.25 55.1848C142.489 54.9063 141.801 54.4596 141.238 53.8783C140.787 53.4016 140.409 52.8606 140.117 52.2731C139.874 51.775 139.719 51.2386 139.658 50.6877Z" fill="#595959"/>
<path d="M30.6585 39.2043C30.6748 39.1614 30.6865 39.117 30.6935 39.0716C30.807 38.2651 31.2225 37.5316 31.8562 37.019C32.305 36.6617 32.8418 36.4315 33.4103 36.3527C33.4479 36.3471 33.4849 36.3378 33.5207 36.3249C33.6323 36.3134 33.7444 36.3077 33.8565 36.3079C34.6307 36.3034 35.3797 36.5819 35.9624 37.091C36.5451 37.6002 36.9211 38.3047 37.0195 39.0716C37.03 39.1932 37.0862 39.3064 37.1768 39.3882C37.2674 39.4701 37.3857 39.5146 37.5079 39.5128H37.6238C37.7461 39.515 37.8646 39.4707 37.9553 39.3887C38.0461 39.3068 38.1021 39.1934 38.1122 39.0716C38.2063 38.3065 38.5782 37.6026 39.1574 37.0932C39.7366 36.5837 40.4828 36.3043 41.2545 36.3079C42.0287 36.3034 42.7777 36.5819 43.3604 37.091C43.9431 37.6002 44.3191 38.3047 44.4175 39.0716C44.4279 39.1932 44.4841 39.3064 44.5748 39.3882C44.6654 39.4701 44.7837 39.5146 44.9059 39.5128H44.9957C45.118 39.515 45.2366 39.4707 45.3273 39.3887C45.418 39.3068 45.4741 39.1934 45.4841 39.0716C45.5819 38.3081 45.9549 37.6064 46.5333 37.0977C47.1117 36.589 47.8558 36.3082 48.6265 36.3079C49.4592 36.3078 50.2589 36.6335 50.8539 37.2154C51.4376 37.8109 51.7641 38.6113 51.7634 39.4447C51.7635 40.2146 51.4824 40.9582 50.9728 41.536C50.4632 42.1138 49.7602 42.4861 48.9955 42.5832C48.8736 42.5932 48.76 42.6492 48.678 42.7398C48.5959 42.8305 48.5515 42.9489 48.5537 43.0711V43.1607C48.5519 43.2828 48.5965 43.4009 48.6785 43.4915C48.7605 43.582 48.8737 43.6381 48.9955 43.6485C49.7634 43.7464 50.469 44.1217 50.9789 44.7036C51.4889 45.2854 51.7679 46.0336 51.7634 46.8068C51.767 47.5778 51.4871 48.3232 50.9769 48.9017C50.4667 49.4803 49.7616 49.8516 48.9955 49.9454C48.8736 49.9554 48.76 50.0114 48.678 50.102C48.5959 50.1926 48.5515 50.3111 48.5537 50.4332V50.5498C48.5521 50.6718 48.5968 50.7899 48.6787 50.8803C48.7607 50.9708 48.8738 51.027 48.9955 51.0376C49.7634 51.1355 50.469 51.5108 50.9789 52.0927C51.4889 52.6745 51.7679 53.4226 51.7634 54.1959C51.7634 54.2999 51.7581 54.4022 51.7482 54.5035C51.7316 54.5464 51.7195 54.5908 51.7123 54.6362C51.5995 55.4428 51.1843 56.1765 50.5505 56.6888C50.1013 57.0462 49.5642 57.2763 48.9955 57.3551C48.9583 57.361 48.9217 57.37 48.886 57.382C48.7741 57.3939 48.6617 57.3999 48.5493 57.3999C47.7752 57.4044 47.0263 57.1258 46.4437 56.6167C45.8612 56.1076 45.4854 55.4031 45.3872 54.6362C45.3767 54.5146 45.3205 54.4015 45.2299 54.3196C45.1393 54.2377 45.0209 54.1932 44.8987 54.195H44.782C44.6597 54.1928 44.5412 54.2372 44.4504 54.3191C44.3597 54.4011 44.3036 54.5144 44.2936 54.6362C44.1997 55.4013 43.8278 56.1055 43.2486 56.6149C42.6694 57.1244 41.923 57.4037 41.1513 57.3999C40.3771 57.4045 39.6281 57.1259 39.0454 56.6168C38.4627 56.1076 38.0867 55.4032 37.9883 54.6362C37.9778 54.5146 37.9216 54.4015 37.831 54.3196C37.7404 54.2377 37.622 54.1932 37.4999 54.195H37.4101C37.2878 54.1928 37.1692 54.2372 37.0785 54.3191C36.9878 54.4011 36.9317 54.5144 36.9216 54.6362C36.8242 55.3999 36.4513 56.1018 35.8729 56.6106C35.2944 57.1194 34.5501 57.4 33.7793 57.3999C32.9448 57.4011 32.1431 57.0752 31.5464 56.4924C30.9631 55.8967 30.6369 55.0964 30.6378 54.2632C30.6378 53.4933 30.9187 52.7499 31.4281 52.1721C31.9375 51.5944 32.6403 51.2219 33.4049 51.1246C33.527 51.1148 33.6407 51.0589 33.723 50.9683C33.8052 50.8776 33.8498 50.7591 33.8475 50.6368V50.5471C33.8491 50.425 33.8043 50.3068 33.7222 50.2163C33.6401 50.1258 33.5267 50.0697 33.4049 50.0593C32.6371 49.9612 31.9318 49.5858 31.422 49.004C30.9123 48.4222 30.6333 47.6741 30.6378 46.901C30.6341 46.1301 30.9138 45.3847 31.4238 44.8062C31.9339 44.2276 32.6388 43.8562 33.4049 43.7624C33.527 43.7526 33.6407 43.6967 33.723 43.6061C33.8052 43.5155 33.8498 43.3969 33.8475 43.2746V43.158C33.8491 43.0359 33.8043 42.9177 33.7222 42.8272C33.6401 42.7367 33.5267 42.6806 33.4049 42.6702C32.6371 42.5721 31.9318 42.1967 31.422 41.6149C30.9123 41.0331 30.6333 40.285 30.6378 39.5119C30.6378 39.4079 30.6432 39.3057 30.6531 39.2043H30.6585ZM33.413 35.3278C33.3741 35.3177 33.3345 35.3108 33.2945 35.3071C32.236 35.4545 31.2722 35.9954 30.5957 36.8217C30.0847 37.4297 29.7561 38.1695 29.6476 38.9559C29.6502 38.9901 29.6556 39.024 29.6637 39.0573C29.65 39.1928 29.6431 39.329 29.6431 39.4653C29.6496 40.2214 29.8577 40.9621 30.246 41.6112C30.6344 42.2602 31.189 42.7942 31.8526 43.158C31.1888 43.522 30.6342 44.0561 30.2458 44.7053C29.8575 45.3545 29.6494 46.0954 29.6431 46.8517C29.6496 47.6078 29.8577 48.3485 30.246 48.9975C30.6344 49.6466 31.189 50.1806 31.8526 50.5444C31.1849 50.9037 30.627 51.4367 30.238 52.087C29.849 52.7372 29.6434 53.4805 29.6431 54.238C29.6431 54.3555 29.6484 54.4712 29.6574 54.5869C29.6446 54.6403 29.6404 54.6954 29.6449 54.7501C29.7682 55.6733 30.1937 56.5299 30.8551 57.1865C31.5125 57.8471 32.3701 58.2721 33.2945 58.3953C33.3496 58.3998 33.405 58.3956 33.4588 58.3828C33.5737 58.3926 33.6904 58.3971 33.808 58.3971C34.5663 58.3968 35.3104 58.1915 35.9614 57.803C36.6123 57.4144 37.1458 56.8571 37.5052 56.1902C37.8694 56.8532 38.4039 57.4072 39.0538 57.7951C39.7037 58.183 40.4454 58.3908 41.2024 58.3971C41.9596 58.391 42.7015 58.1832 43.3516 57.7953C44.0016 57.4074 44.5363 56.8533 44.9005 56.1902C45.2647 56.8532 45.7992 57.4072 46.4491 57.7951C47.099 58.183 47.8407 58.3908 48.5977 58.3971C48.7315 58.3971 48.8671 58.3908 48.9946 58.3783C49.0337 58.3885 49.0737 58.3951 49.114 58.398C50.1707 58.2505 51.1327 57.7099 51.8074 56.8843C52.3187 56.2764 52.6477 55.5366 52.7564 54.7501C52.7537 54.7159 52.7483 54.6821 52.7403 54.6488C52.7537 54.5143 52.76 54.3798 52.76 54.2408C52.7537 53.4847 52.5458 52.744 52.1575 52.095C51.7693 51.4459 51.2149 50.9119 50.5514 50.548C51.215 50.184 51.7695 49.6499 52.1578 49.0007C52.546 48.3514 52.7539 47.6106 52.76 46.8544C52.7537 46.0983 52.5458 45.3576 52.1575 44.7086C51.7693 44.0595 51.2149 43.5255 50.5514 43.1616C51.2189 42.8022 51.7767 42.2692 52.1655 41.6189C52.5543 40.9686 52.7597 40.2254 52.76 39.468C52.76 39.3505 52.7555 39.2339 52.7465 39.1191C52.7585 39.0656 52.7627 39.0107 52.7591 38.9559C52.6361 38.0324 52.2102 37.1756 51.548 36.5195C50.8912 35.8586 50.0337 35.4335 49.1095 35.3107C49.0544 35.3062 48.9989 35.3104 48.9452 35.3233C48.8303 35.3134 48.7135 35.3089 48.5959 35.3089C47.8376 35.3092 47.0936 35.5145 46.4426 35.9031C45.7917 36.2916 45.2582 36.8489 44.8987 37.5158C44.5345 36.8527 43.9998 36.2986 43.3498 35.9107C42.6997 35.5228 41.9578 35.3151 41.2006 35.3089C40.4436 35.3152 39.7019 35.523 39.052 35.9109C38.4021 36.2988 37.8676 36.8528 37.5034 37.5158C37.1392 36.8527 36.6045 36.2986 35.9545 35.9107C35.3044 35.5228 34.5625 35.3151 33.8053 35.3089C33.6716 35.3089 33.536 35.3152 33.4085 35.3278H33.413Z" fill="#595959"/>
<path d="M49.1381 59.1854L49.0555 59.1791C49.0214 59.1791 48.9864 59.1719 48.9523 59.1675C48.8356 59.1755 48.7171 59.18 48.5994 59.18C47.6886 59.1787 46.7959 58.9257 46.02 58.4492C45.6069 58.1967 45.2318 57.8869 44.9058 57.5291C44.4366 58.045 43.8654 58.4581 43.2283 58.7422C42.5911 59.0264 41.9019 59.1754 41.2041 59.18C40.2933 59.1787 39.4006 58.9257 38.6247 58.4492C38.2129 58.1971 37.8387 57.8883 37.5132 57.5318C37.1904 57.889 36.8179 58.1979 36.4071 58.4492C35.6253 58.9271 34.7264 59.18 33.8097 59.18C33.7056 59.18 33.6006 59.18 33.4964 59.1702C33.41 59.1809 33.3228 59.1827 33.236 59.1755H33.2136H33.1912C32.6402 59.1017 32.1053 58.9372 31.6083 58.6886C31.1252 58.4463 30.6847 58.1275 30.3038 57.7444C29.9202 57.3642 29.6012 56.9241 29.3593 56.4414C29.1096 55.9452 28.9445 55.4109 28.8709 54.8605V54.838V54.8156C28.8646 54.7289 28.8664 54.6419 28.8763 54.5556C28.87 54.4516 28.8673 54.3466 28.8673 54.2435C28.8669 53.328 29.1198 52.4302 29.5981 51.6492C29.8494 51.2382 30.1591 50.8658 30.5174 50.5436C30.1598 50.2189 29.8503 49.8451 29.5981 49.4334C29.1213 48.6584 28.8683 47.7668 28.8673 46.8571C28.8718 46.1603 29.0209 45.4719 29.3053 44.8355C29.5896 44.1992 30.003 43.6286 30.5192 43.1599C30.161 42.8343 29.8509 42.4597 29.5981 42.047C29.1213 41.272 28.8683 40.3804 28.8673 39.4707C28.8673 39.3461 28.8718 39.2205 28.8816 39.0959C28.878 39.0708 28.8753 39.0457 28.8735 39.0206L28.8673 38.9381L28.878 38.8555C29.0061 37.9245 29.3948 37.0486 29.9994 36.3286C30.7992 35.3487 31.9409 34.7079 33.1947 34.5351L33.2773 34.5234L33.3608 34.5297C33.395 34.5297 33.4291 34.5369 33.4632 34.5414C33.5808 34.5333 33.6993 34.5288 33.816 34.5288C34.7271 34.5304 35.6201 34.7833 36.3963 35.2597C36.8091 35.5122 37.184 35.822 37.5096 36.1797C37.9788 35.6639 38.55 35.2508 39.1872 34.9666C39.8243 34.6825 40.5136 34.5334 41.2113 34.5288C42.1224 34.5304 43.0154 34.7833 43.7916 35.2597C44.2035 35.5118 44.5776 35.8206 44.9031 36.177C45.2259 35.8199 45.5984 35.511 46.0092 35.2597C46.7911 34.7817 47.6899 34.5287 48.6066 34.5288C48.7108 34.5288 48.8158 34.5288 48.9191 34.5387C49.0057 34.5279 49.0933 34.5261 49.1803 34.5333H49.2019H49.2243C49.7753 34.607 50.3102 34.7715 50.8072 35.0202C51.2907 35.2622 51.7316 35.5811 52.1126 35.9645C52.4966 36.3443 52.8157 36.7845 53.0571 37.2674C53.3061 37.7638 53.4709 38.2981 53.5446 38.8484V38.8708V38.8932C53.551 38.9799 53.549 39.067 53.5383 39.1533C53.5446 39.2573 53.5482 39.3613 53.5482 39.4653C53.5483 40.3809 53.2951 41.2787 52.8165 42.0596C52.5655 42.4706 52.2561 42.843 51.898 43.1652C52.2556 43.4897 52.5648 43.8636 52.8165 44.2754C53.2936 45.0503 53.5469 45.942 53.5482 46.8517C53.5437 47.5487 53.3945 48.2371 53.11 48.8735C52.8255 49.5099 52.4119 50.0804 51.8953 50.549C52.2536 50.8741 52.5637 51.2485 52.8165 51.6609C53.2934 52.4362 53.5466 53.3281 53.5482 54.2381C53.5482 54.3628 53.5437 54.4883 53.5338 54.6121C53.5338 54.6372 53.5401 54.6632 53.5419 54.6883L53.5482 54.7708L53.5365 54.8533C53.4089 55.7842 53.0205 56.6602 52.4161 57.3803C51.6161 58.3603 50.474 59.0012 49.2198 59.1737L49.1381 59.1854ZM46.1682 54.5439C46.243 55.121 46.527 55.6506 46.9664 56.0326C47.4058 56.4147 47.9702 56.6226 48.5528 56.6171C48.6165 56.6171 48.6794 56.6172 48.7422 56.61C48.7844 56.5992 48.8266 56.5902 48.8697 56.5831H48.893C49.32 56.5233 49.7231 56.3502 50.0602 56.0818C50.5388 55.6955 50.8524 55.1418 50.9374 54.5331V54.5107C50.9462 54.4575 50.9579 54.4048 50.9724 54.3529C50.9724 54.3018 50.9778 54.2498 50.9778 54.1987C50.983 53.6166 50.7747 53.0528 50.3921 52.6138C50.0094 52.1748 49.479 51.891 48.9011 51.816C48.5889 51.7835 48.3 51.6362 48.0905 51.4026C47.8811 51.1691 47.7662 50.8661 47.7681 50.5525V50.436C47.7656 50.129 47.8757 49.8318 48.0777 49.6005C48.2797 49.3692 48.5595 49.2198 48.8643 49.1805H48.8868H48.9101C49.4827 49.1059 50.0084 48.8251 50.3886 48.3909C50.7688 47.9568 50.9773 47.3989 50.9751 46.8221C50.9804 46.2401 50.772 45.6763 50.3894 45.2373C50.0067 44.7983 49.4763 44.5145 48.8984 44.4395C48.5862 44.407 48.2973 44.2596 48.0879 44.0261C47.8784 43.7926 47.7635 43.4896 47.7654 43.176V43.0864C47.7629 42.7794 47.873 42.4822 48.075 42.2509C48.277 42.0195 48.5568 41.8702 48.8616 41.8309H48.884H48.9074C49.4775 41.7505 49.9998 41.4681 50.3789 41.0351C50.7579 40.6022 50.9686 40.0476 50.9724 39.4725C50.9738 38.8463 50.7299 38.2445 50.2927 37.7956C49.8434 37.3588 49.2408 37.1152 48.6138 37.1168C48.0363 37.1146 47.4778 37.3228 47.0431 37.7025C46.6084 38.0822 46.3273 38.6073 46.2525 39.1793V39.2026V39.225C46.2133 39.5294 46.0637 39.8089 45.8321 40.0107C45.6005 40.2124 45.3029 40.3225 44.9956 40.3199H44.9058C44.5918 40.3219 44.2883 40.2071 44.0544 39.9979C43.8204 39.7888 43.6727 39.5002 43.6399 39.1882C43.5649 38.611 43.2807 38.0813 42.8412 37.6991C42.4016 37.3169 41.8372 37.1088 41.2544 37.1141C40.6769 37.1119 40.1185 37.3201 39.6837 37.6999C39.249 38.0796 38.9679 38.6046 38.8932 39.1766V39.1999V39.2223C38.8539 39.5267 38.7043 39.8062 38.4727 40.008C38.2411 40.2097 37.9435 40.3197 37.6362 40.3172H37.5204C37.2064 40.3192 36.9029 40.2044 36.669 39.9952C36.435 39.7861 36.2872 39.4975 36.2545 39.1856C36.1794 38.6083 35.8953 38.0786 35.4558 37.6964C35.0162 37.3143 34.4517 37.1061 33.869 37.1114C33.8061 37.1114 33.7424 37.1114 33.6795 37.1195C33.6382 37.1303 33.5952 37.1392 33.5521 37.1464H33.5287C33.1017 37.2059 32.6985 37.379 32.3616 37.6477C31.8824 38.0335 31.5687 38.5874 31.4844 39.1963V39.2187C31.4756 39.2719 31.4639 39.3246 31.4494 39.3766C31.4494 39.4277 31.4449 39.4797 31.4449 39.5308C31.4396 40.1127 31.6478 40.6764 32.0303 41.1154C32.4127 41.5544 32.9429 41.8383 33.5206 41.9134C33.8328 41.9459 34.1218 42.0933 34.3312 42.3268C34.5407 42.5604 34.6556 42.8634 34.6537 43.1769V43.2935C34.6562 43.6003 34.5462 43.8974 34.3444 44.1287C34.1426 44.36 33.863 44.5095 33.5584 44.5489H33.535H33.5117C32.9389 44.6234 32.4131 44.9041 32.0329 45.3383C31.6527 45.7726 31.4443 46.3305 31.4467 46.9073C31.4412 47.4892 31.6494 48.0528 32.0319 48.4917C32.4144 48.9306 32.9447 49.2143 33.5224 49.289C33.8347 49.322 34.1235 49.4696 34.3329 49.7032C34.5422 49.9369 34.6572 50.2399 34.6555 50.5534V50.6431C34.658 50.9499 34.548 51.247 34.3462 51.4783C34.1444 51.7096 33.8648 51.8591 33.5601 51.8985H33.5368H33.5135C32.9433 51.979 32.4211 52.2614 32.042 52.6943C31.6629 53.1273 31.4523 53.6818 31.4485 54.257C31.4469 54.8829 31.6909 55.4845 32.1281 55.9329C32.5772 56.3701 33.18 56.6138 33.807 56.6118C34.3828 56.6078 34.9379 56.3973 35.3714 56.0187C35.8048 55.6402 36.0876 55.1187 36.1683 54.5493V54.526L36.1728 54.5026C36.2123 54.1984 36.3619 53.9191 36.5935 53.7175C36.8251 53.516 37.1226 53.4061 37.4297 53.4086H37.5195C37.8335 53.4067 38.137 53.5215 38.371 53.7307C38.6049 53.9398 38.7527 54.2284 38.7854 54.5403C38.8605 55.1174 39.1447 55.6471 39.5842 56.0291C40.0238 56.4112 40.5883 56.6191 41.1709 56.6136C41.7485 56.616 42.3071 56.4078 42.7418 56.028C43.1766 55.6483 43.4576 55.1231 43.5322 54.5511V54.5278L43.5367 54.5054C43.5759 54.2009 43.7255 53.9214 43.9571 53.7197C44.1887 53.5179 44.4863 53.4079 44.7936 53.4104H44.9103C45.2232 53.4106 45.5249 53.5265 45.7573 53.7358C45.9896 53.9452 46.136 54.2331 46.1682 54.5439Z" fill="#595959"/>
<path d="M41.2149 49.9123C40.6478 49.9139 40.086 49.8032 39.562 49.5864C39.038 49.3697 38.5623 49.0513 38.1624 48.6497C37.7603 48.2502 37.4415 47.7751 37.2246 47.2517C37.0076 46.7284 36.8967 46.1672 36.8982 45.6008C36.8982 45.3469 36.9991 45.1035 37.1788 44.9239C37.3584 44.7443 37.6021 44.6433 37.8562 44.6431C38.1104 44.6433 38.354 44.7443 38.5337 44.9239C38.7133 45.1035 38.8142 45.3469 38.8142 45.6008C38.8151 46.2364 39.0684 46.8456 39.5184 47.295C39.9685 47.7443 40.5786 47.9971 41.2149 47.9978C41.8513 47.9971 42.4614 47.7443 42.9114 47.295C43.3615 46.8456 43.6147 46.2364 43.6157 45.6008C43.6156 45.4751 43.6403 45.3506 43.6883 45.2344C43.7364 45.1182 43.807 45.0126 43.8959 44.9236C43.9849 44.8347 44.0906 44.7641 44.2068 44.716C44.3231 44.6679 44.4478 44.6431 44.5737 44.6431C44.8278 44.6433 45.0715 44.7443 45.2511 44.9239C45.4307 45.1035 45.5316 45.3469 45.5316 45.6008C45.5332 46.1672 45.4222 46.7283 45.2052 47.2517C44.9883 47.775 44.6695 48.2502 44.2675 48.6497C43.8675 49.0513 43.3918 49.3696 42.8678 49.5864C42.3438 49.8031 41.7821 49.9139 41.2149 49.9123Z" fill="#595959"/>
</svg>
