<svg width="28" height="26" viewBox="0 0 28 26" fill="none" xmlns="http://www.w3.org/2000/svg">
<path d="M27.3333 9.8934C27.2491 9.64952 27.096 9.43531 26.8925 9.27674C26.6889 9.11817 26.4437 9.02207 26.1867 9.00007L18.6 7.8934L15.2 1.00007C15.0908 0.774643 14.9204 0.584527 14.7081 0.451503C14.4959 0.318478 14.2505 0.247925 14 0.247925C13.7495 0.247925 13.5041 0.318478 13.2919 0.451503C13.0797 0.584527 12.9092 0.774643 12.8 1.00007L9.40001 7.88007L1.81334 9.00007C1.56657 9.03515 1.33458 9.13869 1.14368 9.29895C0.952779 9.45921 0.810624 9.66977 0.733344 9.90674C0.662604 10.1383 0.656256 10.3848 0.714981 10.6197C0.773706 10.8546 0.895287 11.069 1.06668 11.2401L6.57334 16.5734L5.24001 24.1467C5.18618 24.398 5.20608 24.6594 5.29732 24.8996C5.38857 25.1398 5.54726 25.3485 5.75432 25.5006C5.96137 25.6527 6.20797 25.7418 6.46445 25.7571C6.72093 25.7723 6.97636 25.7132 7.20001 25.5867L14 22.0267L20.8 25.5867C20.9871 25.6923 21.1985 25.7474 21.4133 25.7467C21.6958 25.7477 21.9712 25.659 22.2 25.4934C22.4069 25.3452 22.567 25.1409 22.6615 24.9047C22.756 24.6684 22.7809 24.41 22.7333 24.1601L21.4 16.5867L26.9067 11.2534C27.0992 11.0903 27.2415 10.8759 27.317 10.6352C27.3925 10.3945 27.3982 10.1372 27.3333 9.8934ZM19.1333 15.2267C18.979 15.3766 18.8632 15.5616 18.7959 15.7659C18.7286 15.9702 18.7117 16.1878 18.7467 16.4001L19.7067 22.0001L14.6933 19.3334C14.4985 19.237 14.2841 19.1869 14.0667 19.1869C13.8493 19.1869 13.6349 19.237 13.44 19.3334L8.42668 22.0001L9.38668 16.4001C9.42166 16.1878 9.40477 15.9702 9.33744 15.7659C9.2701 15.5616 9.15434 15.3766 9.00001 15.2267L5.00001 11.2267L10.6133 10.4134C10.8293 10.3834 11.0347 10.3008 11.2113 10.1729C11.388 10.0451 11.5306 9.87585 11.6267 9.68007L14 4.60007L16.5067 9.6934C16.6027 9.88919 16.7453 10.0584 16.922 10.1863C17.0987 10.3141 17.304 10.3967 17.52 10.4267L23.1333 11.2401L19.1333 15.2267Z" fill="#CCF335"/>
</svg>
