<svg width="872" height="507" viewBox="0 0 872 507" fill="none" xmlns="http://www.w3.org/2000/svg">
<path d="M225.846 248.441H0.0118408C0.0118408 228.461 7.94323 209.3 22.0612 195.172C36.1792 181.043 55.3272 173.106 75.2931 173.106H150.57C170.535 173.108 189.681 181.045 203.798 195.173C217.915 209.301 225.846 228.462 225.846 248.441Z" fill="#D4F70E"/>
<path d="M459.768 245.442H312.277C293.108 245.442 274.723 237.822 261.167 224.256C248.32 211.4 240.808 194.201 240.058 176.106H387.554C406.722 176.108 425.106 183.729 438.66 197.294C451.507 210.151 459.018 227.348 459.768 245.442Z" stroke="#D4F70E" stroke-width="6"/>
<path d="M0.0118474 258.982L225.846 258.982C225.846 278.962 217.915 298.124 203.797 312.252C189.679 326.38 170.531 334.318 150.565 334.318L75.2883 334.318C55.3233 334.316 36.1765 326.379 22.0595 312.251C7.9426 298.122 0.0118457 278.961 0.0118474 258.982Z" fill="#D4F70E"/>
<path d="M699.391 248.442H473.557C473.557 228.461 481.488 209.299 495.606 195.171C509.724 181.043 528.872 173.106 548.838 173.106H624.115C644.08 173.107 663.226 181.045 677.343 195.173C691.46 209.301 699.391 228.462 699.391 248.442Z" fill="#D4F70E"/>
<path d="M696.329 261.982C695.579 280.076 688.067 297.275 675.22 310.132C661.665 323.697 643.28 331.318 624.11 331.318L548.834 331.318C529.665 331.316 511.282 323.695 497.727 310.13C484.881 297.274 477.369 280.076 476.619 261.982L696.329 261.982Z" stroke="#D4F70E" stroke-width="6"/>
<path d="M462.5 258.983L311.946 258.983C291.981 258.983 272.833 266.92 258.715 281.048C244.597 295.176 236.665 314.338 236.665 334.319L387.223 334.319C407.188 334.317 426.335 326.38 440.452 312.252C454.569 298.123 462.5 278.962 462.5 258.983Z" fill="#D4F70E"/>
<path d="M710.595 248.438C710.595 228.459 718.526 209.298 732.643 195.171C746.761 181.043 765.907 173.107 785.872 173.107L785.872 248.438L710.595 248.438Z" fill="#D4F70E"/>
<path d="M871.966 173.106C871.966 193.085 864.035 212.246 849.918 226.373C835.801 240.5 816.654 248.437 796.69 248.437V173.106H871.966Z" fill="#D4F70E"/>
<path d="M710.172 258.987C710.172 278.966 718.103 298.126 732.22 312.254C746.337 326.381 765.484 334.318 785.449 334.318L785.449 258.987L710.172 258.987Z" fill="#D4F70E"/>
<path d="M871.506 334.319C871.506 314.34 863.575 295.179 849.458 281.051C835.341 266.924 816.194 258.988 796.229 258.988L796.229 334.319L871.506 334.319Z" fill="#D4F70E"/>
<path d="M321.611 420.294C321.611 410.399 323.559 400.601 327.344 391.459C331.129 382.317 336.676 374.012 343.669 367.016C350.662 360.02 358.964 354.471 368.1 350.687C377.236 346.902 387.028 344.956 396.916 344.959L547.474 344.959L547.474 420.294L321.611 420.294Z" fill="#D4F70E"/>
<path d="M781.395 417.295L633.904 417.295C614.734 417.295 596.35 409.674 582.794 396.109C569.947 383.252 562.435 366.054 561.685 347.959L709.18 347.959C728.349 347.96 746.732 355.581 760.287 369.147C773.133 382.003 780.645 399.201 781.395 417.295Z" stroke="#D4F70E" stroke-width="6"/>
<path d="M795.284 431.062C795.284 451.041 803.215 470.202 817.332 484.329C831.449 498.457 850.596 506.394 870.561 506.394L870.561 431.062L795.284 431.062Z" fill="#D4F70E"/>
<path d="M75.2819 420.294C75.2819 400.315 67.3509 381.154 53.2339 367.027C39.1168 352.9 19.9699 344.963 0.00537768 344.963L0.00537109 420.294L75.2819 420.294Z" fill="#D4F70E"/>
<path d="M311.377 344.963C311.377 364.942 303.446 384.103 289.329 398.23C275.212 412.357 256.065 420.294 236.101 420.294L160.824 420.294C150.938 420.295 141.149 418.347 132.016 414.561C122.882 410.776 114.583 405.227 107.593 398.232C100.602 391.236 95.0569 382.932 91.2736 373.792C87.4903 364.652 85.5431 354.856 85.5431 344.963L311.377 344.963Z" fill="#D4F70E"/>
<path d="M321.606 76.2354C321.606 66.3401 323.554 56.5418 327.338 47.4001C331.123 38.2584 336.67 29.9524 343.663 22.9565C350.656 15.9606 358.958 10.4119 368.094 6.62726C377.231 2.84267 387.022 0.896353 396.91 0.899458L547.468 0.899445L547.468 76.2354L321.606 76.2354Z" fill="#D4F70E"/>
<path d="M784.452 76.2344L633.899 76.2344C613.933 76.2343 594.785 68.2974 580.667 54.1695C566.549 40.0417 558.617 20.8802 558.617 0.900391L709.175 0.900417C729.14 0.901674 748.287 8.83918 762.404 22.9669C776.521 37.0946 784.452 56.2554 784.452 76.2344Z" fill="#D4F70E"/>
<path d="M795.275 87.001C795.275 106.98 803.206 126.141 817.323 140.269C831.44 154.396 850.587 162.333 870.551 162.333L870.551 87.001L795.275 87.001Z" fill="#D4F70E"/>
<path d="M75.2765 76.2344C75.2765 56.2553 67.3456 37.0946 53.2285 22.9673C39.1114 8.83995 19.9646 0.90333 6.58505e-06 0.903328L0 76.2344L75.2765 76.2344Z" fill="#D4F70E"/>
<path d="M311.372 0.90336C311.372 20.8824 303.441 40.0431 289.324 54.1704C275.207 68.2977 256.06 76.2344 236.095 76.2344L160.819 76.2344C150.933 76.235 141.144 74.2869 132.01 70.5015C122.877 66.716 114.578 61.1673 107.587 54.1721C100.597 47.1769 95.0514 38.8722 91.2681 29.7323C87.4848 20.5924 85.5376 10.7963 85.5376 0.90332L311.372 0.90336Z" fill="#D4F70E"/>
<path d="M548.959 87.002C548.959 96.8972 547.011 106.696 543.227 115.837C539.442 124.979 533.895 133.285 526.902 140.281C519.909 147.277 511.607 152.825 502.471 156.61C493.334 160.395 483.543 162.341 473.654 162.338H323.097V87.002L548.959 87.002Z" fill="#D4F70E"/>
<path d="M89.1753 159.338L236.666 159.338C255.836 159.338 274.22 151.717 287.776 138.152C300.623 125.295 308.135 108.097 308.885 90.002L161.39 90.002C142.221 90.0032 123.838 97.6242 110.283 111.189C97.4366 124.046 89.9251 141.244 89.1753 159.338Z" stroke="#D4F70E" stroke-width="6"/>
<path d="M72.2323 90.002C71.4824 108.095 63.9709 125.293 51.1244 138.149C38.2785 151.004 21.0956 158.52 3.01794 159.271L3.01794 90.002L72.2323 90.002Z" stroke="#D4F70E" stroke-width="6"/>
<path d="M798.351 73.2353C799.101 55.1419 806.612 37.9446 819.459 25.0888C832.304 12.2336 849.487 4.71749 867.565 3.96658L867.565 73.2354L798.351 73.2353Z" stroke="#D4F70E" stroke-width="6"/>
<path d="M559.193 162.334C559.193 142.355 567.124 123.194 581.241 109.067C595.358 94.9396 614.505 87.0029 634.47 87.0029L709.746 87.0029C719.632 87.0023 729.421 88.9504 738.555 92.7358C747.688 96.5213 755.987 102.07 762.978 109.065C769.968 116.06 775.514 124.365 779.297 133.505C783.08 142.645 785.027 152.441 785.027 162.334L559.193 162.334Z" fill="#D4F70E"/>
<path d="M548.954 431.062C548.954 440.958 547.006 450.756 543.222 459.898C539.437 469.04 533.89 477.346 526.897 484.341C519.904 491.337 511.602 496.886 502.466 500.671C493.329 504.455 483.538 506.402 473.649 506.398H323.092V431.062H548.954Z" fill="#D4F70E"/>
<path d="M89.1699 434.063L236.661 434.063C255.83 434.063 274.215 441.683 287.771 455.248C300.618 468.105 308.13 485.304 308.88 503.398L161.384 503.398C142.216 503.397 123.832 495.776 110.278 482.211C97.4312 469.354 89.9198 452.156 89.1699 434.063Z" stroke="#D4F70E" stroke-width="6"/>
<path d="M75.2894 431.062C75.2894 451.042 67.3585 470.203 53.2414 484.33C39.1244 498.458 19.9775 506.395 0.0129395 506.395L0.0129395 431.062H75.2894Z" fill="#D4F70E"/>
<path d="M795.284 420.295C795.284 400.316 803.215 381.156 817.332 367.029C831.449 352.901 850.596 344.965 870.56 344.965L870.56 420.295L795.284 420.295Z" fill="#D4F70E"/>
<path d="M559.188 506.395C559.188 486.415 567.119 467.254 581.236 453.127C595.353 438.999 614.5 431.063 634.465 431.063L709.741 431.063C719.627 431.062 729.416 433.01 738.55 436.795C747.683 440.581 755.982 446.13 762.973 453.125C769.963 460.12 775.508 468.425 779.292 477.565C783.075 486.705 785.022 496.501 785.022 506.395L559.188 506.395Z" fill="#D4F70E"/>
</svg>
