<svg width="279" height="52" viewBox="0 0 279 52" fill="none" xmlns="http://www.w3.org/2000/svg">
<path fill-rule="evenodd" clip-rule="evenodd" d="M51.9325 8.6088V1.46056H67.8406V4.87331C67.8406 8.5444 68.7422 12.2799 76.2132 12.2799C83.5554 12.2799 84.3282 8.67321 84.3282 5.06653V1.46056H100.494V8.28678C100.494 20.2661 92.3789 26.2558 76.2132 26.2558C59.9188 26.2558 51.9325 20.3949 51.9325 8.6088ZM48.8834 31.6872C48.8834 41.2192 42.7005 47.7241 27.3721 47.7241C11.2709 47.7241 2.6406 41.348 0 32.5889L15.1996 29.3687C16.9385 34.5855 22.9282 36.1956 26.7925 36.1956C29.6263 36.1956 32.7177 35.6804 32.7177 33.4906C32.7177 31.8161 32.2025 30.9144 23.5078 29.6263C8.69467 27.4365 3.02703 22.7994 3.02703 14.8775C3.02703 4.76596 12.9454 1.90735e-06 23.8298 1.90735e-06C33.1686 1.90735e-06 40.9616 2.70501 46.9512 8.30824L36.3244 16.7453C33.233 13.3318 28.0162 11.1421 23.5722 11.1421C20.7384 11.1421 19.1927 11.7861 19.1927 13.0742C19.1927 14.4911 20.7384 15.5216 27.2433 16.4877C36.0024 17.7758 48.8834 19.7723 48.8834 31.6872ZM120.933 46.3072V32.2669H130.594C141.736 32.2669 151.59 29.6263 151.59 16.5521C151.59 3.47787 141.414 1.41691 130.594 1.41691H105.09V46.3072H120.933ZM120.933 13.0098H129.886C129.967 13.0098 130.053 13.0094 130.141 13.0091C132.079 13.0007 135.553 12.9856 135.553 16.6809C135.553 20.6332 132.001 20.6182 130.118 20.6103L130.117 20.6103C130.037 20.6099 129.96 20.6096 129.886 20.6096H120.933V13.0098ZM192.839 34.7143V46.3072H154.84V1.41691H192.839V13.0098H170.748V17.8402H192.131V29.5619H170.748V34.7143H192.839ZM236.31 30.2059C241.141 28.0806 244.361 24.0231 244.361 16.5521C244.361 3.47787 234.185 1.41691 223.365 1.41691H197.861V46.3072H213.704V32.2669H220.789L228.582 46.3072H246.358L236.31 30.2059ZM222.912 13.0091L222.912 13.0091C224.849 13.0007 228.324 12.9856 228.324 16.6809C228.324 20.6332 224.771 20.6182 222.889 20.6103L222.888 20.6103L222.792 20.6099L222.657 20.6096H213.704V13.0098H222.657C222.738 13.0098 222.823 13.0094 222.912 13.0091Z" fill="white"/>
<path fill-rule="evenodd" clip-rule="evenodd" d="M54.1252 48.694H70.0333V29.6108H54.1252V48.694ZM86.5209 48.694V29.6108H102.687V48.694H86.5209Z" fill="white"/>
</svg>
