<svg width="28" height="21" viewBox="0 0 28 21" fill="none" xmlns="http://www.w3.org/2000/svg">
<path fill-rule="evenodd" clip-rule="evenodd" d="M26.4734 2.52548C26.9082 2.96897 27.2215 3.5209 27.3821 4.12631C28.3069 7.92339 28.0932 13.9203 27.4 17.8639C27.2394 18.4693 26.9261 19.0213 26.4913 19.4648C26.0566 19.9082 25.5155 20.2278 24.9219 20.3916C22.7491 20.9961 14.0038 20.9961 14.0038 20.9961C14.0038 20.9961 5.25852 20.9961 3.08567 20.3916C2.49214 20.2278 1.95103 19.9082 1.51624 19.4648C1.08145 19.0213 0.768156 18.4693 0.607546 17.8639C-0.322649 14.0833 -0.0676528 8.08275 0.58959 4.14463C0.750198 3.53922 1.0635 2.98728 1.49829 2.54379C1.93307 2.1003 2.47418 1.78073 3.06771 1.61692C5.24057 1.01245 13.9858 0.994141 13.9858 0.994141C13.9858 0.994141 22.7311 0.994141 24.904 1.59859C25.4975 1.76242 26.0386 2.08199 26.4734 2.52548ZM18.4572 10.9951L11.2024 15.2812V6.70897L18.4572 10.9951Z" fill="#343434"/>
</svg>
