<svg width="76" height="80" viewBox="0 0 76 80" fill="none" xmlns="http://www.w3.org/2000/svg">
<path d="M-4.35143 37.3828C-4.35142 27.4685 -0.415468 17.9603 6.59057 10.9498C13.5966 3.93933 23.0988 0.000891773 33.0068 0.000892639L33.0068 37.3828L-4.35143 37.3828Z" fill="#323638"/>
<path d="M75.7337 0C75.7337 9.9143 71.7978 19.4225 64.7918 26.433C57.7857 33.4435 48.2835 37.3819 38.3755 37.3819V0H75.7337Z" fill="#323638"/>
<path d="M-4.56139 42.6177C-4.56138 52.532 -0.625428 62.0402 6.38061 69.0507C13.3866 76.0612 22.8889 79.9996 32.7969 79.9996L32.7969 42.6177L-4.56139 42.6177Z" fill="#323638"/>
<path d="M75.5052 79.999C75.5052 70.0847 71.5693 60.5765 64.5632 53.566C57.5572 46.5555 48.055 42.6171 38.147 42.6171L38.147 79.999L75.5052 79.999Z" fill="#323638"/>
</svg>
