<svg width="74" height="80" viewBox="0 0 74 80" fill="none" xmlns="http://www.w3.org/2000/svg">
<path d="M80.0861 42.6177C80.0861 52.5321 76.1501 62.0405 69.1439 69.051C62.1378 76.0616 52.6355 80.0001 42.7273 80.0001L42.7273 42.6177L80.0861 42.6177Z" fill="#323638"/>
<path d="M-0.000125885 80.0005C-0.000125018 70.086 3.93588 60.5777 10.942 53.5671C17.9481 46.5566 27.4505 42.6181 37.3586 42.6181L37.3586 80.0005L-0.000125885 80.0005Z" fill="#323638"/>
<path d="M80.296 37.3823C80.296 27.4679 76.36 17.9595 69.3539 10.949C62.3478 3.93839 52.8454 -9.62336e-05 42.9373 -9.53674e-05L42.9373 37.3823L80.296 37.3823Z" fill="#323638"/>
<path d="M0.22839 0C0.22839 9.91444 4.1644 19.4228 11.1705 26.4334C18.1767 33.4439 27.679 37.3824 37.5872 37.3824V0L0.22839 0Z" fill="#323638"/>
</svg>
