<svg width="316" height="176" viewBox="0 0 316 176" fill="none" xmlns="http://www.w3.org/2000/svg">
<path d="M18.176 48.1479C18.2853 48.1479 18.3556 48.0464 18.3868 47.8434C18.4337 47.6404 18.3634 47.2733 18.176 46.7424C18.1135 46.5394 17.973 46.1802 17.7543 45.6647C17.5513 45.1494 17.3092 44.5559 17.0281 43.8844C16.747 43.2129 16.4581 42.5336 16.1614 41.8463C15.8803 41.1592 15.6225 40.5267 15.3883 39.9488C15.154 39.371 14.9745 38.9337 14.8495 38.637C14.6465 38.106 14.4279 37.7312 14.1936 37.5126C13.975 37.2939 13.7954 37.1846 13.6548 37.1846H18.4337C18.34 37.1846 18.2775 37.2939 18.2463 37.5126C18.215 37.7312 18.2775 38.106 18.4337 38.637C18.5118 38.9181 18.6367 39.332 18.8085 39.8786C18.9959 40.4252 19.199 41.042 19.4175 41.7292C19.6518 42.4164 19.8861 43.1192 20.1204 43.8376C20.3702 44.5559 20.5967 45.2197 20.7997 45.8287H20.8231C20.995 45.2041 21.1823 44.5325 21.3854 43.8142C21.5884 43.0801 21.7836 42.3696 21.971 41.6824C22.1584 40.9796 22.3224 40.3549 22.463 39.8083C22.6191 39.2617 22.7285 38.8557 22.7909 38.5902C22.9315 38.0592 22.9861 37.6922 22.9549 37.4892C22.9236 37.2861 22.869 37.1846 22.7909 37.1846H27.9915C27.8978 37.1846 27.8353 37.2939 27.804 37.5126C27.7728 37.7312 27.8353 38.106 27.9915 38.637C28.0695 38.9181 28.1867 39.332 28.3429 39.8786C28.499 40.4252 28.6708 41.042 28.8582 41.7292C29.0456 42.4164 29.2409 43.1192 29.4439 43.8376C29.6469 44.5559 29.8265 45.2197 29.9826 45.8287H30.0061C30.2404 45.2041 30.4825 44.5325 30.7323 43.8142C30.9978 43.0801 31.2555 42.3696 31.5054 41.6824C31.7552 40.9796 31.9739 40.3549 32.1613 39.8083C32.3487 39.2617 32.4736 38.8557 32.5361 38.5902C32.6766 38.0904 32.7314 37.7312 32.7 37.5126C32.6688 37.2939 32.6142 37.1846 32.5361 37.1846H37.1979C37.0885 37.1846 36.9323 37.2861 36.7293 37.4892C36.5264 37.6922 36.3155 38.0513 36.0968 38.5667C35.9875 38.8478 35.8079 39.2617 35.558 39.8083C35.3082 40.3549 35.0348 40.964 34.7381 41.6355C34.4415 42.307 34.1446 42.9787 33.848 43.6502C33.5512 44.3217 33.2857 44.9307 33.0515 45.4774C32.8328 46.024 32.6766 46.4457 32.583 46.7424C32.4268 47.2422 32.3643 47.6013 32.3955 47.82C32.4268 48.0387 32.4892 48.1479 32.583 48.1479H27.359C27.4526 48.1479 27.5151 48.0387 27.5464 47.82C27.5776 47.6013 27.5151 47.2422 27.359 46.7424C27.3121 46.6018 27.2184 46.2817 27.0779 45.7819C26.9529 45.2822 26.7967 44.6809 26.6093 43.9781C26.422 43.2597 26.2267 42.5178 26.0237 41.7527C25.8207 40.9874 25.6255 40.2612 25.438 39.5741H25.3678C25.1804 40.23 24.9851 40.9327 24.7821 41.6824C24.5791 42.4164 24.3839 43.1347 24.1965 43.8376C24.009 44.5247 23.8372 45.1338 23.6811 45.6647C23.5405 46.1802 23.4468 46.5394 23.4 46.7424C23.2595 47.2577 23.2047 47.6247 23.236 47.8434C23.2673 48.0464 23.3219 48.1479 23.4 48.1479H18.176ZM42.4002 48.3822C40.7605 48.3822 39.472 48.1557 38.535 47.7028C37.6135 47.2499 36.9655 46.6018 36.5906 45.7585C36.2158 44.8996 36.0284 43.8766 36.0284 42.6897C36.0284 40.9249 36.5203 39.5272 37.5042 38.4964C38.4881 37.4657 39.9952 36.9503 42.0255 36.9503C43.2123 36.9503 44.1728 37.1143 44.9068 37.4422C45.6565 37.7702 46.2265 38.2075 46.6169 38.7542C47.0073 39.3007 47.2728 39.9098 47.4134 40.5813C47.5695 41.2372 47.6476 41.9011 47.6476 42.5726V43.6736C47.6476 43.6267 47.429 43.5799 46.9917 43.533C46.57 43.4706 45.8517 43.4393 44.8365 43.4393H39.4017C39.4017 44.2982 39.6594 44.9464 40.1748 45.3837C40.7057 45.8053 41.5647 46.0162 42.7516 46.0162C43.7511 46.0162 44.6413 45.8991 45.4222 45.6647C46.2186 45.4149 46.7965 45.1807 47.1557 44.962V45.6647L47.39 47.4452C47.0933 47.6482 46.5232 47.859 45.6799 48.0777C44.8365 48.2807 43.7434 48.3822 42.4002 48.3822ZM40.2685 41.4247H44.3211C44.3211 41.0812 44.243 40.7453 44.0869 40.4174C43.9464 40.0894 43.7121 39.8239 43.3841 39.6209C43.0561 39.4022 42.6032 39.2929 42.0255 39.2929C41.1665 39.2929 40.5496 39.4725 40.1748 39.8317C39.8 40.1909 39.6125 40.5657 39.6125 40.9562C39.6125 41.1123 39.6594 41.2294 39.7531 41.3076C39.8468 41.3857 40.0186 41.4247 40.2685 41.4247ZM53.3028 48.3822C52.2252 48.3822 51.4444 48.1557 50.9602 47.7028C50.476 47.2343 50.234 46.4768 50.234 45.4305V39.5272H48.1256V37.1846C48.8441 37.1846 49.4063 37.0987 49.8123 36.9269C50.2184 36.7395 50.5074 36.4193 50.679 35.9664C50.8509 35.5136 50.9367 34.8811 50.9367 34.0689H53.5605V37.1846H57.5663C57.457 37.4969 57.3477 37.8874 57.2383 38.3559C57.1446 38.8088 57.0978 39.1992 57.0978 39.5272H53.5605V44.1421C53.5605 44.8605 53.6151 45.3524 53.7245 45.6179C53.8338 45.8835 54.0915 46.0162 54.4975 46.0162C54.763 46.0162 55.052 45.9225 55.3642 45.7351C55.6922 45.5477 56.0046 45.3212 56.3013 45.0557C56.6136 44.7746 56.8714 44.5091 57.0744 44.2592V44.9854L57.3086 47.2577C57.0275 47.5076 56.5355 47.7575 55.8328 48.0074C55.13 48.2572 54.2866 48.3822 53.3028 48.3822ZM57.8853 48.1479C57.9947 48.1479 58.0961 48.0387 58.1898 47.82C58.2992 47.6013 58.3538 47.2422 58.3538 46.7424V38.8244C58.3538 38.3247 58.2992 37.9732 58.1898 37.7702C58.0961 37.5516 57.9947 37.4345 57.8853 37.4188C58.5725 37.4188 59.2753 37.372 59.9936 37.2783C60.712 37.169 61.2743 37.0597 61.6803 36.9503V37.8874L61.6335 38.2856L61.6803 38.3325C61.7897 38.1607 61.9614 37.9732 62.1956 37.7702C62.4456 37.5516 62.7579 37.3642 63.1327 37.208C63.5232 37.0362 63.976 36.9503 64.4914 36.9503C65.2567 36.9503 65.936 37.0597 66.5295 37.2783C67.123 37.4813 67.5446 37.6922 67.7945 37.9108L67.0917 41.0499V41.7527C66.8574 41.4247 66.5373 41.0889 66.1312 40.7453C65.7408 40.4017 65.3035 40.1128 64.8194 39.8786C64.3509 39.6443 63.8667 39.5272 63.367 39.5272C62.8047 39.5272 62.383 39.7302 62.102 40.1362C61.8209 40.5423 61.6803 41.1826 61.6803 42.0572V46.7424C61.6803 47.2422 61.7271 47.6013 61.8209 47.82C61.9302 48.0387 62.0395 48.1479 62.1488 48.1479H57.8853ZM72.1759 48.3822C70.7704 48.3822 69.6459 48.1089 68.8025 47.5623C67.9748 47.0001 67.561 46.102 67.561 44.8683C67.561 44.0094 67.7795 43.3143 68.217 42.7834C68.6542 42.2524 69.2477 41.8619 69.9973 41.6121C70.7625 41.3466 71.6293 41.2138 72.5975 41.2138C73.6752 41.2138 74.5185 41.3388 75.1275 41.5887C75.7366 41.8385 76.1192 42.0103 76.2755 42.1041C76.2755 41.1357 76.1036 40.4252 75.76 39.9722C75.4165 39.5194 74.7528 39.2929 73.7689 39.2929C72.8161 39.2929 71.9728 39.3867 71.2389 39.5741C70.5048 39.7614 69.9036 39.9801 69.435 40.23C68.9821 40.4798 68.6698 40.6907 68.498 40.8625V40.1597L68.2638 37.8639C68.373 37.8015 68.662 37.7 69.1305 37.5594C69.599 37.4188 70.2393 37.2861 71.0515 37.1612C71.8635 37.0206 72.8319 36.9503 73.9563 36.9503C75.5024 36.9503 76.6815 37.1767 77.4936 37.6297C78.3056 38.067 78.86 38.6995 79.1569 39.5272C79.4691 40.3549 79.6254 41.3544 79.6254 42.5257V46.7424C79.6254 47.1797 79.6722 47.4998 79.7659 47.7028C79.8752 47.8902 79.9845 48.0387 80.0939 48.1479H76.2989V47.656L76.3457 47.2109L76.2989 47.1641C76.049 47.4296 75.5727 47.7028 74.8699 47.9839C74.1827 48.2495 73.2847 48.3822 72.1759 48.3822ZM73.277 46.0162C74.2451 46.0162 74.987 45.9069 75.5024 45.6882C76.0334 45.4539 76.2989 45.1572 76.2989 44.798C76.2989 44.4388 76.0255 44.1421 75.479 43.9078C74.9479 43.6736 74.2217 43.5564 73.3004 43.5564C72.4102 43.5564 71.7777 43.6814 71.4029 43.9312C71.0436 44.1811 70.864 44.4935 70.864 44.8683C70.864 45.3368 71.0749 45.6492 71.4965 45.8053C71.9182 45.9459 72.5116 46.0162 73.277 46.0162ZM81.0843 48.1479C81.1937 48.1479 81.2951 48.0387 81.3888 47.82C81.4982 47.6013 81.5528 47.2422 81.5528 46.7424V38.8244C81.5528 38.3247 81.4982 37.9732 81.3888 37.7702C81.2951 37.5516 81.1937 37.4345 81.0843 37.4188C81.7715 37.4188 82.4743 37.372 83.1926 37.2783C83.911 37.169 84.4735 37.0597 84.8794 36.9503V38.3793L84.8327 38.6838L84.8794 38.7307C84.926 38.6214 85.0744 38.4262 85.3244 38.1451C85.5744 37.8639 85.9335 37.5984 86.4019 37.3486C86.8702 37.0831 87.4485 36.9503 88.1352 36.9503C89.5877 36.9503 90.6969 37.3642 91.4619 38.1919C92.2427 39.0197 92.6335 40.3158 92.6335 42.0806V46.7424C92.6335 47.2422 92.6802 47.6013 92.7735 47.82C92.8835 48.0387 92.9927 48.1479 93.1019 48.1479H88.8385C88.9477 48.1479 89.0494 48.0387 89.1427 47.82C89.2519 47.6013 89.3069 47.2422 89.3069 46.7424V42.1509C89.3069 41.042 89.1352 40.2924 88.791 39.902C88.4477 39.4959 88.0102 39.2929 87.4794 39.2929C86.8077 39.2929 86.2069 39.535 85.676 40.0192C85.1452 40.4877 84.8794 41.2686 84.8794 42.3617V46.7424C84.8794 47.2422 84.926 47.6013 85.0202 47.82C85.1294 48.0387 85.2385 48.1479 85.3477 48.1479H81.0843ZM99.9594 48.3822C98.5694 48.3822 97.3977 48.3041 96.4452 48.1479C95.4927 47.9918 94.8369 47.8356 94.4777 47.6794V46.9767L93.9852 44.6809C94.3919 44.9776 95.1494 45.2744 96.2577 45.5711C97.3669 45.8677 98.7252 46.0162 100.334 46.0162C101.068 46.0162 101.575 45.9459 101.857 45.8053C102.154 45.6647 102.302 45.4227 102.302 45.0792C102.302 44.8136 102.2 44.6106 101.997 44.4701C101.81 44.3295 101.466 44.2202 100.967 44.1421C100.467 44.0484 99.7402 43.9391 98.7877 43.8142C97.5852 43.658 96.6327 43.4393 95.9302 43.1582C95.2269 42.8615 94.7277 42.4867 94.431 42.0337C94.1494 41.5652 94.0094 40.9952 94.0094 40.3237C94.0094 39.699 94.1577 39.1367 94.4544 38.637C94.766 38.1217 95.2977 37.7156 96.0469 37.4188C96.8127 37.1065 97.8744 36.9503 99.2327 36.9503C100.514 36.9503 101.638 37.0284 102.606 37.1846C103.574 37.3407 104.269 37.4969 104.691 37.6531V38.3559L105.159 40.4174C104.8 40.1831 104.098 39.9411 103.051 39.6912C102.005 39.4413 100.678 39.3163 99.0694 39.3163C98.4444 39.3163 97.9994 39.3788 97.7335 39.5037C97.4685 39.6287 97.3352 39.8473 97.3352 40.1597C97.3352 40.3627 97.421 40.5345 97.5935 40.6751C97.7652 40.8 98.101 40.9172 98.6002 41.0264C99.116 41.1357 99.881 41.2607 100.896 41.4012C102.224 41.5731 103.224 41.8151 103.894 42.1275C104.566 42.4242 105.019 42.799 105.254 43.2519C105.488 43.6892 105.605 44.2202 105.605 44.8449C105.605 46.0474 105.152 46.9377 104.246 47.5154C103.34 48.0932 101.911 48.3822 99.9594 48.3822ZM106.974 48.1479C107.084 48.1479 107.185 48.0387 107.279 47.82C107.388 47.6013 107.443 47.2422 107.443 46.7424V39.5272H105.334V37.1846H107.677L107.7 37.1377C107.654 37.0597 107.56 36.802 107.419 36.3647C107.279 35.9117 107.209 35.3808 107.209 34.7717C107.209 33.538 107.56 32.6477 108.263 32.1012C108.981 31.5546 109.957 31.2812 111.191 31.2812C112.19 31.2812 113.073 31.3359 113.838 31.4453C114.604 31.5389 115.158 31.6405 115.502 31.7497V32.476L115.97 35.0294C115.689 34.8264 115.321 34.6233 114.869 34.4203C114.431 34.2017 113.963 34.0221 113.464 33.8816C112.964 33.7254 112.464 33.6472 111.964 33.6472C111.464 33.6472 111.105 33.7644 110.886 33.9987C110.684 34.2329 110.582 34.5765 110.582 35.0294V36.4818C110.582 36.8254 110.613 37.0284 110.675 37.0909C110.738 37.1533 110.949 37.1846 111.308 37.1846H114.822C114.713 37.3252 114.604 37.5984 114.494 38.0045C114.4 38.3949 114.354 38.9025 114.354 39.5272H110.816V46.7424C110.816 47.2422 110.863 47.6013 110.957 47.82C111.066 48.0387 111.175 48.1479 111.284 48.1479H106.974ZM120.577 48.3822C118.937 48.3822 117.649 48.1557 116.712 47.7028C115.79 47.2499 115.142 46.6018 114.767 45.7585C114.393 44.8996 114.205 43.8766 114.205 42.6897C114.205 40.9249 114.697 39.5272 115.681 38.4964C116.664 37.4657 118.172 36.9503 120.202 36.9503C121.389 36.9503 122.349 37.1143 123.084 37.4422C123.833 37.7702 124.404 38.2075 124.794 38.7542C125.184 39.3007 125.449 39.9098 125.59 40.5813C125.746 41.2372 125.824 41.9011 125.824 42.5726V43.6736C125.824 43.6267 125.605 43.5799 125.169 43.533C124.747 43.4706 124.029 43.4393 123.013 43.4393H117.579C117.579 44.2982 117.836 44.9464 118.351 45.3837C118.882 45.8053 119.742 46.0162 120.929 46.0162C121.928 46.0162 122.818 45.8991 123.599 45.6647C124.395 45.4149 124.973 45.1807 125.333 44.962V45.6647L125.567 47.4452C125.27 47.6482 124.7 47.859 123.857 48.0777C123.014 48.2807 121.92 48.3822 120.577 48.3822ZM118.445 41.4247H122.498C122.498 41.0812 122.419 40.7453 122.264 40.4174C122.123 40.0894 121.889 39.8239 121.561 39.6209C121.233 39.4022 120.779 39.2929 120.202 39.2929C119.344 39.2929 118.726 39.4725 118.351 39.8317C117.977 40.1909 117.789 40.5657 117.789 40.9562C117.789 41.1123 117.836 41.2294 117.929 41.3076C118.024 41.3857 118.195 41.4247 118.445 41.4247ZM126.864 48.1479C126.974 48.1479 127.075 48.0387 127.169 47.82C127.279 47.6013 127.333 47.2422 127.333 46.7424V38.8244C127.333 38.3247 127.279 37.9732 127.169 37.7702C127.075 37.5516 126.974 37.4345 126.864 37.4188C127.552 37.4188 128.254 37.372 128.973 37.2783C129.692 37.169 130.254 37.0597 130.659 36.9503V37.8874L130.612 38.2856L130.659 38.3325C130.769 38.1607 130.94 37.9732 131.174 37.7702C131.425 37.5516 131.737 37.3642 132.112 37.208C132.503 37.0362 132.955 36.9503 133.47 36.9503C134.236 36.9503 134.915 37.0597 135.509 37.2783C136.102 37.4813 136.524 37.6922 136.774 37.9108L136.07 41.0499V41.7527C135.836 41.4247 135.516 41.0889 135.11 40.7453C134.72 40.4017 134.283 40.1128 133.799 39.8786C133.329 39.6443 132.846 39.5272 132.346 39.5272C131.784 39.5272 131.362 39.7302 131.081 40.1362C130.799 40.5423 130.659 41.1826 130.659 42.0572V46.7424C130.659 47.2422 130.706 47.6013 130.799 47.82C130.909 48.0387 131.019 48.1479 131.128 48.1479H126.864Z" fill="#595959"/>
<path d="M214.184 42.2402L216.893 41.5003C216.938 42.0968 217.216 42.6514 217.669 43.0435C218.198 43.4829 218.875 43.7061 219.562 43.6682C220.075 43.6974 220.583 43.5588 221.009 43.2737C221.17 43.1669 221.301 43.0225 221.392 42.8532C221.484 42.6838 221.532 42.4946 221.533 42.3022C221.534 42.1427 221.499 41.985 221.432 41.8404C221.365 41.6957 221.266 41.5676 221.144 41.4653C220.81 41.2014 220.411 41.032 219.99 40.975L218.044 40.5386C217.044 40.3544 216.129 39.8553 215.433 39.1144C214.831 38.4414 214.505 37.5668 214.52 36.6648C214.519 36.1016 214.645 35.5454 214.887 35.0369C215.129 34.5284 215.482 34.0804 215.92 33.7257C216.868 32.9027 218.091 32.4651 219.346 32.4994C219.984 32.4922 220.62 32.5801 221.232 32.7602C221.723 32.8989 222.189 33.1161 222.611 33.4036C222.959 33.6533 223.266 33.9538 223.524 34.2951C223.751 34.5864 223.941 34.9053 224.088 35.2442C224.204 35.5241 224.287 35.8169 224.334 36.1162L221.76 36.856C221.731 36.6436 221.669 36.4371 221.576 36.244C221.469 36.0224 221.332 35.8162 221.169 35.6313C220.968 35.4091 220.716 35.2387 220.435 35.1343C220.088 35.0009 219.718 34.9359 219.346 34.943C218.856 34.9251 218.376 35.0816 217.991 35.3847C217.826 35.5063 217.691 35.6645 217.598 35.8469C217.504 36.0294 217.455 36.2311 217.452 36.4361C217.451 36.5982 217.482 36.7589 217.544 36.9085C217.607 37.0581 217.699 37.1934 217.816 37.3059C218.084 37.5608 218.423 37.7281 218.789 37.7857L220.771 38.1929C221.805 38.3624 222.762 38.8468 223.51 39.5798C224.135 40.2273 224.477 41.0958 224.462 41.995C224.462 42.5368 224.357 43.0733 224.152 43.5749C223.939 44.0929 223.637 44.5695 223.258 44.9827C222.829 45.4382 222.303 45.7917 221.719 46.0169C221.039 46.2869 220.314 46.4208 219.583 46.4107C218.761 46.4236 217.944 46.28 217.176 45.9878C216.542 45.7558 215.969 45.3836 215.499 44.899C215.123 44.5018 214.808 44.0509 214.565 43.5613C214.362 43.1463 214.233 42.6994 214.184 42.2402Z" fill="#595959"/>
<path d="M224.469 35.655V32.9095H225.143C225.421 32.9295 225.7 32.8891 225.961 32.7911C226.222 32.693 226.459 32.5397 226.655 32.3415C227.01 31.9265 227.193 31.3921 227.168 30.847V28.8638H229.996V32.9095H232.718V35.655H229.996V41.7648C229.975 41.9914 229.999 42.2201 230.068 42.4371C230.137 42.6542 230.249 42.8552 230.397 43.0284C230.754 43.3191 231.21 43.4591 231.669 43.4184C232.031 43.4192 232.392 43.3837 232.747 43.3124V45.877C232.13 46.0959 231.477 46.1933 230.823 46.1639C230.296 46.1929 229.77 46.1158 229.274 45.937C228.778 45.7583 228.323 45.4818 227.936 45.1238C227.574 44.7424 227.293 44.2909 227.112 43.7972C226.93 43.3034 226.852 42.7778 226.882 42.2527V35.655H224.469Z" fill="#595959"/>
<path d="M233.493 42.4924C233.471 41.9898 233.556 41.4882 233.745 41.0216C233.933 40.5551 234.22 40.1343 234.585 39.788C235.388 39.0793 236.388 38.6336 237.453 38.5109L240.819 37.9982C241.468 37.9166 241.792 37.6218 241.792 37.1141C241.799 36.8576 241.746 36.603 241.639 36.3697C241.531 36.1366 241.372 35.9311 241.173 35.7691C240.634 35.3822 239.975 35.197 239.313 35.246C238.621 35.2105 237.943 35.4455 237.421 35.9014C236.951 36.337 236.662 36.933 236.61 37.5715L233.767 36.9416C233.826 36.3324 234.005 35.7408 234.294 35.2009C234.582 34.6609 234.975 34.1831 235.448 33.7948C236.519 32.9066 237.881 32.4456 239.272 32.5005C240.153 32.4844 241.03 32.6217 241.864 32.9063C242.535 33.1301 243.141 33.5131 243.631 34.0227C244.058 34.4834 244.386 35.0263 244.595 35.6181C244.808 36.2381 244.914 36.8899 244.908 37.5454V43.904C244.897 44.608 244.954 45.3115 245.078 46.0046H242.124C241.997 45.4579 241.947 44.8963 241.975 44.3359C241.581 44.9458 241.045 45.4508 240.412 45.8073C239.654 46.2297 238.795 46.4386 237.927 46.4118C236.747 46.4638 235.595 46.0496 234.719 45.2588C234.329 44.9115 234.018 44.485 233.807 44.0079C233.595 43.5307 233.488 43.0141 233.493 42.4924ZM236.61 42.2681C236.606 42.4924 236.649 42.7149 236.737 42.9215C236.824 43.1281 236.954 43.3141 237.117 43.4676C237.308 43.6381 237.53 43.7693 237.771 43.8536C238.012 43.9381 238.267 43.974 238.523 43.9592C238.946 43.9641 239.369 43.9041 239.774 43.7814C240.151 43.6641 240.502 43.477 240.81 43.2299C241.142 42.9515 241.392 42.5884 241.535 42.1792C241.717 41.6626 241.804 41.1173 241.792 40.5696V39.9785L238.374 40.5016C237.901 40.5629 237.456 40.7611 237.094 41.0718C236.932 41.2241 236.805 41.4096 236.721 41.6158C236.638 41.822 236.6 42.0437 236.61 42.2659V42.2681Z" fill="#595959"/>
<path d="M247.015 46.0065V32.9097H250.028V34.5418C250.4 33.8915 250.966 33.3732 251.647 33.0584C252.346 32.7109 253.116 32.5299 253.897 32.5294C254.732 32.5142 255.556 32.7139 256.291 33.1092C256.985 33.4866 257.537 34.0798 257.862 34.7988C258.293 34.0673 258.918 33.4684 259.667 33.0681C260.416 32.6678 261.261 32.4814 262.109 32.5294C262.687 32.525 263.261 32.625 263.803 32.8245C264.335 33.024 264.824 33.3228 265.245 33.7048C265.709 34.1387 266.062 34.6767 266.275 35.2741C266.539 35.9888 266.668 36.7461 266.655 37.5077V46.0065H263.723V37.9808C263.759 37.2706 263.535 36.5715 263.094 36.0139C262.854 35.7571 262.56 35.5573 262.234 35.4292C261.906 35.3012 261.554 35.2482 261.204 35.2741C260.836 35.2615 260.469 35.3301 260.13 35.4749C259.791 35.6199 259.489 35.8376 259.244 36.1125C258.735 36.6836 258.464 37.4276 258.489 38.1915V46.0065H255.372V37.9808C255.405 37.2739 255.184 36.5785 254.749 36.0206C254.51 35.7606 254.215 35.5583 253.887 35.4288C253.559 35.2993 253.205 35.2462 252.854 35.2734C252.484 35.2582 252.116 35.3239 251.774 35.4659C251.434 35.6079 251.128 35.8228 250.879 36.0954C250.372 36.6744 250.107 37.4253 250.137 38.1937V46.0087L247.015 46.0065Z" fill="#595959"/>
<path d="M268.9 51.1182V32.9093H271.938V34.6639C272.322 34.0257 272.883 33.5124 273.553 33.1865C274.341 32.7882 275.214 32.5894 276.097 32.6074C276.933 32.5672 277.768 32.7182 278.538 33.0489C279.308 33.3796 279.992 33.8814 280.538 34.5159C281.656 35.9066 282.23 37.6556 282.154 39.4375C282.225 41.2414 281.623 43.0075 280.465 44.3935C279.913 45.0316 279.224 45.5375 278.45 45.8738C277.675 46.2101 276.835 46.3682 275.991 46.3364C275.165 46.3523 274.346 46.1789 273.597 45.8298C272.967 45.5446 272.422 45.1004 272.015 44.5407V51.1167L268.9 51.1182ZM271.991 39.4398C271.939 40.529 272.289 41.5994 272.975 42.4476C273.284 42.8168 273.672 43.1114 274.111 43.3095C274.549 43.5075 275.028 43.6037 275.508 43.5909C275.991 43.6046 276.47 43.5095 276.911 43.3127C277.351 43.1159 277.741 42.8225 278.053 42.4543C278.741 41.6045 279.091 40.5314 279.037 39.4398C279.088 38.3661 278.74 37.3115 278.059 36.479C277.745 36.1131 277.352 35.8224 276.91 35.6284C276.468 35.4344 275.988 35.342 275.506 35.3581C275.026 35.3449 274.548 35.4395 274.11 35.6352C273.672 35.8309 273.283 36.1227 272.973 36.4888C272.292 37.3167 271.942 38.3672 271.991 39.4375V39.4398Z" fill="#595959"/>
<path d="M282.382 42.2402L285.091 41.5004C285.136 42.0969 285.415 42.6514 285.867 43.0435C286.397 43.483 287.074 43.7062 287.762 43.6682C288.274 43.6972 288.782 43.5587 289.208 43.2737C289.369 43.1669 289.499 43.0225 289.591 42.8532C289.683 42.6838 289.731 42.4946 289.732 42.3022C289.733 42.1427 289.698 41.985 289.631 41.8404C289.563 41.6957 289.465 41.5676 289.343 41.4653C289.009 41.2014 288.61 41.0319 288.189 40.975L286.244 40.5386C285.244 40.3546 284.329 39.8554 283.634 39.1144C283.031 38.4418 282.704 37.567 282.718 36.6648C282.718 36.1016 282.844 35.5454 283.086 35.0369C283.329 34.5284 283.682 34.0804 284.119 33.7257C285.068 32.9027 286.29 32.4651 287.545 32.4994C288.184 32.4922 288.819 32.5801 289.431 32.7602C289.923 32.8987 290.389 33.116 290.81 33.4036C291.158 33.6534 291.466 33.9539 291.724 34.2951C291.951 34.5865 292.14 34.9054 292.288 35.2442C292.404 35.5241 292.486 35.8169 292.534 36.1162L289.959 36.856C289.931 36.6437 289.869 36.4371 289.776 36.244C289.669 36.0224 289.531 35.8164 289.369 35.6313C289.167 35.4091 288.915 35.2387 288.634 35.1343C288.287 35.0008 287.917 34.9358 287.545 34.943C287.056 34.9251 286.576 35.0817 286.191 35.3847C286.026 35.5061 285.891 35.6644 285.798 35.8469C285.704 36.0293 285.654 36.231 285.652 36.4361C285.65 36.5982 285.681 36.7589 285.744 36.9085C285.806 37.0581 285.899 37.1934 286.015 37.3059C286.284 37.5606 286.623 37.7279 286.988 37.7857L288.969 38.1929C290.004 38.3623 290.961 38.8467 291.709 39.5799C292.334 40.2275 292.676 41.0959 292.661 41.995C292.661 42.5368 292.555 43.0734 292.35 43.5749C292.138 44.0931 291.835 44.5698 291.457 44.9827C291.028 45.4383 290.502 45.7917 289.917 46.0169C289.239 46.2869 288.513 46.4207 287.782 46.4107C286.96 46.4237 286.143 46.2801 285.375 45.9878C284.741 45.7557 284.168 45.3834 283.699 44.899C283.323 44.5018 283.008 44.0509 282.764 43.5614C282.562 43.1463 282.433 42.6993 282.382 42.2402Z" fill="#595959"/>
<path d="M191.549 32.6705C191.562 32.6348 191.572 32.5978 191.578 32.5599C191.673 31.8879 192.019 31.2766 192.547 30.8494C192.921 30.5517 193.368 30.3599 193.842 30.2942C193.873 30.2895 193.904 30.2818 193.934 30.271C194.027 30.2614 194.12 30.2567 194.214 30.2569C194.859 30.2531 195.483 30.4852 195.969 30.9094C196.454 31.3338 196.768 31.9209 196.85 32.5599C196.858 32.6613 196.905 32.7556 196.981 32.8238C197.056 32.892 197.155 32.9291 197.257 32.9276H197.353C197.455 32.9294 197.554 32.8925 197.629 32.8242C197.705 32.7559 197.752 32.6614 197.76 32.5599C197.839 31.9224 198.149 31.3358 198.631 30.9113C199.114 30.4867 199.736 30.2539 200.379 30.2569C201.024 30.2531 201.648 30.4852 202.134 30.9094C202.619 31.3338 202.933 31.9209 203.015 32.5599C203.023 32.6613 203.07 32.7556 203.146 32.8238C203.221 32.892 203.32 32.9291 203.422 32.9276H203.496C203.598 32.9294 203.697 32.8925 203.773 32.8242C203.848 32.7559 203.895 32.6614 203.903 32.5599C203.985 31.9237 204.296 31.3389 204.778 30.915C205.26 30.4911 205.88 30.2571 206.522 30.2569C207.216 30.2568 207.882 30.5282 208.378 31.0131C208.865 31.5094 209.137 32.1764 209.136 32.8709C209.136 33.5124 208.902 34.1321 208.477 34.6136C208.053 35.0951 207.467 35.4054 206.83 35.4863C206.728 35.4946 206.633 35.5413 206.565 35.6168C206.497 35.6924 206.46 35.791 206.461 35.8929V35.9675C206.46 36.0693 206.497 36.1677 206.565 36.2432C206.634 36.3186 206.728 36.3654 206.83 36.374C207.47 36.4556 208.058 36.7684 208.482 37.2533C208.907 37.7381 209.14 38.3616 209.136 39.0059C209.139 39.6484 208.906 40.2696 208.481 40.7517C208.056 41.2339 207.468 41.5433 206.83 41.6214C206.728 41.6298 206.633 41.6764 206.565 41.7519C206.497 41.8274 206.46 41.9262 206.461 42.0279V42.1251C206.46 42.2268 206.497 42.3252 206.566 42.4005C206.634 42.4759 206.728 42.5228 206.83 42.5316C207.47 42.6132 208.058 42.9259 208.482 43.4109C208.907 43.8957 209.14 44.5191 209.136 45.1635C209.136 45.2502 209.132 45.3354 209.124 45.4199C209.11 45.4556 209.1 45.4926 209.094 45.5304C209 46.2026 208.654 46.814 208.125 47.2409C207.751 47.5388 207.304 47.7305 206.83 47.7962C206.799 47.8011 206.768 47.8086 206.738 47.8186C206.645 47.8285 206.551 47.8335 206.458 47.8335C205.813 47.8373 205.189 47.6051 204.703 47.1809C204.218 46.7566 203.905 46.1695 203.823 45.5304C203.814 45.4291 203.767 45.3349 203.692 45.2666C203.616 45.1984 203.517 45.1613 203.416 45.1628H203.318C203.216 45.1609 203.118 45.1979 203.042 45.2662C202.966 45.3345 202.92 45.4289 202.911 45.5304C202.833 46.168 202.523 46.7549 202.041 47.1794C201.558 47.6039 200.936 47.8367 200.293 47.8335C199.648 47.8374 199.023 47.6052 198.538 47.1809C198.052 46.7566 197.739 46.1696 197.657 45.5304C197.648 45.4291 197.601 45.3349 197.526 45.2666C197.45 45.1984 197.352 45.1613 197.25 45.1628H197.175C197.073 45.1609 196.974 45.1979 196.899 45.2662C196.823 45.3345 196.776 45.4289 196.768 45.5304C196.687 46.1669 196.376 46.7518 195.894 47.1758C195.412 47.5998 194.792 47.8336 194.149 47.8335C193.454 47.8345 192.786 47.5629 192.289 47.0773C191.803 46.5809 191.531 45.9139 191.532 45.2196C191.532 44.578 191.766 43.9585 192.19 43.477C192.615 42.9956 193.2 42.6852 193.837 42.6041C193.939 42.5959 194.034 42.5494 194.103 42.4739C194.171 42.3983 194.208 42.2995 194.206 42.1976V42.1229C194.208 42.0211 194.17 41.9226 194.102 41.8472C194.033 41.7718 193.939 41.725 193.837 41.7164C193.198 41.6346 192.61 41.3218 192.185 40.8369C191.76 40.3521 191.528 39.7287 191.532 39.0844C191.528 38.442 191.762 37.8209 192.187 37.3388C192.612 36.8566 193.199 36.5471 193.837 36.4689C193.939 36.4608 194.034 36.4142 194.103 36.3387C194.171 36.2632 194.208 36.1644 194.206 36.0624V35.9653C194.208 35.8635 194.17 35.765 194.102 35.6896C194.033 35.6142 193.939 35.5674 193.837 35.5588C193.198 35.477 192.61 35.1642 192.185 34.6794C191.76 34.1945 191.528 33.5711 191.532 32.9269C191.532 32.8402 191.536 32.755 191.544 32.6705H191.549ZM193.844 29.4401C193.812 29.4317 193.779 29.4259 193.745 29.4229C192.863 29.5457 192.06 29.9964 191.496 30.685C191.071 31.1917 190.797 31.8082 190.706 32.4635C190.709 32.492 190.713 32.5203 190.72 32.548C190.708 32.6609 190.703 32.7744 190.703 32.888C190.708 33.5181 190.881 34.1354 191.205 34.6763C191.529 35.2171 191.991 35.6621 192.544 35.9653C191.991 36.2686 191.529 36.7137 191.205 37.2547C190.881 37.7957 190.708 38.4131 190.703 39.0434C190.708 39.6734 190.881 40.2907 191.205 40.8315C191.529 41.3724 191.991 41.8174 192.544 42.1206C191.987 42.42 191.523 42.8642 191.198 43.4061C190.874 43.9479 190.703 44.5674 190.703 45.1986C190.703 45.2965 190.707 45.3929 190.715 45.4894C190.704 45.5339 190.7 45.5798 190.704 45.6254C190.807 46.3947 191.161 47.1085 191.713 47.6557C192.26 48.2062 192.975 48.5604 193.745 48.663C193.791 48.6668 193.838 48.6633 193.882 48.6526C193.978 48.6608 194.075 48.6645 194.173 48.6645C194.805 48.6643 195.425 48.4932 195.968 48.1694C196.51 47.8456 196.955 47.3812 197.254 46.8254C197.558 47.3779 198.003 47.8396 198.545 48.1629C199.086 48.4861 199.705 48.6593 200.335 48.6645C200.966 48.6594 201.585 48.4863 202.126 48.163C202.668 47.8398 203.114 47.378 203.417 46.8254C203.721 47.3779 204.166 47.8396 204.708 48.1629C205.249 48.4861 205.867 48.6593 206.498 48.6645C206.61 48.6645 206.723 48.6593 206.829 48.6489C206.861 48.6574 206.895 48.6629 206.928 48.6653C207.809 48.5424 208.611 48.0919 209.173 47.4039C209.599 46.8973 209.873 46.2808 209.964 45.6254C209.961 45.5969 209.957 45.5687 209.95 45.5409C209.961 45.4289 209.967 45.3168 209.967 45.2009C209.961 44.5709 209.788 43.9536 209.465 43.4128C209.141 42.8719 208.679 42.4269 208.126 42.1236C208.679 41.8203 209.141 41.3752 209.465 40.8342C209.788 40.2931 209.962 39.6758 209.967 39.0456C209.961 38.4155 209.788 37.7983 209.465 37.2574C209.141 36.7165 208.679 36.2715 208.126 35.9683C208.682 35.6688 209.147 35.2246 209.471 34.6827C209.795 34.1408 209.966 33.5214 209.967 32.8903C209.967 32.7924 209.963 32.6952 209.955 32.5995C209.965 32.5549 209.969 32.5092 209.966 32.4635C209.863 31.6939 209.509 30.9799 208.957 30.4332C208.409 29.8824 207.695 29.5282 206.925 29.4259C206.879 29.4221 206.832 29.4256 206.788 29.4364C206.692 29.4281 206.595 29.4244 206.497 29.4244C205.865 29.4246 205.245 29.5957 204.702 29.9195C204.16 30.2433 203.715 30.7077 203.416 31.2634C203.112 30.7109 202.667 30.2491 202.125 29.9259C201.583 29.6026 200.965 29.4295 200.334 29.4244C199.703 29.4296 199.085 29.6028 198.543 29.926C198.002 30.2493 197.556 30.7109 197.253 31.2634C196.949 30.7109 196.504 30.2491 195.962 29.9259C195.42 29.6026 194.802 29.4295 194.171 29.4244C194.06 29.4244 193.947 29.4296 193.84 29.4401H193.844Z" fill="#595959"/>
<path d="M206.949 49.3212L206.88 49.3159C206.851 49.3159 206.822 49.3099 206.794 49.3063C206.696 49.3129 206.598 49.3167 206.5 49.3167C205.741 49.3156 204.997 49.1048 204.35 48.7077C204.006 48.4973 203.693 48.2391 203.422 47.9409C203.031 48.3709 202.555 48.7151 202.024 48.9519C201.493 49.1887 200.918 49.3129 200.337 49.3167C199.578 49.3156 198.834 49.1048 198.187 48.7077C197.844 48.4976 197.532 48.2403 197.261 47.9432C196.992 48.2409 196.682 48.4983 196.339 48.7077C195.688 49.1059 194.939 49.3167 194.175 49.3167C194.088 49.3167 194.001 49.3167 193.914 49.3085C193.842 49.3174 193.769 49.3189 193.697 49.3129H193.678H193.659C193.2 49.2514 192.755 49.1144 192.34 48.9072C191.938 48.7053 191.571 48.4396 191.253 48.1204C190.934 47.8035 190.668 47.4368 190.466 47.0345C190.258 46.621 190.121 46.1758 190.059 45.7171V45.6984V45.6797C190.054 45.6074 190.055 45.5349 190.064 45.463C190.058 45.3764 190.056 45.2889 190.056 45.2029C190.056 44.44 190.267 43.6919 190.665 43.041C190.875 42.6985 191.133 42.3882 191.431 42.1197C191.133 41.8491 190.875 41.5376 190.665 41.1945C190.268 40.5487 190.057 39.8057 190.056 39.0476C190.06 38.4669 190.184 37.8933 190.421 37.3629C190.658 36.8327 191.003 36.3572 191.433 35.9666C191.134 35.6953 190.876 35.3831 190.665 35.0392C190.268 34.3934 190.057 33.6504 190.056 32.8923C190.056 32.7884 190.06 32.6838 190.068 32.5799C190.065 32.559 190.063 32.5381 190.061 32.5172L190.056 32.4484L190.065 32.3796C190.172 31.6038 190.496 30.8739 191 30.2739C191.666 29.4573 192.618 28.9233 193.662 28.7793L193.731 28.7695L193.801 28.7748C193.829 28.7748 193.858 28.7808 193.886 28.7845C193.984 28.7778 194.083 28.774 194.18 28.774C194.939 28.7754 195.684 28.9861 196.33 29.3831C196.674 29.5935 196.987 29.8517 197.258 30.1498C197.649 29.7199 198.125 29.3757 198.656 29.1389C199.187 28.9021 199.761 28.7779 200.343 28.774C201.102 28.7754 201.846 28.9861 202.493 29.3831C202.836 29.5932 203.148 29.8505 203.419 30.1475C203.688 29.8499 203.999 29.5925 204.341 29.3831C204.993 28.9848 205.742 28.7739 206.506 28.774C206.592 28.774 206.68 28.774 206.766 28.7823C206.838 28.7733 206.911 28.7718 206.984 28.7778H207.002H207.02C207.48 28.8392 207.925 28.9763 208.339 29.1835C208.742 29.3852 209.11 29.6509 209.427 29.9704C209.747 30.2869 210.013 30.6538 210.214 31.0562C210.422 31.4699 210.559 31.9151 210.621 32.3737V32.3924V32.411C210.626 32.4833 210.624 32.5559 210.615 32.6278C210.621 32.7144 210.624 32.8011 210.624 32.8878C210.624 33.6508 210.413 34.3989 210.014 35.0497C209.805 35.3922 209.547 35.7025 209.248 35.971C209.546 36.2414 209.804 36.553 210.014 36.8962C210.411 37.5419 210.623 38.285 210.624 39.0431C210.62 39.6239 210.496 40.1976 210.258 40.7279C210.021 41.2583 209.677 41.7337 209.246 42.1242C209.545 42.3951 209.803 42.7071 210.014 43.0508C210.411 43.6969 210.622 44.4401 210.624 45.1984C210.624 45.3024 210.62 45.4069 210.612 45.5101C210.612 45.531 210.617 45.5527 210.618 45.5736L210.624 45.6424L210.614 45.7111C210.508 46.4869 210.184 47.2169 209.68 47.8169C209.014 48.6336 208.062 49.1677 207.017 49.3114L206.949 49.3212ZM204.474 45.4533C204.536 45.9342 204.773 46.3755 205.139 46.6939C205.505 47.0123 205.975 47.1855 206.461 47.1809C206.514 47.1809 206.566 47.181 206.619 47.175C206.654 47.166 206.689 47.1585 206.725 47.1526H206.744C207.1 47.1028 207.436 46.9585 207.717 46.7349C208.116 46.4129 208.377 45.9515 208.448 45.4443V45.4256C208.455 45.3813 208.465 45.3374 208.477 45.2941C208.477 45.2515 208.482 45.2082 208.482 45.1656C208.486 44.6805 208.312 44.2107 207.994 43.8449C207.675 43.479 207.233 43.2425 206.751 43.18C206.491 43.1529 206.25 43.0302 206.076 42.8355C205.901 42.6409 205.805 42.3884 205.807 42.1271V42.03C205.805 41.7742 205.897 41.5265 206.065 41.3338C206.233 41.141 206.466 41.0165 206.72 40.9838H206.739H206.759C207.236 40.9216 207.674 40.6876 207.991 40.3258C208.307 39.964 208.481 39.4991 208.479 39.0184C208.484 38.5334 208.31 38.0636 207.991 37.6978C207.672 37.3319 207.23 37.0954 206.749 37.0329C206.489 37.0059 206.248 36.883 206.073 36.6884C205.899 36.4939 205.803 36.2414 205.805 35.98V35.9054C205.803 35.6495 205.894 35.4019 206.063 35.2091C206.231 35.0163 206.464 34.8919 206.718 34.8591H206.737H206.756C207.231 34.7921 207.667 34.5568 207.983 34.1959C208.298 33.8352 208.474 33.373 208.477 32.8938C208.478 32.3719 208.275 31.8704 207.911 31.4964C207.536 31.1324 207.034 30.9294 206.512 30.9307C206.03 30.9289 205.565 31.1024 205.203 31.4188C204.84 31.7352 204.606 32.1728 204.544 32.6494V32.6689V32.6875C204.511 32.9412 204.387 33.1741 204.194 33.3423C204.001 33.5104 203.753 33.6021 203.496 33.5999H203.422C203.16 33.6016 202.907 33.5059 202.712 33.3316C202.517 33.1574 202.394 32.9169 202.367 32.6569C202.304 32.1759 202.067 31.7344 201.701 31.4159C201.335 31.0974 200.864 30.924 200.379 30.9284C199.898 30.9266 199.432 31.1001 199.07 31.4166C198.708 31.733 198.473 32.1705 198.411 32.6472V32.6666V32.6853C198.378 32.9389 198.254 33.1719 198.061 33.34C197.868 33.5081 197.62 33.5998 197.364 33.5977H197.267C197.005 33.5994 196.753 33.5037 196.558 33.3294C196.363 33.1551 196.239 32.9146 196.212 32.6547C196.15 32.1736 195.913 31.7322 195.547 31.4137C195.18 31.0953 194.71 30.9218 194.224 30.9262C194.172 30.9262 194.119 30.9262 194.066 30.9329C194.032 30.9419 193.996 30.9494 193.96 30.9554H193.941C193.585 31.0049 193.249 31.1492 192.968 31.3731C192.569 31.6946 192.307 32.1562 192.237 32.6636V32.6823C192.23 32.7266 192.22 32.7705 192.208 32.8139C192.208 32.8564 192.204 32.8998 192.204 32.9424C192.2 33.4273 192.373 33.897 192.692 34.2629C193.011 34.6287 193.453 34.8653 193.934 34.9279C194.194 34.9549 194.435 35.0778 194.609 35.2724C194.784 35.467 194.88 35.7195 194.878 35.9808V36.0779C194.88 36.3336 194.789 36.5812 194.62 36.7739C194.452 36.9667 194.219 37.0913 193.965 37.1241H193.946H193.927C193.449 37.1862 193.011 37.4201 192.694 37.7819C192.377 38.1439 192.204 38.6088 192.206 39.0894C192.201 39.5744 192.375 40.044 192.693 40.4098C193.012 40.7755 193.454 41.0119 193.935 41.0742C194.196 41.1017 194.436 41.2247 194.611 41.4194C194.785 41.6141 194.881 41.8666 194.88 42.1279V42.2026C194.882 42.4583 194.79 42.7059 194.622 42.8986C194.454 43.0914 194.221 43.2159 193.967 43.2488H193.947H193.928C193.453 43.3159 193.018 43.5512 192.702 43.9119C192.386 44.2728 192.21 44.7349 192.207 45.2142C192.206 45.7358 192.409 46.2371 192.774 46.6108C193.148 46.9751 193.65 47.1782 194.173 47.1765C194.652 47.1732 195.115 46.9978 195.476 46.6823C195.837 46.3669 196.073 45.9323 196.14 45.4578V45.4384L196.144 45.4189C196.177 45.1654 196.302 44.9326 196.495 44.7646C196.688 44.5967 196.936 44.5051 197.192 44.5072H197.266C197.528 44.5056 197.781 44.6013 197.976 44.7756C198.171 44.9499 198.294 45.1904 198.321 45.4503C198.384 45.9312 198.621 46.3726 198.987 46.6909C199.353 47.0094 199.824 47.1826 200.309 47.178C200.791 47.18 201.256 47.0065 201.618 46.69C201.981 46.3736 202.215 45.9359 202.277 45.4593V45.4399L202.281 45.4212C202.313 45.1674 202.438 44.9345 202.631 44.7664C202.824 44.5983 203.072 44.5066 203.328 44.5087H203.425C203.686 44.5089 203.938 44.6054 204.131 44.7799C204.325 44.9544 204.447 45.1943 204.474 45.4533Z" fill="#595959"/>
<path d="M200.346 41.5936C199.873 41.595 199.405 41.5027 198.968 41.3221C198.532 41.1415 198.135 40.8761 197.802 40.5415C197.467 40.2086 197.201 39.8126 197.021 39.3765C196.84 38.9404 196.747 38.4727 196.749 38.0007C196.749 37.7891 196.833 37.5863 196.982 37.4366C197.132 37.287 197.335 37.2028 197.547 37.2026C197.759 37.2028 197.962 37.287 198.111 37.4366C198.261 37.5863 198.345 37.7891 198.345 38.0007C198.346 38.5304 198.557 39.0381 198.932 39.4126C199.307 39.787 199.816 39.9976 200.346 39.9982C200.876 39.9976 201.385 39.787 201.76 39.4126C202.135 39.0381 202.346 38.5304 202.346 38.0007C202.346 37.896 202.367 37.7922 202.407 37.6954C202.447 37.5986 202.506 37.5106 202.58 37.4364C202.654 37.3623 202.742 37.3035 202.839 37.2634C202.936 37.2233 203.04 37.2026 203.145 37.2026C203.357 37.2028 203.56 37.287 203.709 37.4366C203.859 37.5863 203.943 37.7891 203.943 38.0007C203.944 38.4727 203.852 38.9403 203.671 39.3765C203.49 39.8126 203.225 40.2086 202.89 40.5415C202.556 40.8761 202.16 41.1414 201.723 41.3221C201.287 41.5026 200.818 41.595 200.346 41.5936Z" fill="#595959"/>
<path d="M54.8761 144.607V144.766H48.0979V144.607C48.8597 144.475 49.1597 144.289 49.241 143.707V134.914C49.241 133.298 48.6425 132.503 47.4175 132.503C47.0125 132.511 46.6205 132.644 46.2976 132.881C45.9746 133.119 45.7372 133.451 45.6192 133.828C45.6747 134.134 45.7022 134.444 45.7012 134.755V143.021C45.7012 144.001 46.0004 144.399 46.9241 144.611V144.769H40.4458V144.607C41.3709 144.397 41.6687 143.998 41.6687 143.018V134.911C41.6687 133.294 41.0422 132.5 39.8445 132.5C39.4637 132.503 39.0936 132.622 38.786 132.841C38.4784 133.06 38.2489 133.366 38.1297 133.718V143.018C38.1297 143.998 38.4289 144.396 39.3525 144.607V144.766H32.4932V144.607C33.5541 144.369 34.0987 143.918 34.0987 142.857V134.411C34.0987 133.006 33.7181 132.582 32.4932 132.476V132.318L38.1275 130.807V133.298C38.3649 132.538 38.8543 131.876 39.5192 131.416C40.1842 130.956 40.9872 130.723 41.8025 130.754C43.8439 130.754 45.1236 131.761 45.5314 133.404C45.7967 132.616 46.3163 131.933 47.0127 131.455C47.7092 130.978 48.5455 130.732 49.3971 130.754C51.9291 130.754 53.2627 132.344 53.2627 134.755V142.862C53.2698 143.922 53.8143 144.373 54.8761 144.607Z" fill="#595959"/>
<path d="M69.2771 141.881C68.8146 144.052 67.3716 145.167 65.4647 145.167C65.1211 145.197 64.7745 145.161 64.4453 145.06C64.1161 144.959 63.811 144.795 63.5475 144.578C63.284 144.361 63.0675 144.095 62.9106 143.796C62.7536 143.497 62.6595 143.17 62.6335 142.836L62.5795 142.625C62.3307 143.394 61.827 144.06 61.1474 144.52C60.4678 144.98 59.6507 145.207 58.824 145.167C58.3565 145.202 57.8864 145.143 57.4437 144.992C57.0011 144.841 56.5953 144.603 56.2524 144.291C55.9095 143.98 55.6367 143.603 55.4515 143.183C55.2663 142.764 55.1725 142.312 55.1764 141.855C55.1764 139.497 57.1365 137.961 60.267 137.324L62.5263 136.874V136.314C62.5263 134.274 61.7639 132.87 59.4771 132.87C57.7084 132.87 56.456 133.692 55.8569 135.758L55.6411 135.705C56.0726 132.658 58.145 130.75 61.3575 130.75C64.9777 130.75 66.5566 133.003 66.5566 136.394V141.719C66.5566 142.646 67.0191 143.123 67.6184 143.123C68.1356 143.123 68.7341 142.832 69.0333 141.852L69.2771 141.881ZM62.5263 142.173V137.536L61.4646 137.721C59.3412 138.146 58.9334 139.444 58.9334 140.742C58.9334 142.093 59.6138 143.153 60.9201 143.153C61.2602 143.178 61.5996 143.096 61.8886 142.92C62.1777 142.744 62.4011 142.482 62.5263 142.173Z" fill="#595959"/>
<path d="M84.0596 144.607V144.766H77.2002V144.607C78.0987 144.397 78.4231 143.998 78.4231 143.018V134.941C78.4231 133.324 77.7972 132.503 76.5176 132.503C76.0837 132.499 75.6585 132.62 75.2952 132.851C74.932 133.082 74.6471 133.413 74.4762 133.801V143.021C74.4762 144.001 74.7754 144.399 75.6991 144.61V144.769H68.8403V144.607C69.9021 144.369 70.4466 143.918 70.4466 142.857V134.411C70.4466 133.006 70.0653 132.582 68.8403 132.476V132.317L74.4755 130.807V133.405C74.7515 132.597 75.293 131.9 76.0165 131.42C76.74 130.941 77.6054 130.707 78.4792 130.754C81.0687 130.754 82.4534 132.294 82.4534 134.781V142.862C82.4542 143.921 82.9987 144.372 84.0596 144.607Z" fill="#595959"/>
<path d="M93.3151 141.643C92.7168 143.577 91.2468 145.167 88.8785 145.167C86.5918 145.167 85.5026 143.763 85.5026 141.697V131.734H83.9243V131.602C86.0935 130.412 87.9768 128.787 89.4501 126.833H89.5593V131.205H92.3085V131.734H89.556V141.087C89.556 142.306 90.0735 143.127 91.0801 143.127C91.5485 143.126 92.0018 142.971 92.3676 142.687C92.7335 142.403 92.9893 142.007 93.0943 141.563L93.3151 141.643Z" fill="#595959"/>
<path d="M104.614 139.974C103.933 143.789 101.456 145.167 99.0879 145.167C95.9296 145.167 93.0454 142.782 93.0454 138.225C93.0454 133.88 95.5229 130.754 99.2521 130.754C101.892 130.754 104.615 132.37 104.587 136.742H96.2029C96.4754 140.133 98.2721 142.014 100.913 142.014C101.651 142.08 102.393 141.912 103.025 141.535C103.658 141.158 104.149 140.592 104.424 139.921L104.614 139.974ZM96.1746 135.785V136.077H100.884C100.911 132.685 100.013 131.493 98.6537 131.493C97.1279 131.496 96.1746 133.138 96.1746 135.785Z" fill="#595959"/>
<path d="M115.04 130.754V134.569H114.904C114.459 134.379 113.974 134.297 113.489 134.331C111.719 134.331 110.549 135.258 110.549 138.782V142.862C110.549 144.052 111.229 144.425 112.699 144.612V144.771H104.914V144.607C105.975 144.369 106.52 143.918 106.52 142.856V134.649C106.52 133.138 106.111 132.608 104.914 132.503V132.344L110.385 130.807V136.742H110.522C110.738 132.476 112.373 130.754 114.741 130.754H115.04Z" fill="#595959"/>
<path d="M113.843 142.941C113.852 142.364 114.094 141.812 114.517 141.407C114.939 141.001 115.509 140.773 116.102 140.771C116.691 140.779 117.254 141.01 117.67 141.415C118.087 141.82 118.324 142.368 118.332 142.941C118.335 143.52 118.102 144.077 117.684 144.489C117.266 144.902 116.697 145.136 116.102 145.14C115.805 145.141 115.511 145.085 115.236 144.974C114.962 144.864 114.713 144.702 114.503 144.498C114.293 144.293 114.126 144.051 114.013 143.784C113.899 143.517 113.842 143.23 113.843 142.941Z" fill="#595959"/>
<path d="M195.195 143.267C198.63 143.267 201.591 141.515 201.591 138.435C201.591 131.614 192.021 134.882 192.021 129.79C192.021 128.44 192.898 127.35 194.698 127.35C198.156 127.35 197.28 131.566 199.838 131.566C200.856 131.566 201.354 130.998 201.354 130.098C201.377 128.132 198.748 126 194.769 126C190.861 126 188.492 128.084 188.492 130.927C188.516 137.938 198.085 134.48 198.085 139.525C198.085 140.97 196.995 141.917 195.337 141.917C191.334 141.917 191.974 137.606 189.605 137.559C188.634 137.559 188.184 138.175 188.184 139.004C188.184 140.899 190.695 143.267 195.195 143.267ZM213.531 140.614V131.945C213.531 131.543 213.247 131.448 212.631 131.519L209.599 131.969C209.315 132.016 209.125 132.23 209.125 132.466V132.537C209.125 133.059 210.073 133.295 210.073 134.338V139.146C210.073 140.828 209.173 141.917 208.036 141.917C206.733 141.917 206.07 140.899 206.07 138.696L206.141 131.945C206.141 131.543 205.786 131.448 205.17 131.519L202.185 131.969C201.878 132.016 201.688 132.23 201.688 132.466V132.537C201.688 133.059 202.612 133.295 202.612 134.338V138.341C202.612 141.586 204.578 143.267 207.017 143.267C208.652 143.267 209.812 142.675 210.452 141.633C210.523 142.794 211.21 143.173 212.56 143.173C213.886 143.173 214.668 143.03 214.668 142.486C214.668 141.609 213.531 142.486 213.531 140.614ZM225.136 131.661C222.72 131.661 221.939 131.424 220.423 131.424C217.107 131.424 214.809 133.437 214.809 136.398C214.809 139.098 217.178 141.088 220.352 141.088C220.66 141.088 220.968 141.064 221.276 141.041C222.199 141.23 222.744 142.036 222.744 143.22C222.744 144.546 221.82 145.446 220.352 145.446C217.581 145.399 218.102 141.846 216.159 141.846C215.188 141.846 214.762 142.509 214.762 143.173C214.762 145.02 216.799 146.441 220.281 146.441C223.644 146.441 226.226 145.138 226.226 143.125C226.226 141.87 225.492 140.899 223.384 140.425C225.018 139.643 226.036 138.175 226.036 136.304C226.036 135.167 225.468 134.053 224.71 133.272C225.444 133.059 226.344 133.153 226.51 132.372C226.652 131.945 226.415 131.661 225.136 131.661ZM218.149 134.835C218.149 133.39 218.812 132.466 219.902 132.466C221.56 132.466 222.673 135.38 222.673 137.654C222.673 139.051 222.01 140.022 220.873 140.022C219.381 140.022 218.149 137.346 218.149 134.835ZM237.592 140.662L237.071 136.28C236.74 133.295 234.655 131.424 231.576 131.424C229.113 131.424 227.028 132.419 227.028 134.124C227.028 134.93 227.597 135.451 228.45 135.451C230.226 135.451 229.681 132.419 231.576 132.419C233.021 132.419 233.4 133.745 233.684 136.517L233.708 136.801C233.092 136.375 232.216 136.09 231.126 136.09C228.805 136.09 226.815 137.322 226.839 139.691C226.839 142.059 228.734 143.267 231.292 143.267C232.926 143.267 233.921 142.675 234.442 141.893C234.584 142.912 235.2 143.173 236.55 143.173C237.687 143.173 238.824 143.03 238.824 142.486C238.824 141.846 237.782 142.296 237.592 140.662ZM232.334 142.225C231.126 142.225 230.344 140.78 230.344 139.146C230.344 137.938 231.079 137.156 232.074 137.156C233.045 137.156 233.803 137.867 233.945 139.264L234.016 140.093C234.087 141.159 233.424 142.225 232.334 142.225ZM245.862 131.424C244.275 131.424 243.162 132.253 242.641 133.769V131.993C242.641 131.543 242.428 131.258 241.883 131.519L239.04 132.845C238.733 132.988 238.543 133.177 238.543 133.414V133.509C238.543 134.101 239.633 134.172 239.633 135.214V140.757C239.633 141.751 238.709 141.941 238.709 142.533V142.628C238.709 142.888 238.922 143.03 239.254 143.03H243.636C243.943 143.03 244.157 142.888 244.157 142.628V142.533C244.157 141.941 242.972 141.751 242.972 140.757V136.019C242.972 134.717 243.304 133.414 244.228 133.414C245.507 133.414 244.678 135.451 246.525 135.451C247.662 135.451 248.041 134.574 248.041 133.58C248.041 132.372 247.26 131.424 245.862 131.424ZM253.557 143.267C256.636 143.267 258.247 141.349 258.389 139.406C258.436 138.885 257.844 138.791 257.56 139.17C257.063 140.022 256.163 140.828 254.718 140.828C252.302 140.828 250.691 138.767 250.691 135.617C250.691 133.864 251.544 132.466 252.894 132.466C254.955 132.443 254.812 135.806 256.85 135.925C257.939 135.972 258.318 135.356 258.318 134.74C258.318 132.893 256.139 131.401 253.415 131.424C250.217 131.448 247.446 133.674 247.446 137.322C247.446 140.52 249.98 143.267 253.557 143.267ZM269.424 140.662L268.903 136.28C268.571 133.295 266.487 131.424 263.407 131.424C260.944 131.424 258.86 132.419 258.86 134.124C258.86 134.93 259.428 135.451 260.281 135.451C262.057 135.451 261.512 132.419 263.407 132.419C264.852 132.419 265.231 133.745 265.515 136.517L265.539 136.801C264.923 136.375 264.046 136.09 262.957 136.09C260.636 136.09 258.646 137.322 258.67 139.691C258.67 142.059 260.565 143.267 263.123 143.267C264.757 143.267 265.752 142.675 266.274 141.893C266.415 142.912 267.031 143.173 268.381 143.173C269.518 143.173 270.655 143.03 270.655 142.486C270.655 141.846 269.613 142.296 269.424 140.662ZM264.165 142.225C262.957 142.225 262.176 140.78 262.176 139.146C262.176 137.938 262.91 137.156 263.905 137.156C264.876 137.156 265.634 137.867 265.776 139.264L265.847 140.093C265.918 141.159 265.254 142.225 264.165 142.225ZM282.762 140.733L282.478 136.469C282.194 132.703 280.109 131.424 277.954 131.424C276.343 131.424 275.088 132.135 274.449 133.343V132.016C274.449 131.566 274.188 131.235 273.643 131.519L270.825 132.893C270.54 133.035 270.351 133.153 270.351 133.39V133.485C270.351 134.077 271.511 134.172 271.511 135.238V140.757C271.511 141.775 270.492 141.965 270.492 142.557V142.651C270.492 142.888 270.706 143.054 271.037 143.054H275.443C275.775 143.054 275.988 142.888 275.988 142.651V142.557C275.988 141.965 274.969 141.775 274.969 140.757V135.38C274.969 133.84 275.704 132.774 276.983 132.774C278.239 132.774 278.926 133.816 279.044 136.351L279.28 140.733C279.328 141.775 278.427 141.965 278.427 142.557V142.651C278.427 142.888 278.641 143.054 278.973 143.054H283.07C283.402 143.054 283.615 142.888 283.615 142.651V142.557C283.615 141.965 282.834 141.775 282.762 140.733ZM293.387 139.43C292.937 140.164 291.942 140.804 290.687 140.804C289.265 140.804 288.176 140.046 287.56 138.743L292.819 136.351C293.458 136.067 293.86 135.593 293.86 134.788C293.86 133.224 292.487 131.424 289.384 131.424C286.281 131.424 283.652 133.816 283.652 137.251C283.652 140.899 286.092 143.267 289.384 143.267C292.439 143.267 294.05 141.064 294.193 139.691C294.216 139.193 293.671 139.075 293.387 139.43ZM288.958 132.466C290.237 132.466 290.853 134.148 290.853 135.001C290.853 135.498 290.663 135.901 290.237 136.114L287.181 137.654C287.015 137.038 286.944 136.351 286.944 135.617C286.944 133.816 287.702 132.466 288.958 132.466Z" fill="#595959"/>
</svg>
